Jonova-Regular.ufo
<glyph name="exclam" format="2">
  <advance width="736"/>
  <unicode hex="0021"/>
  <outline>
    <contour>
      <point x="433" y="391" type="line"/>
      <point x="362" y="1434" type="line"/>
      <point x="392" y="1464" type="line"/>
      <point x="558" y="1464" type="line"/>
      <point x="588" y="1434" type="line"/>
      <point x="515" y="391" type="line"/>
    </contour>
    <contour>
      <point x="362" y="83" type="qcurve"/>
      <point x="362" y="106"/>
      <point x="380" y="147"/>
      <point x="411" y="178"/>
      <point x="452" y="196"/>
      <point x="475" y="196" type="qcurve"/>
      <point x="498" y="196"/>
      <point x="539" y="178"/>
      <point x="570" y="147"/>
      <point x="588" y="106"/>
      <point x="588" y="83" type="qcurve"/>
      <point x="588" y="60"/>
      <point x="570" y="19"/>
      <point x="539" y="-12"/>
      <point x="498" y="-30"/>
      <point x="475" y="-30" type="qcurve"/>
      <point x="452" y="-30"/>
      <point x="411" y="-12"/>
      <point x="380" y="19"/>
      <point x="362" y="60"/>
    </contour>
  </outline>
</glyph>
<glyph name="numbersign" format="2">
  <advance width="1120"/>
  <unicode hex="0023"/>
  <guideline x="-63" y="0" angle="80"/>
  <outline>
    <contour>
      <point x="144" y="1004" type="line" name="at03"/>
      <point x="368" y="1004" type="line" name="sh01"/>
      <point x="449" y="1464" type="line" name="at01"/>
      <point x="548" y="1446" type="line"/>
      <point x="470" y="1004" type="line" name="sh02"/>
      <point x="742" y="1004" type="line" name="sh03"/>
      <point x="823" y="1464" type="line" name="at02"/>
      <point x="922" y="1446" type="line"/>
      <point x="844" y="1004" type="line" name="sh04"/>
      <point x="1068" y="1004" type="line"/>
      <point x="1050" y="902" type="line" name="sv01"/>
      <point x="826" y="902" type="line"/>
      <point x="761" y="533" type="line" name="sh06"/>
      <point x="985" y="533" type="line" name="dv02"/>
      <point x="967" y="431" type="line" name="dv01"/>
      <point x="743" y="431" type="line"/>
      <point x="662" y="-30" type="line" name="dh04"/>
      <point x="563" y="-13" type="line" name="dh03"/>
      <point x="641" y="431" type="line" name="sv02"/>
      <point x="369" y="431" type="line"/>
      <point x="288" y="-30" type="line" name="dh02"/>
      <point x="189" y="-13" type="line" name="dh01"/>
      <point x="267" y="431" type="line" name="sv03"/>
      <point x="44" y="431" type="line" name="mv01"/>
      <point x="62" y="533" type="line" name="sv04"/>
      <point x="285" y="533" type="line" name="sh07"/>
      <point x="350" y="902" type="line" name="sv05"/>
      <point x="126" y="902" type="line" name="mh01"/>
    </contour>
    <contour>
      <point x="387" y="533" type="line" name="sh08"/>
      <point x="659" y="533" type="line" name="sh05"/>
      <point x="724" y="902" type="line" name="sv06"/>
      <point x="452" y="902" type="line" name="sv07"/>
    </contour>
  </outline>
</glyph>
<glyph name="dollar" format="2">
  <advance width="1120"/>
  <unicode hex="0024"/>
  <outline>
    <contour>
      <point x="767" y="1207" type="line"/>
      <point x="722" y="1279"/>
      <point x="611" y="1352"/>
      <point x="545" y="1362" type="qcurve"/>
      <point x="545" y="839" type="line"/>
      <point x="624" y="803"/>
      <point x="764" y="720"/>
      <point x="869" y="610"/>
      <point x="930" y="465"/>
      <point x="930" y="368" type="qcurve"/>
      <point x="930" y="291"/>
      <point x="871" y="155"/>
      <point x="768" y="48"/>
      <point x="627" y="-21"/>
      <point x="545" y="-30" type="qcurve"/>
      <point x="545" y="-152" type="line"/>
      <point x="443" y="-170" type="line"/>
      <point x="443" y="-30" type="line"/>
      <point x="383" y="-29"/>
      <point x="279" y="-2"/>
      <point x="192" y="41"/>
      <point x="120" y="96"/>
      <point x="92" y="125" type="qcurve"/>
      <point x="195" y="227" type="line"/>
      <point x="210" y="202"/>
      <point x="257" y="149"/>
      <point x="319" y="104"/>
      <point x="397" y="74"/>
      <point x="443" y="72" type="qcurve"/>
      <point x="443" y="663" type="line"/>
      <point x="366" y="695"/>
      <point x="239" y="776"/>
      <point x="147" y="881"/>
      <point x="96" y="1014"/>
      <point x="96" y="1097" type="qcurve"/>
      <point x="96" y="1161"/>
      <point x="148" y="1286"/>
      <point x="240" y="1388"/>
      <point x="368" y="1456"/>
      <point x="443" y="1464" type="qcurve"/>
      <point x="443" y="1586" type="line"/>
      <point x="545" y="1604" type="line"/>
      <point x="545" y="1464" type="line"/>
      <point x="596" y="1462"/>
      <point x="691" y="1433"/>
      <point x="775" y="1390"/>
      <point x="844" y="1336"/>
      <point x="869" y="1309" type="qcurve"/>
    </contour>
    <contour>
      <point x="768" y="321" type="qcurve"/>
      <point x="768" y="366"/>
      <point x="739" y="444"/>
      <point x="683" y="515"/>
      <point x="599" y="581"/>
      <point x="545" y="613" type="qcurve"/>
      <point x="545" y="72" type="line"/>
      <point x="595" y="79"/>
      <point x="677" y="117"/>
      <point x="736" y="179"/>
      <point x="768" y="265"/>
    </contour>
    <contour>
      <point x="258" y="1136" type="qcurve"/>
      <point x="258" y="1090"/>
      <point x="281" y="1025"/>
      <point x="327" y="972"/>
      <point x="396" y="923"/>
      <point x="443" y="893" type="qcurve"/>
      <point x="443" y="1362" type="line"/>
      <point x="413" y="1357"/>
      <point x="348" y="1325"/>
      <point x="293" y="1270"/>
      <point x="258" y="1190"/>
    </contour>
  </outline>
</glyph>
<glyph name="percent" format="2">
  <advance width="1600"/>
  <unicode hex="0025"/>
  <outline>
    <contour>
      <point x="1378" y="1434" type="line"/>
      <point x="353" y="-30" type="line"/>
      <point x="222" y="0" type="line"/>
      <point x="1248" y="1464" type="line"/>
    </contour>
    <contour>
      <point x="383" y="1434" type="qcurve"/>
      <point x="437" y="1434"/>
      <point x="539" y="1390"/>
      <point x="618" y="1300"/>
      <point x="667" y="1162"/>
      <point x="667" y="1068" type="qcurve"/>
      <point x="667" y="974"/>
      <point x="618" y="836"/>
      <point x="539" y="746"/>
      <point x="437" y="702"/>
      <point x="383" y="702" type="qcurve"/>
      <point x="330" y="702"/>
      <point x="228" y="746"/>
      <point x="148" y="836"/>
      <point x="100" y="974"/>
      <point x="100" y="1068" type="qcurve"/>
      <point x="100" y="1162"/>
      <point x="148" y="1300"/>
      <point x="228" y="1390"/>
      <point x="330" y="1434"/>
    </contour>
    <contour>
      <point x="383" y="1352" type="qcurve"/>
      <point x="347" y="1352"/>
      <point x="288" y="1324"/>
      <point x="246" y="1258"/>
      <point x="222" y="1149"/>
      <point x="222" y="1068" type="qcurve"/>
      <point x="222" y="987"/>
      <point x="246" y="878"/>
      <point x="288" y="812"/>
      <point x="347" y="784"/>
      <point x="383" y="784" type="qcurve"/>
      <point x="419" y="784"/>
      <point x="478" y="812"/>
      <point x="521" y="878"/>
      <point x="545" y="987"/>
      <point x="545" y="1068" type="qcurve"/>
      <point x="545" y="1149"/>
      <point x="521" y="1258"/>
      <point x="478" y="1324"/>
      <point x="419" y="1352"/>
    </contour>
    <contour>
      <point x="1216" y="732" type="qcurve"/>
      <point x="1270" y="732"/>
      <point x="1372" y="688"/>
      <point x="1451" y="598"/>
      <point x="1500" y="460"/>
      <point x="1500" y="366" type="qcurve"/>
      <point x="1500" y="272"/>
      <point x="1451" y="134"/>
      <point x="1372" y="44"/>
      <point x="1270" y="0"/>
      <point x="1216" y="0" type="qcurve"/>
      <point x="1163" y="0"/>
      <point x="1061" y="44"/>
      <point x="981" y="134"/>
      <point x="933" y="272"/>
      <point x="933" y="366" type="qcurve"/>
      <point x="933" y="460"/>
      <point x="981" y="598"/>
      <point x="1061" y="688"/>
      <point x="1163" y="732"/>
    </contour>
    <contour>
      <point x="1216" y="650" type="qcurve"/>
      <point x="1180" y="650"/>
      <point x="1121" y="622"/>
      <point x="1079" y="556"/>
      <point x="1055" y="447"/>
      <point x="1055" y="366" type="qcurve"/>
      <point x="1055" y="285"/>
      <point x="1079" y="176"/>
      <point x="1121" y="110"/>
      <point x="1180" y="82"/>
      <point x="1216" y="82" type="qcurve"/>
      <point x="1252" y="82"/>
      <point x="1311" y="110"/>
      <point x="1354" y="176"/>
      <point x="1378" y="285"/>
      <point x="1378" y="366" type="qcurve"/>
      <point x="1378" y="447"/>
      <point x="1354" y="556"/>
      <point x="1311" y="622"/>
      <point x="1252" y="650"/>
    </contour>
  </outline>
</glyph>
<glyph name="parenleft" format="2">
  <advance width="736"/>
  <unicode hex="0028"/>
  <outline>
    <contour>
      <point x="654" y="1464" type="line"/>
      <point x="564" y="1390"/>
      <point x="425" y="1196"/>
      <point x="332" y="971"/>
      <point x="284" y="722"/>
      <point x="284" y="593" type="qcurve"/>
      <point x="284" y="305"/>
      <point x="473" y="-130"/>
      <point x="654" y="-278" type="qcurve"/>
      <point x="634" y="-384" type="line"/>
      <point x="390" y="-226"/>
      <point x="132" y="258"/>
      <point x="132" y="593" type="qcurve"/>
      <point x="132" y="927"/>
      <point x="390" y="1412"/>
      <point x="634" y="1570" type="qcurve"/>
    </contour>
  </outline>
</glyph>
<glyph name="plus" format="2">
  <advance width="1152"/>
  <unicode hex="002B"/>
  <outline>
    <contour>
      <point x="89" y="426" type="line"/>
      <point x="89" y="548" type="line"/>
      <point x="515" y="548" type="line"/>
      <point x="515" y="974" type="line"/>
      <point x="637" y="974" type="line"/>
      <point x="637" y="548" type="line"/>
      <point x="1063" y="548" type="line"/>
      <point x="1063" y="426" type="line"/>
      <point x="637" y="426" type="line"/>
      <point x="637" y="0" type="line"/>
      <point x="515" y="0" type="line"/>
      <point x="515" y="426" type="line"/>
    </contour>
  </outline>
</glyph>
<glyph name="zero" format="2">
  <advance width="1120"/>
  <unicode hex="0030"/>
  <outline>
    <contour>
      <point x="560" y="1464" type="qcurve"/>
      <point x="666" y="1464"/>
      <point x="845" y="1371"/>
      <point x="974" y="1185"/>
      <point x="1046" y="904"/>
      <point x="1046" y="717" type="qcurve"/>
      <point x="1046" y="529"/>
      <point x="974" y="249"/>
      <point x="845" y="63"/>
      <point x="666" y="-30"/>
      <point x="560" y="-30" type="qcurve"/>
      <point x="453" y="-30"/>
      <point x="275" y="63"/>
      <point x="146" y="249"/>
      <point x="74" y="529"/>
      <point x="74" y="717" type="qcurve"/>
      <point x="74" y="904"/>
      <point x="146" y="1185"/>
      <point x="275" y="1371"/>
      <point x="453" y="1464"/>
    </contour>
    <contour>
      <point x="560" y="1362" type="qcurve"/>
      <point x="489" y="1362"/>
      <point x="373" y="1281"/>
      <point x="291" y="1120"/>
      <point x="246" y="878"/>
      <point x="246" y="717" type="qcurve"/>
      <point x="246" y="556"/>
      <point x="291" y="314"/>
      <point x="373" y="153"/>
      <point x="489" y="72"/>
      <point x="560" y="72" type="qcurve"/>
      <point x="631" y="72"/>
      <point x="747" y="153"/>
      <point x="829" y="314"/>
      <point x="874" y="556"/>
      <point x="874" y="717" type="qcurve"/>
      <point x="874" y="878"/>
      <point x="829" y="1120"/>
      <point x="747" y="1281"/>
      <point x="631" y="1362"/>
    </contour>
  </outline>
</glyph>
<glyph name="one" format="2">
  <advance width="1120"/>
  <unicode hex="0031"/>
  <outline>
    <contour>
      <point x="688" y="1464" type="line"/>
      <point x="688" y="0" type="line"/>
      <point x="526" y="0" type="line"/>
      <point x="526" y="1266" type="line"/>
      <point x="516" y="1266" type="line"/>
      <point x="242" y="1207" type="line"/>
      <point x="224" y="1309" type="line"/>
      <point x="658" y="1464" type="line"/>
    </contour>
  </outline>
</glyph>
<glyph name="two" format="2">
  <advance width="1120"/>
  <unicode hex="0032"/>
  <outline>
    <contour>
      <point x="220" y="1309" type="line"/>
      <point x="247" y="1337"/>
      <point x="324" y="1393"/>
      <point x="418" y="1437"/>
      <point x="526" y="1464"/>
      <point x="585" y="1464" type="qcurve"/>
      <point x="664" y="1464"/>
      <point x="805" y="1418"/>
      <point x="911" y="1324"/>
      <point x="972" y="1182"/>
      <point x="972" y="1086" type="qcurve"/>
      <point x="972" y="998"/>
      <point x="888" y="809"/>
      <point x="733" y="583"/>
      <point x="513" y="307"/>
      <point x="376" y="132" type="qcurve"/>
      <point x="376" y="122" type="line"/>
      <point x="996" y="142" type="line"/>
      <point x="971" y="0" type="line"/>
      <point x="153" y="0" type="line"/>
      <point x="153" y="20" type="line"/>
      <point x="276" y="177"/>
      <point x="470" y="430"/>
      <point x="616" y="634"/>
      <point x="718" y="796"/>
      <point x="781" y="929"/>
      <point x="810" y="1042"/>
      <point x="810" y="1095" type="qcurve"/>
      <point x="810" y="1153"/>
      <point x="778" y="1252"/>
      <point x="719" y="1322"/>
      <point x="636" y="1362"/>
      <point x="585" y="1362" type="qcurve"/>
      <point x="506" y="1362"/>
      <point x="379" y="1279"/>
      <point x="322" y="1207" type="qcurve"/>
    </contour>
  </outline>
</glyph>
<glyph name="three" format="2">
  <advance width="1120"/>
  <unicode hex="0033"/>
  <guideline x="0" y="261" angle="0"/>
  <guideline x="0" y="1488" angle="315"/>
  <guideline x="0" y="-5" angle="45"/>
  <guideline x="99" y="0" angle="90"/>
  <guideline x="247" y="0" angle="80"/>
  <outline>
    <contour>
      <point x="232" y="227" type="line" name="mv01"/>
      <point x="254" y="195"/>
      <point x="312" y="139"/>
      <point x="382" y="97"/>
      <point x="466" y="72"/>
      <point x="513" y="72" type="qcurve" name="sv01"/>
      <point x="574" y="72"/>
      <point x="685" y="124"/>
      <point x="767" y="215" name="mh01"/>
      <point x="816" y="339"/>
      <point x="816" y="411" type="qcurve" name="sh02"/>
      <point x="816" y="488"/>
      <point x="770" y="621"/>
      <point x="681" y="720"/>
      <point x="550" y="777"/>
      <point x="465" y="777" type="qcurve" name="mv02"/>
      <point x="373" y="777" type="line" name="ah01"/>
      <point x="392" y="879" type="line" name="sv02"/>
      <point x="476" y="879" type="line"/>
      <point x="521" y="879"/>
      <point x="611" y="917"/>
      <point x="683" y="987"/>
      <point x="728" y="1085"/>
      <point x="728" y="1146" type="qcurve" name="sh03"/>
      <point x="728" y="1191"/>
      <point x="702" y="1269"/>
      <point x="653" y="1328"/>
      <point x="583" y="1362"/>
      <point x="539" y="1362" type="qcurve" name="sv03"/>
      <point x="497" y="1362"/>
      <point x="429" y="1334"/>
      <point x="374" y="1290"/>
      <point x="329" y="1235"/>
      <point x="311" y="1207" type="qcurve" name="mv03"/>
      <point x="209" y="1309" type="line" name="sh05"/>
      <point x="228" y="1330"/>
      <point x="288" y="1384"/>
      <point x="370" y="1431"/>
      <point x="475" y="1464"/>
      <point x="540" y="1464" type="qcurve" name="at01"/>
      <point x="617" y="1464"/>
      <point x="745" y="1414" name="mv04"/>
      <point x="838" y="1328" name="fv01"/>
      <point x="890" y="1213"/>
      <point x="890" y="1147" type="qcurve" name="ih01"/>
      <point x="890" y="1079"/>
      <point x="842" y="976"/>
      <point x="772" y="901"/>
      <point x="691" y="855"/>
      <point x="658" y="845" type="qcurve"/>
      <point x="658" y="835" type="line" name="iv01"/>
      <point x="682" y="830"/>
      <point x="750" y="804"/>
      <point x="823" y="759"/>
      <point x="895" y="693"/>
      <point x="953" y="603"/>
      <point x="988" y="486"/>
      <point x="988" y="413" type="qcurve" name="sh01"/>
      <point x="988" y="323"/>
      <point x="920" y="162"/>
      <point x="796" y="41"/>
      <point x="621" y="-30"/>
      <point x="513" y="-30" type="qcurve" name="ab01"/>
      <point x="444" y="-30"/>
      <point x="329" y="-5"/>
      <point x="235" y="38"/>
      <point x="160" y="94"/>
      <point x="130" y="125" type="qcurve" name="sh04"/>
    </contour>
  </outline>
</glyph>
<glyph name="four" format="2">
  <advance width="1120"/>
  <unicode hex="0034"/>
  <outline>
    <contour>
      <point x="682" y="1464" type="line"/>
      <point x="712" y="1464" type="line"/>
      <point x="844" y="1434" type="line"/>
      <point x="273" y="481" type="line"/>
      <point x="682" y="496" type="line"/>
      <point x="682" y="667" type="line"/>
      <point x="814" y="707" type="line"/>
      <point x="844" y="707" type="line"/>
      <point x="844" y="502" type="line"/>
      <point x="1008" y="508" type="line"/>
      <point x="983" y="365" type="line"/>
      <point x="844" y="365" type="line"/>
      <point x="844" y="0" type="line"/>
      <point x="682" y="0" type="line"/>
      <point x="682" y="365" type="line"/>
      <point x="84" y="365" type="line"/>
      <point x="84" y="385" type="line"/>
    </contour>
  </outline>
</glyph>
<glyph name="five" format="2">
  <advance width="1120"/>
  <unicode hex="0035"/>
  <outline>
    <contour>
      <point x="182" y="777" type="line"/>
      <point x="182" y="1434" type="line"/>
      <point x="919" y="1434" type="line"/>
      <point x="897" y="1309" type="line"/>
      <point x="344" y="1332" type="line"/>
      <point x="344" y="893" type="line"/>
      <point x="354" y="893" type="line"/>
      <point x="387" y="910"/>
      <point x="485" y="931"/>
      <point x="536" y="931" type="qcurve"/>
      <point x="631" y="931"/>
      <point x="794" y="858"/>
      <point x="914" y="729"/>
      <point x="982" y="552"/>
      <point x="982" y="447" type="qcurve"/>
      <point x="982" y="351"/>
      <point x="918" y="178"/>
      <point x="795" y="47"/>
      <point x="613" y="-30"/>
      <point x="496" y="-30" type="qcurve"/>
      <point x="432" y="-30"/>
      <point x="318" y="-2"/>
      <point x="222" y="42"/>
      <point x="147" y="97"/>
      <point x="122" y="125" type="qcurve"/>
      <point x="224" y="227" type="line"/>
      <point x="242" y="200"/>
      <point x="297" y="145"/>
      <point x="367" y="100"/>
      <point x="450" y="72"/>
      <point x="495" y="72" type="qcurve"/>
      <point x="560" y="72"/>
      <point x="675" y="126"/>
      <point x="760" y="225"/>
      <point x="810" y="363"/>
      <point x="810" y="447" type="qcurve"/>
      <point x="810" y="543"/>
      <point x="755" y="686"/>
      <point x="671" y="781"/>
      <point x="571" y="829"/>
      <point x="526" y="829" type="qcurve"/>
      <point x="465" y="829"/>
      <point x="381" y="803"/>
      <point x="344" y="777" type="qcurve"/>
    </contour>
  </outline>
</glyph>
<glyph name="six" format="2">
  <advance width="1120"/>
  <unicode hex="0036"/>
  <outline>
    <contour>
      <point x="858" y="1464" type="qcurve"/>
      <point x="840" y="1362" type="line"/>
      <point x="717" y="1362"/>
      <point x="509" y="1256"/>
      <point x="356" y="1068"/>
      <point x="270" y="811"/>
      <point x="270" y="661" type="qcurve"/>
      <point x="280" y="661" type="line"/>
      <point x="306" y="709"/>
      <point x="377" y="780"/>
      <point x="457" y="827"/>
      <point x="543" y="849"/>
      <point x="585" y="849" type="qcurve"/>
      <point x="681" y="849"/>
      <point x="838" y="785"/>
      <point x="950" y="669"/>
      <point x="1012" y="508"/>
      <point x="1012" y="412" type="qcurve"/>
      <point x="1012" y="308"/>
      <point x="942" y="144"/>
      <point x="824" y="30"/>
      <point x="669" y="-30"/>
      <point x="585" y="-30" type="qcurve"/>
      <point x="497" y="-30"/>
      <point x="326" y="49"/>
      <point x="191" y="209"/>
      <point x="108" y="451"/>
      <point x="108" y="613" type="qcurve"/>
      <point x="108" y="710"/>
      <point x="143" y="912"/>
      <point x="218" y="1101"/>
      <point x="337" y="1268"/>
      <point x="503" y="1392"/>
      <point x="721" y="1464"/>
    </contour>
    <contour>
      <point x="585" y="747" type="qcurve"/>
      <point x="514" y="747"/>
      <point x="407" y="691"/>
      <point x="336" y="601"/>
      <point x="300" y="488"/>
      <point x="300" y="432" type="qcurve"/>
      <point x="300" y="353"/>
      <point x="338" y="221"/>
      <point x="412" y="125"/>
      <point x="517" y="72"/>
      <point x="585" y="72" type="qcurve"/>
      <point x="649" y="72"/>
      <point x="744" y="122"/>
      <point x="808" y="212"/>
      <point x="840" y="337"/>
      <point x="840" y="412" type="qcurve"/>
      <point x="840" y="483"/>
      <point x="808" y="606"/>
      <point x="744" y="696"/>
      <point x="649" y="747"/>
    </contour>
  </outline>
</glyph>
<glyph name="eight" format="2">
  <advance width="1120"/>
  <unicode hex="0038"/>
  <outline>
    <contour>
      <point x="559" y="1464" type="qcurve"/>
      <point x="637" y="1464"/>
      <point x="766" y="1406"/>
      <point x="859" y="1312"/>
      <point x="910" y="1192"/>
      <point x="910" y="1131" type="qcurve"/>
      <point x="910" y="1037"/>
      <point x="836" y="885"/>
      <point x="754" y="834" type="qcurve"/>
      <point x="754" y="824" type="line"/>
      <point x="827" y="789"/>
      <point x="925" y="700"/>
      <point x="985" y="595"/>
      <point x="1010" y="475"/>
      <point x="1010" y="409" type="qcurve"/>
      <point x="1010" y="328"/>
      <point x="951" y="170"/>
      <point x="836" y="46"/>
      <point x="668" y="-30"/>
      <point x="559" y="-30" type="qcurve"/>
      <point x="451" y="-30"/>
      <point x="284" y="46"/>
      <point x="170" y="170"/>
      <point x="110" y="327"/>
      <point x="110" y="408" type="qcurve"/>
      <point x="110" y="472"/>
      <point x="136" y="592"/>
      <point x="195" y="698"/>
      <point x="291" y="789"/>
      <point x="362" y="824" type="qcurve"/>
      <point x="362" y="834" type="line"/>
      <point x="281" y="885"/>
      <point x="208" y="1037"/>
      <point x="208" y="1131" type="qcurve"/>
      <point x="208" y="1192"/>
      <point x="259" y="1312"/>
      <point x="352" y="1406"/>
      <point x="481" y="1464"/>
    </contour>
    <contour>
      <point x="559" y="1362" type="qcurve"/>
      <point x="515" y="1362"/>
      <point x="446" y="1321"/>
      <point x="396" y="1253"/>
      <point x="370" y="1162"/>
      <point x="370" y="1113" type="qcurve"/>
      <point x="370" y="1063"/>
      <point x="396" y="975"/>
      <point x="446" y="908"/>
      <point x="515" y="869"/>
      <point x="559" y="869" type="qcurve"/>
      <point x="602" y="869"/>
      <point x="672" y="908"/>
      <point x="722" y="975"/>
      <point x="748" y="1063"/>
      <point x="748" y="1113" type="qcurve"/>
      <point x="748" y="1162"/>
      <point x="722" y="1253"/>
      <point x="672" y="1321"/>
      <point x="602" y="1362"/>
    </contour>
    <contour>
      <point x="559" y="767" type="qcurve"/>
      <point x="497" y="767"/>
      <point x="396" y="712"/>
      <point x="322" y="617"/>
      <point x="282" y="492"/>
      <point x="282" y="422" type="qcurve"/>
      <point x="282" y="352"/>
      <point x="322" y="225"/>
      <point x="396" y="129"/>
      <point x="497" y="72"/>
      <point x="559" y="72" type="qcurve"/>
      <point x="620" y="72"/>
      <point x="723" y="129"/>
      <point x="797" y="225"/>
      <point x="838" y="352"/>
      <point x="838" y="422" type="qcurve"/>
      <point x="838" y="492"/>
      <point x="797" y="617"/>
      <point x="724" y="712"/>
      <point x="621" y="767"/>
    </contour>
  </outline>
</glyph>
<glyph name="nine" format="2">
  <advance width="1120"/>
  <unicode hex="0039"/>
  <outline>
    <contour>
      <point x="234" y="72" type="line"/>
      <point x="362" y="72"/>
      <point x="588" y="174"/>
      <point x="756" y="359"/>
      <point x="854" y="617"/>
      <point x="854" y="773" type="qcurve"/>
      <point x="844" y="773" type="line"/>
      <point x="819" y="722"/>
      <point x="743" y="650"/>
      <point x="657" y="605"/>
      <point x="568" y="585"/>
      <point x="529" y="585" type="qcurve"/>
      <point x="433" y="585"/>
      <point x="276" y="649"/>
      <point x="164" y="765"/>
      <point x="102" y="926"/>
      <point x="102" y="1022" type="qcurve"/>
      <point x="102" y="1126"/>
      <point x="175" y="1290"/>
      <point x="297" y="1404"/>
      <point x="455" y="1464"/>
      <point x="539" y="1464" type="qcurve"/>
      <point x="627" y="1464"/>
      <point x="798" y="1388"/>
      <point x="933" y="1230"/>
      <point x="1016" y="987"/>
      <point x="1016" y="821" type="qcurve"/>
      <point x="1016" y="714"/>
      <point x="976" y="505"/>
      <point x="892" y="316"/>
      <point x="764" y="155"/>
      <point x="586" y="37"/>
      <point x="358" y="-30"/>
      <point x="217" y="-30" type="qcurve"/>
    </contour>
    <contour>
      <point x="529" y="687" type="qcurve"/>
      <point x="600" y="687"/>
      <point x="710" y="743"/>
      <point x="785" y="833"/>
      <point x="824" y="946"/>
      <point x="824" y="1002" type="qcurve"/>
      <point x="824" y="1085"/>
      <point x="786" y="1218"/>
      <point x="712" y="1312"/>
      <point x="606" y="1362"/>
      <point x="539" y="1362" type="qcurve"/>
      <point x="475" y="1362"/>
      <point x="376" y="1312"/>
      <point x="309" y="1222"/>
      <point x="274" y="1097"/>
      <point x="274" y="1022" type="qcurve"/>
      <point x="274" y="951"/>
      <point x="306" y="828"/>
      <point x="370" y="738"/>
      <point x="465" y="687"/>
    </contour>
  </outline>
</glyph>
<glyph name="equal" format="2">
  <advance width="1152"/>
  <unicode hex="003D"/>
  <outline>
    <contour>
      <point x="1026" y="748" type="line"/>
      <point x="1026" y="626" type="line"/>
      <point x="126" y="626" type="line"/>
      <point x="126" y="748" type="line"/>
    </contour>
    <contour>
      <point x="1026" y="350" type="line"/>
      <point x="1026" y="228" type="line"/>
      <point x="126" y="228" type="line"/>
      <point x="126" y="350" type="line"/>
    </contour>
  </outline>
</glyph>
<glyph name="question" format="2">
  <advance width="1024"/>
  <unicode hex="003F"/>
  <outline>
    <contour>
      <point x="181" y="1309" type="line"/>
      <point x="253" y="1387"/>
      <point x="421" y="1464"/>
      <point x="530" y="1464" type="qcurve"/>
      <point x="587" y="1464"/>
      <point x="705" y="1428"/>
      <point x="801" y="1357"/>
      <point x="862" y="1251"/>
      <point x="862" y="1181" type="qcurve"/>
      <point x="862" y="1116"/>
      <point x="803" y="1008"/>
      <point x="714" y="913"/>
      <point x="611" y="828"/>
      <point x="522" y="743"/>
      <point x="463" y="656"/>
      <point x="463" y="607" type="qcurve"/>
      <point x="463" y="568"/>
      <point x="492" y="514"/>
      <point x="534" y="481"/>
      <point x="580" y="467"/>
      <point x="597" y="467" type="qcurve"/>
      <point x="579" y="365" type="line"/>
      <point x="538" y="365"/>
      <point x="454" y="395"/>
      <point x="385" y="454"/>
      <point x="341" y="541"/>
      <point x="341" y="598" type="qcurve"/>
      <point x="341" y="663"/>
      <point x="396" y="773"/>
      <point x="478" y="871"/>
      <point x="573" y="960"/>
      <point x="655" y="1050"/>
      <point x="710" y="1145"/>
      <point x="710" y="1200" type="qcurve"/>
      <point x="710" y="1237"/>
      <point x="680" y="1297"/>
      <point x="630" y="1339"/>
      <point x="565" y="1362"/>
      <point x="530" y="1362" type="qcurve"/>
      <point x="486" y="1362"/>
      <point x="415" y="1339"/>
      <point x="355" y="1297"/>
      <point x="305" y="1240"/>
      <point x="283" y="1207" type="qcurve"/>
    </contour>
    <contour>
      <point x="417" y="83" type="qcurve"/>
      <point x="417" y="106"/>
      <point x="435" y="147"/>
      <point x="466" y="178"/>
      <point x="507" y="196"/>
      <point x="530" y="196" type="qcurve"/>
      <point x="553" y="196"/>
      <point x="594" y="178"/>
      <point x="625" y="147"/>
      <point x="643" y="106"/>
      <point x="643" y="83" type="qcurve"/>
      <point x="643" y="60"/>
      <point x="625" y="19"/>
      <point x="594" y="-12"/>
      <point x="553" y="-30"/>
      <point x="530" y="-30" type="qcurve"/>
      <point x="507" y="-30"/>
      <point x="466" y="-12"/>
      <point x="435" y="19"/>
      <point x="417" y="60"/>
    </contour>
  </outline>
</glyph>
<glyph name="at" format="2">
  <advance width="2048"/>
  <unicode hex="0040"/>
  <outline>
    <contour>
      <point x="603" y="398" type="qcurve"/>
      <point x="603" y="491"/>
      <point x="664" y="666"/>
      <point x="774" y="801"/>
      <point x="924" y="882"/>
      <point x="1013" y="882" type="qcurve"/>
      <point x="1101" y="882"/>
      <point x="1229" y="814"/>
      <point x="1275" y="760" type="qcurve"/>
      <point x="1285" y="760" type="line"/>
      <point x="1302" y="852" type="line"/>
      <point x="1434" y="882" type="line"/>
      <point x="1464" y="882" type="line"/>
      <point x="1356" y="271" type="line"/>
      <point x="1351" y="241"/>
      <point x="1345" y="196"/>
      <point x="1345" y="182" type="qcurve"/>
      <point x="1345" y="167"/>
      <point x="1353" y="139"/>
      <point x="1372" y="116"/>
      <point x="1403" y="102"/>
      <point x="1427" y="102" type="qcurve"/>
      <point x="1494" y="102"/>
      <point x="1614" y="159"/>
      <point x="1703" y="271"/>
      <point x="1755" y="439"/>
      <point x="1755" y="550" type="qcurve"/>
      <point x="1755" y="632"/>
      <point x="1713" y="793"/>
      <point x="1630" y="939"/>
      <point x="1507" y="1065"/>
      <point x="1346" y="1156"/>
      <point x="1148" y="1208"/>
      <point x="1031" y="1208" type="qcurve"/>
      <point x="929" y="1208"/>
      <point x="741" y="1152"/>
      <point x="576" y="1051"/>
      <point x="441" y="911"/>
      <point x="345" y="742"/>
      <point x="292" y="549"/>
      <point x="292" y="447" type="qcurve"/>
      <point x="292" y="345"/>
      <point x="345" y="154"/>
      <point x="441" y="-14"/>
      <point x="576" y="-154"/>
      <point x="740" y="-254"/>
      <point x="929" y="-310"/>
      <point x="1031" y="-310" type="qcurve"/>
      <point x="1166" y="-310"/>
      <point x="1402" y="-206"/>
      <point x="1518" y="-105" type="qcurve"/>
      <point x="1605" y="-192" type="line"/>
      <point x="1540" y="-252"/>
      <point x="1395" y="-335"/>
      <point x="1245" y="-388"/>
      <point x="1098" y="-412"/>
      <point x="1031" y="-412" type="qcurve"/>
      <point x="912" y="-412"/>
      <point x="692" y="-350"/>
      <point x="501" y="-238"/>
      <point x="343" y="-81"/>
      <point x="231" y="110"/>
      <point x="170" y="329"/>
      <point x="170" y="447" type="qcurve"/>
      <point x="170" y="566"/>
      <point x="231" y="787"/>
      <point x="343" y="979"/>
      <point x="501" y="1136"/>
      <point x="692" y="1248"/>
      <point x="912" y="1310"/>
      <point x="1031" y="1310" type="qcurve"/>
      <point x="1162" y="1310"/>
      <point x="1390" y="1251"/>
      <point x="1578" y="1146"/>
      <point x="1724" y="1001"/>
      <point x="1825" y="831"/>
      <point x="1877" y="642"/>
      <point x="1877" y="544" type="qcurve"/>
      <point x="1877" y="480"/>
      <point x="1852" y="349"/>
      <point x="1800" y="228"/>
      <point x="1719" y="123"/>
      <point x="1608" y="45"/>
      <point x="1464" y="0"/>
      <point x="1375" y="0" type="qcurve"/>
      <point x="1348" y="0"/>
      <point x="1298" y="18"/>
      <point x="1256" y="47"/>
      <point x="1223" y="83"/>
      <point x="1214" y="102" type="qcurve"/>
      <point x="1204" y="102" type="line"/>
      <point x="1179" y="81"/>
      <point x="1118" y="44"/>
      <point x="1049" y="16"/>
      <point x="975" y="0"/>
      <point x="937" y="0" type="qcurve"/>
      <point x="856" y="0"/>
      <point x="731" y="60"/>
      <point x="646" y="167"/>
      <point x="603" y="312"/>
    </contour>
    <contour>
      <point x="725" y="393" type="qcurve"/>
      <point x="725" y="334"/>
      <point x="754" y="229"/>
      <point x="810" y="149"/>
      <point x="894" y="102"/>
      <point x="949" y="102" type="qcurve"/>
      <point x="1012" y="102"/>
      <point x="1120" y="169"/>
      <point x="1200" y="279"/>
      <point x="1246" y="416"/>
      <point x="1246" y="487" type="qcurve"/>
      <point x="1246" y="539"/>
      <point x="1224" y="644"/>
      <point x="1171" y="728"/>
      <point x="1085" y="780"/>
      <point x="1022" y="780" type="qcurve"/>
      <point x="960" y="780"/>
      <point x="851" y="718"/>
      <point x="771" y="612"/>
      <point x="725" y="471"/>
    </contour>
  </outline>
</glyph>
<glyph name="A" format="2">
  <advance width="1344"/>
  <unicode hex="0041"/>
  <guideline x="59" y="0" angle="68"/>
  <guideline x="191" y="0" angle="68"/>
  <guideline x="1285" y="0" angle="112"/>
  <guideline x="1073" y="0" angle="112"/>
  <anchor x="642" y="0" name="AccentBelow"/>
  <anchor x="672" y="1600" name="AccentDefault"/>
  <anchor x="672" y="712" name="AccentMiddle"/>
  <anchor x="950" y="0" name="AccentOgonek"/>
  <outline>
    <contour>
      <point x="1085" y="-30" type="line" name="sh02"/>
      <point x="925" y="365" type="line" name="iv01"/>
      <point x="339" y="365" type="line"/>
      <point x="179" y="-30" type="line" name="sh04"/>
      <point x="59" y="0" type="line" name="sh03"/>
      <point x="650" y="1464" type="line" name="at01"/>
      <point x="694" y="1464" type="line"/>
      <point x="1285" y="0" type="line" name="sh01"/>
    </contour>
    <contour>
      <point x="627" y="1102" type="line"/>
      <point x="388" y="487" type="line" name="sh05"/>
      <point x="875" y="487" type="line" name="sh06"/>
      <point x="637" y="1102" type="line" name="av01"/>
    </contour>
  </outline>
</glyph>
<glyph name="B" format="2">
  <advance width="1248"/>
  <unicode hex="0042"/>
  <outline>
    <contour>
      <point x="182" y="1434" type="line"/>
      <point x="555" y="1434" type="line"/>
      <point x="672" y="1434"/>
      <point x="864" y="1401"/>
      <point x="1000" y="1326"/>
      <point x="1075" y="1202"/>
      <point x="1075" y="1111" type="qcurve"/>
      <point x="1075" y="1062"/>
      <point x="1050" y="983"/>
      <point x="1010" y="920"/>
      <point x="959" y="873"/>
      <point x="908" y="838"/>
      <point x="860" y="816"/>
      <point x="843" y="810" type="qcurve"/>
      <point x="843" y="800" type="line"/>
      <point x="871" y="793"/>
      <point x="941" y="765"/>
      <point x="1012" y="721"/>
      <point x="1081" y="660"/>
      <point x="1134" y="580"/>
      <point x="1166" y="478"/>
      <point x="1166" y="416" type="qcurve"/>
      <point x="1166" y="320"/>
      <point x="1087" y="166"/>
      <point x="935" y="58"/>
      <point x="712" y="0"/>
      <point x="569" y="0" type="qcurve"/>
      <point x="182" y="0" type="line"/>
    </contour>
    <contour>
      <point x="364" y="839" type="line"/>
      <point x="557" y="839" type="line"/>
      <point x="632" y="839"/>
      <point x="755" y="868"/>
      <point x="844" y="931"/>
      <point x="893" y="1030"/>
      <point x="893" y="1101" type="qcurve"/>
      <point x="893" y="1156"/>
      <point x="847" y="1236"/>
      <point x="760" y="1288"/>
      <point x="635" y="1312"/>
      <point x="557" y="1312" type="qcurve"/>
      <point x="364" y="1312" type="line"/>
    </contour>
    <contour>
      <point x="364" y="717" type="line"/>
      <point x="364" y="122" type="line"/>
      <point x="565" y="122" type="line"/>
      <point x="778" y="122"/>
      <point x="974" y="275"/>
      <point x="974" y="418" type="qcurve"/>
      <point x="974" y="505"/>
      <point x="917" y="621"/>
      <point x="819" y="689"/>
      <point x="688" y="717"/>
      <point x="615" y="717" type="qcurve"/>
    </contour>
  </outline>
</glyph>
<glyph name="C" format="2">
  <advance width="1344"/>
  <unicode hex="0043"/>
  <outline>
    <contour>
      <point x="1157" y="1112" type="line"/>
      <point x="1136" y="1149"/>
      <point x="1067" y="1230"/>
      <point x="971" y="1298"/>
      <point x="848" y="1342"/>
      <point x="772" y="1342" type="qcurve"/>
      <point x="683" y="1342"/>
      <point x="506" y="1266"/>
      <point x="363" y="1111"/>
      <point x="274" y="876"/>
      <point x="274" y="717" type="qcurve"/>
      <point x="274" y="558"/>
      <point x="363" y="323"/>
      <point x="506" y="168"/>
      <point x="683" y="92"/>
      <point x="772" y="92" type="qcurve"/>
      <point x="848" y="92"/>
      <point x="971" y="137"/>
      <point x="1067" y="205"/>
      <point x="1136" y="286"/>
      <point x="1157" y="322" type="qcurve"/>
      <point x="1274" y="204" type="line"/>
      <point x="1230" y="153"/>
      <point x="1121" y="68"/>
      <point x="993" y="5"/>
      <point x="850" y="-30"/>
      <point x="772" y="-30" type="qcurve"/>
      <point x="685" y="-30"/>
      <point x="514" y="17"/>
      <point x="361" y="106"/>
      <point x="231" y="236"/>
      <point x="136" y="402"/>
      <point x="82" y="602"/>
      <point x="82" y="717" type="qcurve"/>
      <point x="82" y="832"/>
      <point x="136" y="1032"/>
      <point x="231" y="1198"/>
      <point x="361" y="1328"/>
      <point x="514" y="1417"/>
      <point x="684" y="1464"/>
      <point x="772" y="1464" type="qcurve"/>
      <point x="850" y="1464"/>
      <point x="993" y="1429"/>
      <point x="1121" y="1366"/>
      <point x="1230" y="1281"/>
      <point x="1274" y="1230" type="qcurve"/>
    </contour>
  </outline>
</glyph>
<glyph name="E" format="2">
  <advance width="1088"/>
  <unicode hex="0045"/>
  <outline>
    <contour>
      <point x="182" y="1434" type="line"/>
      <point x="986" y="1434" type="line"/>
      <point x="961" y="1292" type="line"/>
      <point x="364" y="1312" type="line"/>
      <point x="364" y="839" type="line"/>
      <point x="879" y="839" type="line"/>
      <point x="857" y="717" type="line"/>
      <point x="364" y="717" type="line"/>
      <point x="364" y="122" type="line"/>
      <point x="986" y="142" type="line"/>
      <point x="961" y="0" type="line"/>
      <point x="182" y="0" type="line"/>
    </contour>
  </outline>
</glyph>
<glyph name="F" format="2">
  <advance width="1088"/>
  <unicode hex="0046"/>
  <anchor x="624" y="0" name="AccentBelow"/>
  <anchor x="624" y="1600" name="AccentDefault"/>
  <anchor x="624" y="780" name="AccentMiddle"/>
  <outline>
    <contour>
      <point x="182" y="1434" type="line"/>
      <point x="986" y="1434" type="line"/>
      <point x="961" y="1292" type="line"/>
      <point x="364" y="1312" type="line"/>
      <point x="364" y="839" type="line"/>
      <point x="879" y="839" type="line"/>
      <point x="857" y="717" type="line"/>
      <point x="364" y="717" type="line"/>
      <point x="364" y="0" type="line"/>
      <point x="182" y="0" type="line"/>
    </contour>
  </outline>
</glyph>
<glyph name="G" format="2">
  <advance width="1600"/>
  <unicode hex="0047"/>
  <anchor x="864" y="0" name="AccentBelow"/>
  <anchor x="864" y="1600" name="AccentDefault"/>
  <anchor x="800" y="670" name="AccentMiddle"/>
  <outline>
    <contour>
      <point x="886" y="717" type="line"/>
      <point x="1420" y="717" type="line"/>
      <point x="1420" y="206" type="line"/>
      <point x="1367" y="146"/>
      <point x="1236" y="58"/>
      <point x="1092" y="-1"/>
      <point x="938" y="-30"/>
      <point x="863" y="-30" type="qcurve"/>
      <point x="765" y="-30"/>
      <point x="575" y="19"/>
      <point x="406" y="110"/>
      <point x="263" y="242"/>
      <point x="158" y="408"/>
      <point x="100" y="605"/>
      <point x="100" y="717" type="qcurve"/>
      <point x="100" y="826"/>
      <point x="157" y="1021"/>
      <point x="259" y="1187"/>
      <point x="401" y="1321"/>
      <point x="570" y="1414"/>
      <point x="762" y="1464"/>
      <point x="864" y="1464" type="qcurve"/>
      <point x="952" y="1464"/>
      <point x="1118" y="1427"/>
      <point x="1262" y="1364"/>
      <point x="1379" y="1279"/>
      <point x="1420" y="1230" type="qcurve"/>
      <point x="1304" y="1112" type="line"/>
      <point x="1271" y="1159"/>
      <point x="1183" y="1243"/>
      <point x="1073" y="1306"/>
      <point x="941" y="1342"/>
      <point x="865" y="1342" type="qcurve"/>
      <point x="757" y="1342"/>
      <point x="551" y="1251"/>
      <point x="390" y="1086"/>
      <point x="292" y="856"/>
      <point x="292" y="717" type="qcurve"/>
      <point x="292" y="586"/>
      <point x="381" y="359"/>
      <point x="536" y="189"/>
      <point x="744" y="92"/>
      <point x="863" y="92" type="qcurve"/>
      <point x="920" y="92"/>
      <point x="1031" y="113"/>
      <point x="1130" y="149"/>
      <point x="1211" y="198"/>
      <point x="1238" y="227" type="qcurve"/>
      <point x="1238" y="595" type="line"/>
      <point x="865" y="595" type="line"/>
    </contour>
  </outline>
</glyph>
<glyph name="H" format="2">
  <advance width="1504"/>
  <unicode hex="0048"/>
  <anchor x="752" y="0" name="AccentBelow"/>
  <anchor x="268" y="0" name="AccentCedilla"/>
  <anchor x="752" y="1600" name="AccentDefault"/>
  <anchor x="752" y="1100" name="AccentMiddle"/>
  <outline>
    <contour>
      <point x="364" y="1464" type="line"/>
      <point x="364" y="839" type="line"/>
      <point x="1140" y="839" type="line"/>
      <point x="1140" y="1434" type="line"/>
      <point x="1322" y="1464" type="line"/>
      <point x="1322" y="0" type="line"/>
      <point x="1140" y="0" type="line"/>
      <point x="1140" y="717" type="line"/>
      <point x="364" y="717" type="line"/>
      <point x="364" y="0" type="line"/>
      <point x="182" y="0" type="line"/>
      <point x="182" y="1434" type="line"/>
    </contour>
  </outline>
</glyph>
<glyph name="I" format="2">
  <advance width="576"/>
  <unicode hex="0049"/>
  <anchor x="288" y="0" name="AccentBelow"/>
  <anchor x="288" y="1600" name="AccentDefault"/>
  <anchor x="288" y="712" name="AccentMiddle"/>
  <anchor x="50" y="0" name="AccentOgonek"/>
  <outline>
    <contour>
      <point x="379" y="1464" type="line"/>
      <point x="379" y="0" type="line"/>
      <point x="197" y="0" type="line"/>
      <point x="197" y="1434" type="line"/>
    </contour>
  </outline>
</glyph>
<glyph name="J" format="2">
  <advance width="736"/>
  <unicode hex="004A"/>
  <outline>
    <contour>
      <point x="372" y="1434" type="line"/>
      <point x="554" y="1464" type="line"/>
      <point x="554" y="492" type="line"/>
      <point x="554" y="324"/>
      <point x="469" y="119"/>
      <point x="322" y="7"/>
      <point x="127" y="-30"/>
      <point x="16" y="-30" type="qcurve"/>
      <point x="40" y="112" type="line"/>
      <point x="78" y="112"/>
      <point x="156" y="120"/>
      <point x="230" y="143"/>
      <point x="295" y="185"/>
      <point x="344" y="252"/>
      <point x="372" y="349"/>
      <point x="372" y="415" type="qcurve"/>
    </contour>
  </outline>
</glyph>
<glyph name="K" format="2">
  <advance width="1344"/>
  <unicode hex="004B"/>
  <guideline x="1069" y="0" angle="128"/>
  <guideline x="1303" y="0" angle="128"/>
  <guideline x="-174" y="0" angle="45"/>
  <guideline x="-356" y="0" angle="45"/>
  <anchor x="672" y="0" name="AccentBelow"/>
  <anchor x="672" y="1600" name="AccentDefault"/>
  <anchor x="624" y="712" name="AccentMiddle"/>
  <outline>
    <contour>
      <point x="364" y="1464" type="line" name="sh03"/>
      <point x="364" y="729" type="line"/>
      <point x="374" y="729" type="line" name="mh01"/>
      <point x="1108" y="1464" type="line" name="sh06"/>
      <point x="1258" y="1434" type="line" name="sh05"/>
      <point x="656" y="829" type="line" name="mh02"/>
      <point x="1303" y="0" type="line" name="sh04"/>
      <point x="1094" y="-30" type="line" name="sh07"/>
      <point x="523" y="698" type="line" name="mh03"/>
      <point x="364" y="539" type="line"/>
      <point x="364" y="0" type="line" name="sh02"/>
      <point x="182" y="0" type="line" name="sh01"/>
      <point x="182" y="1434" type="line" name="at01"/>
    </contour>
  </outline>
</glyph>
<glyph name="L" format="2">
  <advance width="1088"/>
  <unicode hex="004C"/>
  <outline>
    <contour>
      <point x="364" y="1464" type="line"/>
      <point x="364" y="122" type="line"/>
      <point x="1010" y="142" type="line"/>
      <point x="985" y="0" type="line"/>
      <point x="182" y="0" type="line"/>
      <point x="182" y="1434" type="line"/>
    </contour>
  </outline>
</glyph>
<glyph name="M" format="2">
  <advance width="1824"/>
  <unicode hex="004D"/>
  <anchor x="914" y="0" name="AccentBelow"/>
  <anchor x="914" y="1600" name="AccentDefault"/>
  <anchor x="864" y="712" name="AccentMiddle"/>
  <outline>
    <contour>
      <point x="408" y="1061" type="line"/>
      <point x="398" y="1061" type="line"/>
      <point x="206" y="-30" type="line"/>
      <point x="86" y="0" type="line"/>
      <point x="339" y="1434" type="line"/>
      <point x="448" y="1464" type="line"/>
      <point x="903" y="314" type="line"/>
      <point x="913" y="314" type="line"/>
      <point x="1378" y="1464" type="line"/>
      <point x="1486" y="1434" type="line"/>
      <point x="1738" y="0" type="line"/>
      <point x="1538" y="-30" type="line"/>
      <point x="1356" y="1061" type="line"/>
      <point x="1346" y="1061" type="line"/>
      <point x="904" y="-30" type="line"/>
      <point x="839" y="-30" type="line"/>
    </contour>
  </outline>
</glyph>
<glyph name="N" format="2">
  <advance width="1504"/>
  <unicode hex="004E"/>
  <outline>
    <contour>
      <point x="294" y="1464" type="line"/>
      <point x="1200" y="305" type="line"/>
      <point x="1210" y="305" type="line"/>
      <point x="1210" y="1464" type="line"/>
      <point x="1332" y="1434" type="line"/>
      <point x="1332" y="0" type="line"/>
      <point x="1210" y="0" type="line"/>
      <point x="304" y="1159" type="line"/>
      <point x="294" y="1159" type="line"/>
      <point x="294" y="0" type="line"/>
      <point x="172" y="0" type="line"/>
      <point x="172" y="1434" type="line"/>
    </contour>
  </outline>
</glyph>
<glyph name="O" format="2">
  <advance width="1600"/>
  <unicode hex="004F"/>
  <outline>
    <contour>
      <point x="100" y="717" type="qcurve"/>
      <point x="100" y="832"/>
      <point x="155" y="1032"/>
      <point x="252" y="1198"/>
      <point x="385" y="1328"/>
      <point x="541" y="1417"/>
      <point x="712" y="1464"/>
      <point x="800" y="1464" type="qcurve"/>
      <point x="888" y="1464"/>
      <point x="1059" y="1417"/>
      <point x="1215" y="1328"/>
      <point x="1348" y="1198"/>
      <point x="1445" y="1032"/>
      <point x="1500" y="832"/>
      <point x="1500" y="717" type="qcurve"/>
      <point x="1500" y="602"/>
      <point x="1445" y="402"/>
      <point x="1348" y="236"/>
      <point x="1215" y="106"/>
      <point x="1059" y="17"/>
      <point x="887" y="-30"/>
      <point x="800" y="-30" type="qcurve"/>
      <point x="713" y="-30"/>
      <point x="541" y="17"/>
      <point x="385" y="106"/>
      <point x="252" y="236"/>
      <point x="155" y="402"/>
      <point x="100" y="602"/>
    </contour>
    <contour>
      <point x="292" y="717" type="qcurve"/>
      <point x="292" y="558"/>
      <point x="384" y="323"/>
      <point x="531" y="168"/>
      <point x="711" y="92"/>
      <point x="800" y="92" type="qcurve"/>
      <point x="859" y="92"/>
      <point x="980" y="126"/>
      <point x="1093" y="194"/>
      <point x="1192" y="297"/>
      <point x="1266" y="436"/>
      <point x="1308" y="611"/>
      <point x="1308" y="717" type="qcurve"/>
      <point x="1308" y="823"/>
      <point x="1266" y="998"/>
      <point x="1192" y="1137"/>
      <point x="1093" y="1240"/>
      <point x="980" y="1308"/>
      <point x="859" y="1342"/>
      <point x="800" y="1342" type="qcurve"/>
      <point x="711" y="1342"/>
      <point x="531" y="1266"/>
      <point x="384" y="1111"/>
      <point x="292" y="876"/>
    </contour>
  </outline>
</glyph>
<glyph name="Q" format="2">
  <advance width="1600"/>
  <unicode hex="0051"/>
  <outline>
    <contour>
      <point x="100" y="717" type="qcurve"/>
      <point x="100" y="832"/>
      <point x="155" y="1032"/>
      <point x="252" y="1198"/>
      <point x="385" y="1328"/>
      <point x="541" y="1417"/>
      <point x="712" y="1464"/>
      <point x="800" y="1464" type="qcurve"/>
      <point x="888" y="1464"/>
      <point x="1059" y="1417"/>
      <point x="1215" y="1328"/>
      <point x="1348" y="1198"/>
      <point x="1445" y="1032"/>
      <point x="1500" y="832"/>
      <point x="1500" y="717" type="qcurve"/>
      <point x="1500" y="593"/>
      <point x="1433" y="380"/>
      <point x="1319" y="207"/>
      <point x="1166" y="77"/>
      <point x="1080" y="36" type="qcurve"/>
      <point x="1080" y="26" type="line"/>
      <point x="1165" y="5"/>
      <point x="1298" y="-59"/>
      <point x="1400" y="-137"/>
      <point x="1473" y="-225"/>
      <point x="1500" y="-271" type="qcurve"/>
      <point x="1384" y="-388" type="line"/>
      <point x="1360" y="-349"/>
      <point x="1305" y="-266"/>
      <point x="1235" y="-187"/>
      <point x="1146" y="-115"/>
      <point x="1032" y="-62"/>
      <point x="889" y="-30"/>
      <point x="800" y="-30" type="qcurve"/>
      <point x="713" y="-30"/>
      <point x="541" y="17"/>
      <point x="385" y="106"/>
      <point x="252" y="236"/>
      <point x="155" y="402"/>
      <point x="100" y="602"/>
    </contour>
    <contour>
      <point x="292" y="717" type="qcurve"/>
      <point x="292" y="558"/>
      <point x="384" y="323"/>
      <point x="531" y="168"/>
      <point x="711" y="92"/>
      <point x="800" y="92" type="qcurve"/>
      <point x="859" y="92"/>
      <point x="980" y="126"/>
      <point x="1093" y="194"/>
      <point x="1192" y="297"/>
      <point x="1266" y="436"/>
      <point x="1308" y="611"/>
      <point x="1308" y="717" type="qcurve"/>
      <point x="1308" y="823"/>
      <point x="1266" y="998"/>
      <point x="1192" y="1137"/>
      <point x="1093" y="1240"/>
      <point x="980" y="1308"/>
      <point x="859" y="1342"/>
      <point x="800" y="1342" type="qcurve"/>
      <point x="711" y="1342"/>
      <point x="531" y="1266"/>
      <point x="384" y="1111"/>
      <point x="292" y="876"/>
    </contour>
  </outline>
</glyph>
<glyph name="R" format="2">
  <advance width="1248"/>
  <unicode hex="0052"/>
  <outline>
    <contour>
      <point x="182" y="1434" type="line"/>
      <point x="589" y="1434" type="line"/>
      <point x="716" y="1434"/>
      <point x="907" y="1380"/>
      <point x="1035" y="1277"/>
      <point x="1100" y="1128"/>
      <point x="1100" y="1034" type="qcurve"/>
      <point x="1100" y="972"/>
      <point x="1060" y="867"/>
      <point x="992" y="782"/>
      <point x="904" y="715"/>
      <point x="810" y="668"/>
      <point x="715" y="638"/>
      <point x="674" y="632" type="qcurve"/>
      <point x="674" y="625" type="line"/>
      <point x="1196" y="0" type="line"/>
      <point x="987" y="-30" type="line"/>
      <point x="525" y="595" type="line"/>
      <point x="364" y="595" type="line"/>
      <point x="364" y="0" type="line"/>
      <point x="182" y="0" type="line"/>
    </contour>
    <contour>
      <point x="364" y="1312" type="line"/>
      <point x="364" y="717" type="line"/>
      <point x="563" y="717" type="line"/>
      <point x="633" y="717"/>
      <point x="758" y="762"/>
      <point x="853" y="844"/>
      <point x="908" y="962"/>
      <point x="908" y="1034" type="qcurve"/>
      <point x="908" y="1104"/>
      <point x="864" y="1209"/>
      <point x="784" y="1278"/>
      <point x="673" y="1312"/>
      <point x="607" y="1312" type="qcurve"/>
    </contour>
  </outline>
</glyph>
<glyph name="S" format="2">
  <advance width="1152"/>
  <unicode hex="0053"/>
  <anchor x="576" y="0" name="AccentBelow"/>
  <anchor x="512" y="0" name="AccentCedilla"/>
  <anchor x="576" y="1600" name="AccentDefault"/>
  <anchor x="624" y="712" name="AccentMiddle"/>
  <outline>
    <contour>
      <point x="1016" y="1230" type="qcurve"/>
      <point x="899" y="1113" type="line"/>
      <point x="879" y="1159"/>
      <point x="813" y="1242"/>
      <point x="730" y="1305"/>
      <point x="634" y="1342"/>
      <point x="585" y="1342" type="qcurve"/>
      <point x="540" y="1342"/>
      <point x="462" y="1308"/>
      <point x="403" y="1249"/>
      <point x="369" y="1170"/>
      <point x="369" y="1126" type="qcurve"/>
      <point x="369" y="1061"/>
      <point x="417" y="968"/>
      <point x="495" y="900"/>
      <point x="594" y="852"/>
      <point x="645" y="833" type="qcurve"/>
      <point x="723" y="804"/>
      <point x="870" y="727"/>
      <point x="983" y="622"/>
      <point x="1052" y="486"/>
      <point x="1052" y="398" type="qcurve"/>
      <point x="1052" y="315"/>
      <point x="983" y="161"/>
      <point x="857" y="42"/>
      <point x="682" y="-30"/>
      <point x="577" y="-30" type="qcurve"/>
      <point x="489" y="-30"/>
      <point x="346" y="12"/>
      <point x="229" y="78"/>
      <point x="137" y="162"/>
      <point x="100" y="204" type="qcurve"/>
      <point x="217" y="322" type="line"/>
      <point x="240" y="283"/>
      <point x="304" y="202"/>
      <point x="390" y="135"/>
      <point x="499" y="92"/>
      <point x="567" y="92" type="qcurve"/>
      <point x="634" y="92"/>
      <point x="743" y="139"/>
      <point x="819" y="213"/>
      <point x="860" y="305"/>
      <point x="860" y="351" type="qcurve"/>
      <point x="860" y="409"/>
      <point x="829" y="499"/>
      <point x="758" y="573"/>
      <point x="641" y="636"/>
      <point x="556" y="668" type="qcurve"/>
      <point x="471" y="699"/>
      <point x="334" y="779"/>
      <point x="238" y="882"/>
      <point x="187" y="1014"/>
      <point x="187" y="1097" type="qcurve"/>
      <point x="187" y="1173"/>
      <point x="250" y="1307"/>
      <point x="358" y="1407"/>
      <point x="503" y="1464"/>
      <point x="586" y="1464" type="qcurve"/>
      <point x="667" y="1464"/>
      <point x="802" y="1420"/>
      <point x="911" y="1351"/>
      <point x="991" y="1268"/>
    </contour>
  </outline>
</glyph>
<glyph name="T" format="2">
  <advance width="1152"/>
  <unicode hex="0054"/>
  <anchor x="576" y="0" name="AccentBelow"/>
  <anchor x="554" y="0" name="AccentCedilla"/>
  <anchor x="576" y="1600" name="AccentDefault"/>
  <anchor x="576" y="712" name="AccentMiddle"/>
  <outline>
    <contour>
      <point x="57" y="1434" type="line"/>
      <point x="1120" y="1434" type="line"/>
      <point x="1095" y="1292" type="line"/>
      <point x="667" y="1312" type="line"/>
      <point x="667" y="0" type="line"/>
      <point x="485" y="0" type="line"/>
      <point x="485" y="1312" type="line"/>
      <point x="32" y="1292" type="line"/>
    </contour>
  </outline>
</glyph>
<glyph name="U" format="2">
  <advance width="1504"/>
  <unicode hex="0055"/>
  <anchor x="772" y="0" name="AccentBelow"/>
  <anchor x="772" y="1600" name="AccentDefault"/>
  <anchor x="800" y="712" name="AccentMiddle"/>
  <anchor x="600" y="0" name="AccentOgonek"/>
  <outline>
    <contour>
      <point x="364" y="1464" type="line"/>
      <point x="364" y="542" type="line"/>
      <point x="364" y="411"/>
      <point x="435" y="238"/>
      <point x="551" y="134"/>
      <point x="697" y="92"/>
      <point x="772" y="92" type="qcurve"/>
      <point x="854" y="92"/>
      <point x="1008" y="137"/>
      <point x="1128" y="242"/>
      <point x="1200" y="414"/>
      <point x="1200" y="542" type="qcurve"/>
      <point x="1200" y="1464" type="line"/>
      <point x="1322" y="1434" type="line"/>
      <point x="1322" y="562" type="line"/>
      <point x="1322" y="410"/>
      <point x="1241" y="187"/>
      <point x="1092" y="41"/>
      <point x="881" y="-30"/>
      <point x="752" y="-30" type="qcurve"/>
      <point x="623" y="-30"/>
      <point x="413" y="41"/>
      <point x="263" y="186"/>
      <point x="182" y="409"/>
      <point x="182" y="562" type="qcurve"/>
      <point x="182" y="1434" type="line"/>
    </contour>
  </outline>
</glyph>
<glyph name="V" format="2">
  <advance width="1248"/>
  <unicode hex="0056"/>
  <outline>
    <contour>
      <point x="657" y="283" type="line"/>
      <point x="667" y="283" type="line"/>
      <point x="1090" y="1464" type="line"/>
      <point x="1210" y="1434" type="line"/>
      <point x="687" y="0" type="line"/>
      <point x="564" y="0" type="line"/>
      <point x="42" y="1434" type="line"/>
      <point x="242" y="1464" type="line"/>
    </contour>
  </outline>
</glyph>
<glyph name="W" format="2">
  <advance width="1888"/>
  <unicode hex="0057"/>
  <outline>
    <contour>
      <point x="1409" y="348" type="line"/>
      <point x="1419" y="348" type="line"/>
      <point x="1726" y="1464" type="line"/>
      <point x="1846" y="1434" type="line"/>
      <point x="1434" y="0" type="line"/>
      <point x="1312" y="0" type="line"/>
      <point x="954" y="1131" type="line"/>
      <point x="944" y="1131" type="line"/>
      <point x="576" y="0" type="line"/>
      <point x="454" y="0" type="line"/>
      <point x="42" y="1434" type="line"/>
      <point x="242" y="1464" type="line"/>
      <point x="552" y="348" type="line"/>
      <point x="562" y="348" type="line"/>
      <point x="924" y="1464" type="line"/>
      <point x="1046" y="1464" type="line"/>
    </contour>
  </outline>
</glyph>
<glyph name="X" format="2">
  <advance width="1248"/>
  <unicode hex="0058"/>
  <outline>
    <contour>
      <point x="593" y="600" type="line"/>
      <point x="199" y="-30" type="line"/>
      <point x="72" y="0" type="line"/>
      <point x="520" y="717" type="line"/>
      <point x="72" y="1434" type="line"/>
      <point x="272" y="1464" type="line"/>
      <point x="620" y="892" type="line"/>
      <point x="630" y="892" type="line"/>
      <point x="987" y="1464" type="line"/>
      <point x="1114" y="1434" type="line"/>
      <point x="702" y="775" type="line"/>
      <point x="1186" y="0" type="line"/>
      <point x="986" y="-30" type="line"/>
      <point x="603" y="600" type="line"/>
    </contour>
  </outline>
</glyph>
<glyph name="Y" format="2">
  <advance width="1248"/>
  <unicode hex="0059"/>
  <outline>
    <contour>
      <point x="666" y="660" type="line"/>
      <point x="1090" y="1464" type="line"/>
      <point x="1210" y="1434" type="line"/>
      <point x="731" y="532" type="line"/>
      <point x="731" y="0" type="line"/>
      <point x="549" y="0" type="line"/>
      <point x="549" y="514" type="line"/>
      <point x="42" y="1434" type="line"/>
      <point x="242" y="1464" type="line"/>
      <point x="656" y="660" type="line"/>
    </contour>
  </outline>
</glyph>
<glyph name="Z" format="2">
  <advance width="1248"/>
  <unicode hex="005A"/>
  <outline>
    <contour>
      <point x="193" y="1434" type="line"/>
      <point x="1193" y="1434" type="line"/>
      <point x="1193" y="1414" type="line"/>
      <point x="328" y="132" type="line"/>
      <point x="328" y="122" type="line"/>
      <point x="1193" y="143" type="line"/>
      <point x="1168" y="0" type="line"/>
      <point x="42" y="0" type="line"/>
      <point x="42" y="20" type="line"/>
      <point x="907" y="1302" type="line"/>
      <point x="907" y="1312" type="line"/>
      <point x="168" y="1292" type="line"/>
    </contour>
  </outline>
</glyph>
<glyph name="bracketleft" format="2">
  <advance width="736"/>
  <unicode hex="005B"/>
  <outline>
    <contour>
      <point x="274" y="1464" type="line"/>
      <point x="654" y="1464" type="line"/>
      <point x="636" y="1362" type="line"/>
      <point x="416" y="1362" type="line"/>
      <point x="416" y="-176" type="line"/>
      <point x="636" y="-176" type="line"/>
      <point x="654" y="-278" type="line"/>
      <point x="274" y="-278" type="line"/>
    </contour>
  </outline>
</glyph>
<glyph name="backslash" format="2">
  <advance width="576"/>
  <unicode hex="005C"/>
  <outline>
    <contour>
      <point x="68" y="1586" type="line"/>
      <point x="626" y="-134" type="line"/>
      <point x="508" y="-152" type="line"/>
      <point x="-50" y="1569" type="line"/>
    </contour>
  </outline>
</glyph>
<glyph name="bracketright" format="2">
  <advance width="736"/>
  <unicode hex="005D"/>
  <outline>
    <contour>
      <point x="82" y="1464" type="line" name="at01"/>
      <point x="462" y="1464" type="line"/>
      <point x="462" y="-278" type="line" name="dh02"/>
      <point x="82" y="-278" type="line"/>
      <point x="100" y="-176" type="line"/>
      <point x="320" y="-176" type="line" name="dh01"/>
      <point x="320" y="1362" type="line" name="sv01"/>
      <point x="100" y="1362" type="line"/>
    </contour>
  </outline>
</glyph>
<glyph name="asciicircum" format="2">
  <advance width="1248"/>
  <unicode hex="005E"/>
  <outline>
    <contour>
      <point x="543" y="1434" type="line"/>
      <point x="705" y="1434" type="line"/>
      <point x="1158" y="648" type="line"/>
      <point x="1045" y="583" type="line"/>
      <point x="634" y="1301" type="line"/>
      <point x="614" y="1301" type="line"/>
      <point x="203" y="583" type="line"/>
      <point x="90" y="648" type="line"/>
    </contour>
  </outline>
</glyph>
<glyph name="grave" format="2">
  <advance width="768"/>
  <unicode hex="0060"/>
  <guideline x="0" y="1683" angle="0"/>
  <guideline x="0" y="1376" angle="45"/>
  <guideline x="1736" y="0" angle="135"/>
  <guideline x="91" y="0" angle="90"/>
  <guideline x="-681" y="0" angle="45"/>
  <guideline x="1518" y="0" angle="135"/>
  <outline>
    <contour>
      <point x="490" y="1116" type="line" name="av02"/>
      <point x="124" y="1404" type="line"/>
      <point x="124" y="1434" type="line"/>
      <point x="206" y="1521" type="line" name="av01"/>
      <point x="236" y="1521" type="line" name="mv01"/>
      <point x="547" y="1176" type="line"/>
    </contour>
  </outline>
</glyph>
<glyph name="a" format="2">
  <advance width="1120"/>
  <unicode hex="0061"/>
  <outline>
    <contour>
      <point x="153" y="849" type="line"/>
      <point x="234" y="925"/>
      <point x="450" y="1004"/>
      <point x="565" y="1004" type="qcurve"/>
      <point x="640" y="1004"/>
      <point x="785" y="960"/>
      <point x="899" y="862"/>
      <point x="970" y="708"/>
      <point x="970" y="597" type="qcurve"/>
      <point x="970" y="174" type="line"/>
      <point x="970" y="72"/>
      <point x="1048" y="72" type="qcurve"/>
      <point x="1030" y="-30" type="line"/>
      <point x="976" y="-30"/>
      <point x="901" y="3"/>
      <point x="852" y="54"/>
      <point x="824" y="115"/>
      <point x="818" y="142" type="qcurve"/>
      <point x="808" y="142" type="line"/>
      <point x="784" y="115"/>
      <point x="708" y="55"/>
      <point x="611" y="4"/>
      <point x="496" y="-30"/>
      <point x="435" y="-30" type="qcurve"/>
      <point x="371" y="-30"/>
      <point x="258" y="4"/>
      <point x="173" y="69"/>
      <point x="124" y="164"/>
      <point x="124" y="225" type="qcurve"/>
      <point x="124" y="313"/>
      <point x="218" y="449"/>
      <point x="395" y="541"/>
      <point x="649" y="589"/>
      <point x="808" y="589" type="qcurve"/>
      <point x="808" y="637" type="line"/>
      <point x="808" y="716"/>
      <point x="762" y="819"/>
      <point x="691" y="879"/>
      <point x="605" y="902"/>
      <point x="565" y="902" type="qcurve"/>
      <point x="525" y="902"/>
      <point x="440" y="879"/>
      <point x="358" y="839"/>
      <point x="284" y="781"/>
      <point x="255" y="747" type="qcurve"/>
    </contour>
    <contour>
      <point x="808" y="507" type="line"/>
      <point x="763" y="507"/>
      <point x="651" y="501"/>
      <point x="535" y="482"/>
      <point x="425" y="447"/>
      <point x="338" y="389"/>
      <point x="286" y="305"/>
      <point x="286" y="246" type="qcurve"/>
      <point x="286" y="164"/>
      <point x="384" y="72"/>
      <point x="472" y="72" type="qcurve"/>
      <point x="523" y="72"/>
      <point x="619" y="104"/>
      <point x="705" y="157"/>
      <point x="779" y="226"/>
      <point x="808" y="263" type="qcurve"/>
    </contour>
  </outline>
</glyph>
<glyph name="b" format="2">
  <advance width="1120"/>
  <unicode hex="0062"/>
  <outline>
    <contour>
      <point x="304" y="190" type="line"/>
      <point x="352" y="139"/>
      <point x="480" y="72"/>
      <point x="552" y="72" type="qcurve"/>
      <point x="600" y="72"/>
      <point x="713" y="114"/>
      <point x="811" y="212"/>
      <point x="876" y="372"/>
      <point x="876" y="489" type="qcurve"/>
      <point x="876" y="587"/>
      <point x="822" y="741"/>
      <point x="734" y="847"/>
      <point x="621" y="902"/>
      <point x="562" y="902" type="qcurve"/>
      <point x="516" y="902"/>
      <point x="438" y="881"/>
      <point x="373" y="848"/>
      <point x="323" y="806"/>
      <point x="304" y="785" type="qcurve"/>
    </contour>
    <contour>
      <point x="142" y="1464" type="line"/>
      <point x="274" y="1494" type="line"/>
      <point x="304" y="1494" type="line"/>
      <point x="304" y="902" type="line"/>
      <point x="314" y="902" type="line"/>
      <point x="336" y="921"/>
      <point x="397" y="958"/>
      <point x="468" y="987"/>
      <point x="549" y="1004"/>
      <point x="593" y="1004" type="qcurve"/>
      <point x="686" y="1004"/>
      <point x="851" y="928"/>
      <point x="976" y="791"/>
      <point x="1048" y="602"/>
      <point x="1048" y="488" type="qcurve"/>
      <point x="1048" y="357"/>
      <point x="967" y="163"/>
      <point x="832" y="34"/>
      <point x="656" y="-30"/>
      <point x="562" y="-30" type="qcurve"/>
      <point x="519" y="-30"/>
      <point x="432" y="-12"/>
      <point x="332" y="37"/>
      <point x="215" y="123"/>
      <point x="142" y="190" type="qcurve"/>
    </contour>
  </outline>
</glyph>
<glyph name="c" format="2">
  <advance width="1024"/>
  <unicode hex="0063"/>
  <anchor x="560" y="0" name="AccentBelow"/>
  <anchor x="512" y="0" name="AccentCedilla"/>
  <anchor x="532" y="1100" name="AccentDefault"/>
  <anchor x="532" y="486" name="AccentMiddle"/>
  <outline>
    <contour>
      <point x="840" y="747" type="line"/>
      <point x="827" y="768"/>
      <point x="780" y="822"/>
      <point x="715" y="869"/>
      <point x="631" y="902"/>
      <point x="580" y="902" type="qcurve"/>
      <point x="509" y="902"/>
      <point x="389" y="837"/>
      <point x="302" y="724"/>
      <point x="254" y="573"/>
      <point x="254" y="487" type="qcurve"/>
      <point x="254" y="400"/>
      <point x="302" y="249"/>
      <point x="389" y="137"/>
      <point x="508" y="72"/>
      <point x="580" y="72" type="qcurve"/>
      <point x="631" y="72"/>
      <point x="715" y="105"/>
      <point x="780" y="152"/>
      <point x="827" y="206"/>
      <point x="840" y="227" type="qcurve"/>
      <point x="942" y="125" type="line"/>
      <point x="916" y="96"/>
      <point x="844" y="41"/>
      <point x="754" y="-3"/>
      <point x="644" y="-30"/>
      <point x="580" y="-30" type="qcurve"/>
      <point x="473" y="-30"/>
      <point x="291" y="48"/>
      <point x="157" y="186"/>
      <point x="82" y="376"/>
      <point x="82" y="487" type="qcurve"/>
      <point x="82" y="598"/>
      <point x="158" y="788"/>
      <point x="292" y="926"/>
      <point x="474" y="1004"/>
      <point x="580" y="1004" type="qcurve"/>
      <point x="644" y="1004"/>
      <point x="754" y="976"/>
      <point x="845" y="932"/>
      <point x="916" y="877"/>
      <point x="942" y="849" type="qcurve"/>
    </contour>
  </outline>
</glyph>
<glyph name="e" format="2">
  <advance width="1024"/>
  <unicode hex="0065"/>
  <anchor x="560" y="0" name="AccentBelow"/>
  <anchor x="532" y="1100" name="AccentDefault"/>
  <anchor x="532" y="550" name="AccentMiddle"/>
  <anchor x="400" y="0" name="AccentOgonek"/>
  <outline>
    <contour>
      <point x="244" y="487" type="line"/>
      <point x="244" y="373"/>
      <point x="301" y="215"/>
      <point x="394" y="116"/>
      <point x="513" y="72"/>
      <point x="575" y="72" type="qcurve"/>
      <point x="623" y="72"/>
      <point x="705" y="103"/>
      <point x="769" y="149"/>
      <point x="817" y="204"/>
      <point x="831" y="227" type="qcurve"/>
      <point x="932" y="125" type="line"/>
      <point x="916" y="106"/>
      <point x="850" y="53"/>
      <point x="757" y="4"/>
      <point x="639" y="-30"/>
      <point x="570" y="-30" type="qcurve"/>
      <point x="459" y="-30"/>
      <point x="276" y="39"/>
      <point x="145" y="174"/>
      <point x="72" y="375"/>
      <point x="72" y="507" type="qcurve"/>
      <point x="72" y="617"/>
      <point x="146" y="800"/>
      <point x="274" y="931"/>
      <point x="442" y="1004"/>
      <point x="537" y="1004" type="qcurve"/>
      <point x="621" y="1004"/>
      <point x="774" y="944"/>
      <point x="892" y="817"/>
      <point x="962" y="622"/>
      <point x="962" y="487" type="qcurve"/>
    </contour>
    <contour>
      <point x="810" y="589" type="line"/>
      <point x="810" y="649"/>
      <point x="771" y="762"/>
      <point x="698" y="849"/>
      <point x="594" y="902"/>
      <point x="529" y="902" type="qcurve"/>
      <point x="467" y="902"/>
      <point x="366" y="853"/>
      <point x="292" y="769"/>
      <point x="248" y="655"/>
      <point x="244" y="589" type="qcurve"/>
    </contour>
  </outline>
</glyph>
<glyph name="f" format="2">
  <advance width="736"/>
  <unicode hex="0066"/>
  <anchor x="400" y="0" name="AccentBelow"/>
  <anchor x="432" y="1600" name="AccentDefault"/>
  <anchor x="400" y="486" name="AccentMiddle"/>
  <outline>
    <contour>
      <point x="100" y="1004" type="line"/>
      <point x="251" y="1004" type="line"/>
      <point x="251" y="1106"/>
      <point x="286" y="1258"/>
      <point x="349" y="1367"/>
      <point x="438" y="1437"/>
      <point x="545" y="1478"/>
      <point x="669" y="1494"/>
      <point x="736" y="1494" type="qcurve"/>
      <point x="718" y="1392" type="line"/>
      <point x="651" y="1392"/>
      <point x="539" y="1364"/>
      <point x="458" y="1290"/>
      <point x="413" y="1164"/>
      <point x="413" y="1066" type="qcurve"/>
      <point x="413" y="1004" type="line"/>
      <point x="650" y="1004" type="line"/>
      <point x="627" y="872" type="line"/>
      <point x="413" y="886" type="line"/>
      <point x="413" y="0" type="line"/>
      <point x="251" y="0" type="line"/>
      <point x="251" y="893" type="line"/>
      <point x="82" y="902" type="line"/>
    </contour>
  </outline>
</glyph>
<glyph name="g" format="2">
  <advance width="1120"/>
  <unicode hex="0067"/>
  <outline>
    <contour>
      <point x="816" y="974" type="line"/>
      <point x="948" y="1004" type="line"/>
      <point x="978" y="1004" type="line"/>
      <point x="978" y="0" type="line"/>
      <point x="978" y="-126"/>
      <point x="901" y="-310"/>
      <point x="774" y="-431"/>
      <point x="607" y="-490"/>
      <point x="517" y="-490" type="qcurve"/>
      <point x="462" y="-490"/>
      <point x="351" y="-471"/>
      <point x="248" y="-432"/>
      <point x="157" y="-374"/>
      <point x="121" y="-335" type="qcurve"/>
      <point x="223" y="-233" type="line"/>
      <point x="275" y="-305"/>
      <point x="426" y="-388"/>
      <point x="517" y="-388" type="qcurve"/>
      <point x="575" y="-388"/>
      <point x="684" y="-353"/>
      <point x="766" y="-271"/>
      <point x="816" y="-138"/>
      <point x="816" y="-40" type="qcurve"/>
      <point x="816" y="142" type="line"/>
      <point x="806" y="142" type="line"/>
      <point x="800" y="127"/>
      <point x="755" y="79"/>
      <point x="682" y="33"/>
      <point x="583" y="0"/>
      <point x="523" y="0" type="qcurve"/>
      <point x="442" y="0"/>
      <point x="287" y="71"/>
      <point x="166" y="200"/>
      <point x="92" y="379"/>
      <point x="92" y="488" type="qcurve"/>
      <point x="92" y="599"/>
      <point x="166" y="778"/>
      <point x="287" y="905"/>
      <point x="442" y="974"/>
      <point x="524" y="974" type="qcurve"/>
      <point x="560" y="974"/>
      <point x="635" y="961"/>
      <point x="708" y="933"/>
      <point x="777" y="886"/>
      <point x="806" y="852" type="qcurve"/>
      <point x="816" y="852" type="line"/>
    </contour>
    <contour>
      <point x="816" y="743" type="line"/>
      <point x="765" y="813"/>
      <point x="632" y="872"/>
      <point x="554" y="872" type="qcurve"/>
      <point x="494" y="872"/>
      <point x="388" y="817"/>
      <point x="309" y="716"/>
      <point x="264" y="575"/>
      <point x="264" y="488" type="qcurve"/>
      <point x="264" y="386"/>
      <point x="315" y="240"/>
      <point x="397" y="146"/>
      <point x="500" y="102"/>
      <point x="553" y="102" type="qcurve"/>
      <point x="605" y="102"/>
      <point x="691" y="132"/>
      <point x="758" y="177"/>
      <point x="804" y="230"/>
      <point x="816" y="254" type="qcurve"/>
    </contour>
  </outline>
</glyph>
<glyph name="i" format="2">
  <advance width="576"/>
  <unicode hex="0069"/>
  <outline>
    <contour>
      <point x="207" y="974" type="line"/>
      <point x="339" y="1004" type="line"/>
      <point x="369" y="1004" type="line"/>
      <point x="369" y="0" type="line"/>
      <point x="207" y="0" type="line"/>
    </contour>
    <contour>
      <point x="192" y="1272" type="qcurve"/>
      <point x="192" y="1312"/>
      <point x="248" y="1368"/>
      <point x="288" y="1368" type="qcurve"/>
      <point x="328" y="1368"/>
      <point x="384" y="1312"/>
      <point x="384" y="1272" type="qcurve"/>
      <point x="384" y="1232"/>
      <point x="328" y="1176"/>
      <point x="288" y="1176" type="qcurve"/>
      <point x="248" y="1176"/>
      <point x="192" y="1232"/>
    </contour>
  </outline>
</glyph>
<glyph name="j" format="2">
  <advance width="576"/>
  <unicode hex="006A"/>
  <outline>
    <contour>
      <point x="207" y="974" type="line"/>
      <point x="339" y="1004" type="line"/>
      <point x="369" y="1004" type="line"/>
      <point x="369" y="-77" type="line"/>
      <point x="369" y="-196"/>
      <point x="320" y="-354"/>
      <point x="229" y="-450"/>
      <point x="97" y="-490"/>
      <point x="14" y="-490" type="qcurve"/>
      <point x="32" y="-388" type="line"/>
      <point x="68" y="-388"/>
      <point x="132" y="-365"/>
      <point x="180" y="-310"/>
      <point x="207" y="-220"/>
      <point x="207" y="-152" type="qcurve"/>
    </contour>
    <contour>
      <point x="192" y="1272" type="qcurve"/>
      <point x="192" y="1312"/>
      <point x="248" y="1368"/>
      <point x="288" y="1368" type="qcurve"/>
      <point x="328" y="1368"/>
      <point x="384" y="1312"/>
      <point x="384" y="1272" type="qcurve"/>
      <point x="384" y="1232"/>
      <point x="328" y="1176"/>
      <point x="288" y="1176" type="qcurve"/>
      <point x="248" y="1176"/>
      <point x="192" y="1232"/>
    </contour>
  </outline>
</glyph>
<glyph name="k" format="2">
  <advance width="1024"/>
  <unicode hex="006B"/>
  <outline>
    <contour>
      <point x="983" y="0" type="line"/>
      <point x="802" y="-30" type="line"/>
      <point x="484" y="549" type="line"/>
      <point x="474" y="549" type="line"/>
      <point x="314" y="389" type="line"/>
      <point x="314" y="0" type="line"/>
      <point x="152" y="0" type="line"/>
      <point x="152" y="1464" type="line"/>
      <point x="284" y="1494" type="line"/>
      <point x="314" y="1494" type="line"/>
      <point x="314" y="565" type="line"/>
      <point x="324" y="565" type="line"/>
      <point x="764" y="1004" type="line"/>
      <point x="899" y="974" type="line"/>
      <point x="596" y="670" type="line"/>
    </contour>
  </outline>
</glyph>
<glyph name="l" format="2">
  <advance width="576"/>
  <unicode hex="006C"/>
  <anchor x="336" y="0" name="AccentBelow"/>
  <anchor x="288" y="1600" name="AccentDefault"/>
  <anchor x="288" y="760" name="AccentMiddle"/>
  <outline>
    <contour>
      <point x="207" y="1464" type="line"/>
      <point x="339" y="1494" type="line"/>
      <point x="369" y="1494" type="line"/>
      <point x="369" y="293" type="line"/>
      <point x="369" y="226"/>
      <point x="400" y="140"/>
      <point x="448" y="91"/>
      <point x="505" y="72"/>
      <point x="530" y="72" type="qcurve"/>
      <point x="512" y="-30" type="line"/>
      <point x="455" y="-30"/>
      <point x="345" y="0"/>
      <point x="259" y="75"/>
      <point x="207" y="202"/>
      <point x="207" y="300" type="qcurve"/>
    </contour>
  </outline>
</glyph>
<glyph name="n" format="2">
  <advance width="1120"/>
  <unicode hex="006E"/>
  <outline>
    <contour>
      <point x="970" y="197" type="line"/>
      <point x="970" y="131"/>
      <point x="1005" y="72"/>
      <point x="1048" y="72" type="qcurve"/>
      <point x="1030" y="-30" type="line"/>
      <point x="965" y="-30"/>
      <point x="880" y="11"/>
      <point x="829" y="82"/>
      <point x="808" y="175"/>
      <point x="808" y="227" type="qcurve"/>
      <point x="808" y="687" type="line"/>
      <point x="808" y="790"/>
      <point x="710" y="902"/>
      <point x="619" y="902" type="qcurve"/>
      <point x="525" y="902"/>
      <point x="378" y="797"/>
      <point x="314" y="697" type="qcurve"/>
      <point x="314" y="0" type="line"/>
      <point x="152" y="0" type="line"/>
      <point x="152" y="944" type="line"/>
      <point x="284" y="974" type="line"/>
      <point x="314" y="974" type="line"/>
      <point x="314" y="837" type="line"/>
      <point x="324" y="837" type="line"/>
      <point x="394" y="925"/>
      <point x="551" y="1004"/>
      <point x="642" y="1004" type="qcurve"/>
      <point x="715" y="1004"/>
      <point x="835" y="963"/>
      <point x="922" y="887"/>
      <point x="970" y="776"/>
      <point x="970" y="707" type="qcurve"/>
    </contour>
  </outline>
</glyph>
<glyph name="o" format="2">
  <advance width="1120"/>
  <unicode hex="006F"/>
  <outline>
    <contour>
      <point x="560" y="1004" type="qcurve"/>
      <point x="667" y="1004"/>
      <point x="846" y="926"/>
      <point x="976" y="788"/>
      <point x="1048" y="598"/>
      <point x="1048" y="487" type="qcurve"/>
      <point x="1048" y="376"/>
      <point x="976" y="186"/>
      <point x="846" y="48"/>
      <point x="667" y="-30"/>
      <point x="560" y="-30" type="qcurve"/>
      <point x="453" y="-30"/>
      <point x="274" y="48"/>
      <point x="144" y="186"/>
      <point x="72" y="375"/>
      <point x="72" y="487" type="qcurve"/>
      <point x="72" y="598"/>
      <point x="144" y="788"/>
      <point x="274" y="926"/>
      <point x="453" y="1004"/>
    </contour>
    <contour>
      <point x="560" y="902" type="qcurve"/>
      <point x="489" y="902"/>
      <point x="372" y="837"/>
      <point x="289" y="724"/>
      <point x="244" y="573"/>
      <point x="244" y="487" type="qcurve"/>
      <point x="244" y="400"/>
      <point x="289" y="249"/>
      <point x="372" y="137"/>
      <point x="489" y="72"/>
      <point x="560" y="72" type="qcurve"/>
      <point x="631" y="72"/>
      <point x="748" y="137"/>
      <point x="831" y="249"/>
      <point x="876" y="401"/>
      <point x="876" y="487" type="qcurve"/>
      <point x="876" y="573"/>
      <point x="831" y="724"/>
      <point x="748" y="837"/>
      <point x="631" y="902"/>
    </contour>
  </outline>
</glyph>
<glyph name="p" format="2">
  <advance width="1120"/>
  <unicode hex="0070"/>
  <anchor x="560" y="-300" name="AccentBelow"/>
  <anchor x="560" y="1100" name="AccentDefault"/>
  <anchor x="560" y="486" name="AccentMiddle"/>
  <outline>
    <contour>
      <point x="304" y="974" type="line"/>
      <point x="304" y="902" type="line"/>
      <point x="314" y="902" type="line"/>
      <point x="336" y="921"/>
      <point x="396" y="958"/>
      <point x="467" y="987"/>
      <point x="547" y="1004"/>
      <point x="591" y="1004" type="qcurve"/>
      <point x="684" y="1004"/>
      <point x="847" y="928"/>
      <point x="968" y="791"/>
      <point x="1038" y="602"/>
      <point x="1038" y="488" type="qcurve"/>
      <point x="1038" y="357"/>
      <point x="960" y="163"/>
      <point x="828" y="34"/>
      <point x="655" y="-30"/>
      <point x="560" y="-30" type="qcurve"/>
      <point x="525" y="-30"/>
      <point x="449" y="-13"/>
      <point x="380" y="16"/>
      <point x="322" y="52"/>
      <point x="304" y="72" type="qcurve"/>
      <point x="304" y="-460" type="line"/>
      <point x="172" y="-490" type="line"/>
      <point x="142" y="-490" type="line"/>
      <point x="142" y="944" type="line"/>
      <point x="274" y="974" type="line"/>
    </contour>
    <contour>
      <point x="304" y="190" type="line"/>
      <point x="352" y="139"/>
      <point x="478" y="72"/>
      <point x="550" y="72" type="qcurve"/>
      <point x="598" y="72"/>
      <point x="709" y="114"/>
      <point x="803" y="212"/>
      <point x="866" y="372"/>
      <point x="866" y="489" type="qcurve"/>
      <point x="866" y="587"/>
      <point x="815" y="741"/>
      <point x="729" y="847"/>
      <point x="619" y="902"/>
      <point x="560" y="902" type="qcurve"/>
      <point x="513" y="902"/>
      <point x="436" y="881"/>
      <point x="373" y="848"/>
      <point x="323" y="806"/>
      <point x="304" y="785" type="qcurve"/>
    </contour>
  </outline>
</glyph>
<glyph name="q" format="2">
  <advance width="1120"/>
  <unicode hex="0071"/>
  <anchor x="560" y="-300" name="AccentBelow"/>
  <anchor x="560" y="1100" name="AccentDefault"/>
  <anchor x="560" y="486" name="AccentMiddle"/>
  <outline>
    <contour>
      <point x="826" y="784" type="line"/>
      <point x="778" y="835"/>
      <point x="650" y="902"/>
      <point x="578" y="902" type="qcurve"/>
      <point x="530" y="902"/>
      <point x="417" y="860"/>
      <point x="319" y="762"/>
      <point x="254" y="602"/>
      <point x="254" y="485" type="qcurve"/>
      <point x="254" y="387"/>
      <point x="308" y="233"/>
      <point x="396" y="127"/>
      <point x="509" y="72"/>
      <point x="568" y="72" type="qcurve"/>
      <point x="614" y="72"/>
      <point x="692" y="93"/>
      <point x="757" y="126"/>
      <point x="807" y="168"/>
      <point x="826" y="189" type="qcurve"/>
    </contour>
    <contour>
      <point x="988" y="-460" type="line"/>
      <point x="856" y="-490" type="line"/>
      <point x="826" y="-490" type="line"/>
      <point x="826" y="72" type="line"/>
      <point x="816" y="72" type="line"/>
      <point x="794" y="53"/>
      <point x="733" y="16"/>
      <point x="662" y="-13"/>
      <point x="581" y="-30"/>
      <point x="537" y="-30" type="qcurve"/>
      <point x="444" y="-30"/>
      <point x="279" y="46"/>
      <point x="154" y="183"/>
      <point x="82" y="372"/>
      <point x="82" y="486" type="qcurve"/>
      <point x="82" y="617"/>
      <point x="163" y="811"/>
      <point x="298" y="940"/>
      <point x="474" y="1004"/>
      <point x="568" y="1004" type="qcurve"/>
      <point x="611" y="1004"/>
      <point x="698" y="986"/>
      <point x="798" y="937"/>
      <point x="915" y="851"/>
      <point x="988" y="784" type="qcurve"/>
    </contour>
  </outline>
</glyph>
<glyph name="r" format="2">
  <advance width="736"/>
  <unicode hex="0072"/>
  <outline>
    <contour>
      <point x="314" y="974" type="line"/>
      <point x="314" y="808" type="line"/>
      <point x="324" y="808" type="line"/>
      <point x="369" y="905"/>
      <point x="484" y="1004"/>
      <point x="566" y="1004" type="qcurve"/>
      <point x="588" y="1004"/>
      <point x="632" y="992"/>
      <point x="669" y="974"/>
      <point x="697" y="953"/>
      <point x="704" y="944" type="qcurve"/>
      <point x="677" y="786" type="line"/>
      <point x="658" y="806"/>
      <point x="583" y="842"/>
      <point x="540" y="842" type="qcurve"/>
      <point x="480" y="842"/>
      <point x="394" y="783"/>
      <point x="340" y="699"/>
      <point x="314" y="607"/>
      <point x="314" y="574" type="qcurve"/>
      <point x="314" y="0" type="line"/>
      <point x="152" y="0" type="line"/>
      <point x="152" y="944" type="line"/>
      <point x="284" y="974" type="line"/>
    </contour>
  </outline>
</glyph>
<glyph name="s" format="2">
  <advance width="864"/>
  <unicode hex="0073"/>
  <outline>
    <contour>
      <point x="194" y="227" type="line"/>
      <point x="214" y="193"/>
      <point x="266" y="136"/>
      <point x="328" y="95"/>
      <point x="396" y="72"/>
      <point x="431" y="72" type="qcurve"/>
      <point x="466" y="72"/>
      <point x="534" y="91"/>
      <point x="587" y="132"/>
      <point x="620" y="194"/>
      <point x="620" y="238" type="qcurve"/>
      <point x="620" y="272"/>
      <point x="596" y="325"/>
      <point x="542" y="372"/>
      <point x="456" y="414"/>
      <point x="394" y="437" type="qcurve"/>
      <point x="350" y="453"/>
      <point x="261" y="507"/>
      <point x="190" y="583"/>
      <point x="145" y="685"/>
      <point x="145" y="749" type="qcurve"/>
      <point x="145" y="807"/>
      <point x="190" y="902"/>
      <point x="268" y="968"/>
      <point x="371" y="1004"/>
      <point x="429" y="1004" type="qcurve"/>
      <point x="477" y="1004"/>
      <point x="569" y="980"/>
      <point x="652" y="938"/>
      <point x="723" y="882"/>
      <point x="751" y="849" type="qcurve"/>
      <point x="650" y="747" type="line"/>
      <point x="634" y="778"/>
      <point x="589" y="834"/>
      <point x="533" y="877"/>
      <point x="467" y="902"/>
      <point x="430" y="902" type="qcurve"/>
      <point x="402" y="902"/>
      <point x="354" y="884"/>
      <point x="318" y="850"/>
      <point x="297" y="800"/>
      <point x="297" y="768" type="qcurve"/>
      <point x="297" y="733"/>
      <point x="328" y="673"/>
      <point x="379" y="624"/>
      <point x="444" y="587"/>
      <point x="478" y="575" type="qcurve"/>
      <point x="553" y="548"/>
      <point x="664" y="484"/>
      <point x="737" y="404"/>
      <point x="772" y="306"/>
      <point x="772" y="246" type="qcurve"/>
      <point x="772" y="182"/>
      <point x="715" y="80"/>
      <point x="620" y="8"/>
      <point x="497" y="-30"/>
      <point x="430" y="-30" type="qcurve"/>
      <point x="235" y="-30"/>
      <point x="92" y="125" type="qcurve"/>
    </contour>
  </outline>
</glyph>
<glyph name="t" format="2">
  <advance width="736"/>
  <unicode hex="0074"/>
  <anchor x="432" y="0" name="AccentBelow"/>
  <anchor x="432" y="0" name="AccentCedilla"/>
  <anchor x="336" y="1600" name="AccentDefault"/>
  <anchor x="336" y="486" name="AccentMiddle"/>
  <outline>
    <contour>
      <point x="413" y="1322" type="line"/>
      <point x="413" y="1004" type="line"/>
      <point x="650" y="1004" type="line"/>
      <point x="627" y="872" type="line"/>
      <point x="413" y="886" type="line"/>
      <point x="413" y="297" type="line"/>
      <point x="413" y="240"/>
      <point x="431" y="155"/>
      <point x="479" y="99"/>
      <point x="563" y="72"/>
      <point x="629" y="72" type="qcurve"/>
      <point x="611" y="-30" type="line"/>
      <point x="504" y="-30"/>
      <point x="365" y="8"/>
      <point x="284" y="92"/>
      <point x="251" y="228"/>
      <point x="251" y="326" type="qcurve"/>
      <point x="251" y="893" type="line"/>
      <point x="82" y="902" type="line"/>
      <point x="100" y="1004" type="line"/>
      <point x="251" y="1004" type="line"/>
      <point x="251" y="1292" type="line"/>
      <point x="383" y="1322" type="line"/>
    </contour>
  </outline>
</glyph>
<glyph name="u" format="2">
  <advance width="1120"/>
  <unicode hex="0075"/>
  <outline>
    <contour>
      <point x="314" y="1004" type="line"/>
      <point x="314" y="305" type="line"/>
      <point x="314" y="240"/>
      <point x="348" y="151"/>
      <point x="404" y="96"/>
      <point x="475" y="72"/>
      <point x="512" y="72" type="qcurve"/>
      <point x="567" y="72"/>
      <point x="657" y="107"/>
      <point x="730" y="163"/>
      <point x="786" y="230"/>
      <point x="808" y="263" type="qcurve"/>
      <point x="808" y="974" type="line"/>
      <point x="940" y="1004" type="line"/>
      <point x="970" y="1004" type="line"/>
      <point x="970" y="189" type="line"/>
      <point x="970" y="123"/>
      <point x="1008" y="72"/>
      <point x="1048" y="72" type="qcurve"/>
      <point x="1030" y="-30" type="line"/>
      <point x="975" y="-30"/>
      <point x="901" y="2"/>
      <point x="853" y="52"/>
      <point x="826" y="113"/>
      <point x="818" y="142" type="qcurve"/>
      <point x="808" y="142" type="line"/>
      <point x="791" y="116"/>
      <point x="732" y="56"/>
      <point x="648" y="4"/>
      <point x="542" y="-30"/>
      <point x="479" y="-30" type="qcurve"/>
      <point x="417" y="-30"/>
      <point x="300" y="4"/>
      <point x="208" y="79"/>
      <point x="152" y="197"/>
      <point x="152" y="280" type="qcurve"/>
      <point x="152" y="974" type="line"/>
      <point x="284" y="1004" type="line"/>
    </contour>
  </outline>
</glyph>
<glyph name="v" format="2">
  <advance width="1024"/>
  <unicode hex="0076"/>
  <anchor x="512" y="0" name="AccentBelow"/>
  <anchor x="512" y="1100" name="AccentDefault"/>
  <anchor x="512" y="486" name="AccentMiddle"/>
  <outline>
    <contour>
      <point x="232" y="1004" type="line"/>
      <point x="539" y="230" type="line"/>
      <point x="549" y="230" type="line"/>
      <point x="856" y="1004" type="line"/>
      <point x="966" y="974" type="line"/>
      <point x="573" y="0" type="line"/>
      <point x="451" y="0" type="line"/>
      <point x="58" y="974" type="line"/>
    </contour>
  </outline>
</glyph>
<glyph name="w" format="2">
  <advance width="1440"/>
  <unicode hex="0077"/>
  <outline>
    <contour>
      <point x="1384" y="974" type="line"/>
      <point x="1067" y="0" type="line"/>
      <point x="945" y="0" type="line"/>
      <point x="725" y="678" type="line"/>
      <point x="715" y="678" type="line"/>
      <point x="495" y="0" type="line"/>
      <point x="373" y="0" type="line"/>
      <point x="56" y="974" type="line"/>
      <point x="230" y="1004" type="line"/>
      <point x="460" y="269" type="line"/>
      <point x="470" y="269" type="line"/>
      <point x="689" y="974" type="line"/>
      <point x="811" y="974" type="line"/>
      <point x="1032" y="269" type="line"/>
      <point x="1042" y="269" type="line"/>
      <point x="1271" y="1004" type="line"/>
    </contour>
  </outline>
</glyph>
<glyph name="x" format="2">
  <advance width="1024"/>
  <unicode hex="0078"/>
  <anchor x="512" y="0" name="AccentBelow"/>
  <anchor x="512" y="1100" name="AccentDefault"/>
  <anchor x="512" y="486" name="AccentMiddle"/>
  <outline>
    <contour>
      <point x="233" y="1004" type="line"/>
      <point x="524" y="602" type="line"/>
      <point x="534" y="602" type="line"/>
      <point x="843" y="1004" type="line"/>
      <point x="966" y="974" type="line"/>
      <point x="599" y="509" type="line"/>
      <point x="599" y="499" type="line"/>
      <point x="966" y="0" type="line"/>
      <point x="788" y="-30" type="line"/>
      <point x="501" y="372" type="line"/>
      <point x="491" y="372" type="line"/>
      <point x="181" y="-30" type="line"/>
      <point x="58" y="0" type="line"/>
      <point x="425" y="464" type="line"/>
      <point x="425" y="474" type="line"/>
      <point x="58" y="974" type="line"/>
    </contour>
  </outline>
</glyph>
<glyph name="y" format="2">
  <advance width="960"/>
  <unicode hex="0079"/>
  <outline>
    <contour>
      <point x="226" y="1004" type="line"/>
      <point x="540" y="204" type="line"/>
      <point x="550" y="204" type="line"/>
      <point x="809" y="1004" type="line"/>
      <point x="918" y="974" type="line"/>
      <point x="592" y="-30" type="line"/>
      <point x="543" y="-181"/>
      <point x="444" y="-362"/>
      <point x="337" y="-459"/>
      <point x="218" y="-490"/>
      <point x="132" y="-490" type="qcurve"/>
      <point x="150" y="-388" type="line"/>
      <point x="186" y="-388"/>
      <point x="277" y="-366"/>
      <point x="359" y="-291"/>
      <point x="435" y="-150"/>
      <point x="474" y="-30" type="qcurve"/>
      <point x="52" y="974" type="line"/>
    </contour>
  </outline>
</glyph>
<glyph name="z" format="2">
  <advance width="960"/>
  <unicode hex="007A"/>
  <guideline x="0" y="80" angle="3"/>
  <guideline x="59" y="0" angle="55"/>
  <guideline x="215" y="0" angle="55"/>
  <guideline x="864" y="0" angle="90"/>
  <guideline x="861" y="0" angle="80"/>
  <anchor x="512" y="0" name="AccentBelow"/>
  <anchor x="512" y="1100" name="AccentDefault"/>
  <anchor x="480" y="486" name="AccentMiddle"/>
  <outline>
    <contour>
      <point x="72" y="25" type="line" name="sv01"/>
      <point x="668" y="866" type="line"/>
      <point x="668" y="876" type="line" name="sh02"/>
      <point x="155" y="849" type="line" name="ih01"/>
      <point x="176" y="974" type="line"/>
      <point x="884" y="974" type="line" name="sh01"/>
      <point x="884" y="949" type="line" name="sv02"/>
      <point x="287" y="105" type="line"/>
      <point x="287" y="95" type="line" name="sh04"/>
      <point x="884" y="125" type="line" name="sh05"/>
      <point x="862" y="0" type="line"/>
      <point x="72" y="0" type="line" name="sh03"/>
    </contour>
  </outline>
</glyph>
<glyph name="braceleft" format="2">
  <advance width="736"/>
  <unicode hex="007B"/>
  <outline>
    <contour>
      <point x="636" y="1362" type="line"/>
      <point x="573" y="1362"/>
      <point x="499" y="1337"/>
      <point x="461" y="1283"/>
      <point x="450" y="1196"/>
      <point x="450" y="1135" type="qcurve"/>
      <point x="450" y="972" type="line"/>
      <point x="450" y="904"/>
      <point x="433" y="780"/>
      <point x="382" y="679"/>
      <point x="289" y="608"/>
      <point x="213" y="593" type="qcurve"/>
      <point x="289" y="578"/>
      <point x="382" y="507"/>
      <point x="433" y="406"/>
      <point x="450" y="282"/>
      <point x="450" y="214" type="qcurve"/>
      <point x="450" y="39" type="line"/>
      <point x="450" y="-23"/>
      <point x="461" y="-105"/>
      <point x="499" y="-155"/>
      <point x="573" y="-176"/>
      <point x="636" y="-176" type="qcurve"/>
      <point x="654" y="-278" type="line"/>
      <point x="568" y="-278"/>
      <point x="439" y="-252"/>
      <point x="352" y="-184"/>
      <point x="308" y="-70"/>
      <point x="308" y="19" type="qcurve"/>
      <point x="308" y="194" type="line"/>
      <point x="308" y="270"/>
      <point x="298" y="398"/>
      <point x="252" y="490"/>
      <point x="157" y="542"/>
      <point x="72" y="542" type="qcurve"/>
      <point x="72" y="644" type="line"/>
      <point x="159" y="644"/>
      <point x="254" y="696"/>
      <point x="299" y="788"/>
      <point x="308" y="916"/>
      <point x="308" y="992" type="qcurve"/>
      <point x="308" y="1157" type="line"/>
      <point x="308" y="1245"/>
      <point x="352" y="1364"/>
      <point x="439" y="1434"/>
      <point x="568" y="1464"/>
      <point x="654" y="1464" type="qcurve"/>
    </contour>
  </outline>
</glyph>
<glyph name="bar" format="2">
  <advance width="736"/>
  <unicode hex="007C"/>
  <outline>
    <contour>
      <point x="439" y="1536" type="line"/>
      <point x="439" y="-490" type="line"/>
      <point x="297" y="-490" type="line"/>
      <point x="297" y="1536" type="line"/>
    </contour>
  </outline>
</glyph>
<glyph name="braceright" format="2">
  <advance width="736"/>
  <unicode hex="007D"/>
  <outline>
    <contour>
      <point x="72" y="1464" type="line"/>
      <point x="157" y="1464"/>
      <point x="287" y="1434"/>
      <point x="374" y="1364"/>
      <point x="418" y="1245"/>
      <point x="418" y="1157" type="qcurve"/>
      <point x="418" y="992" type="line"/>
      <point x="418" y="916"/>
      <point x="426" y="788"/>
      <point x="471" y="696"/>
      <point x="567" y="644"/>
      <point x="654" y="644" type="qcurve"/>
      <point x="654" y="542" type="line"/>
      <point x="569" y="542"/>
      <point x="474" y="490"/>
      <point x="428" y="398"/>
      <point x="418" y="270"/>
      <point x="418" y="194" type="qcurve"/>
      <point x="418" y="19" type="line"/>
      <point x="418" y="-70"/>
      <point x="374" y="-184"/>
      <point x="287" y="-252"/>
      <point x="157" y="-278"/>
      <point x="72" y="-278" type="qcurve"/>
      <point x="90" y="-176" type="line"/>
      <point x="153" y="-176"/>
      <point x="227" y="-155"/>
      <point x="265" y="-105"/>
      <point x="276" y="-23"/>
      <point x="276" y="39" type="qcurve"/>
      <point x="276" y="214" type="line"/>
      <point x="276" y="282"/>
      <point x="293" y="406"/>
      <point x="344" y="507"/>
      <point x="437" y="578"/>
      <point x="513" y="593" type="qcurve"/>
      <point x="437" y="608"/>
      <point x="344" y="679"/>
      <point x="293" y="780"/>
      <point x="276" y="904"/>
      <point x="276" y="972" type="qcurve"/>
      <point x="276" y="1135" type="line"/>
      <point x="276" y="1196"/>
      <point x="265" y="1283"/>
      <point x="227" y="1337"/>
      <point x="153" y="1362"/>
      <point x="90" y="1362" type="qcurve"/>
    </contour>
  </outline>
</glyph>
<glyph name="exclamdown" format="2">
  <advance width="736"/>
  <unicode hex="00A1"/>
  <outline>
    <contour>
      <point x="418" y="580" type="line"/>
      <point x="540" y="580" type="line"/>
      <point x="592" y="-460" type="line"/>
      <point x="367" y="-460" type="line"/>
    </contour>
    <contour>
      <point x="367" y="891" type="qcurve"/>
      <point x="367" y="915"/>
      <point x="384" y="956"/>
      <point x="414" y="987"/>
      <point x="455" y="1004"/>
      <point x="479" y="1004" type="qcurve"/>
      <point x="501" y="1004"/>
      <point x="542" y="987"/>
      <point x="574" y="956"/>
      <point x="592" y="915"/>
      <point x="592" y="891" type="qcurve"/>
      <point x="592" y="869"/>
      <point x="574" y="828"/>
      <point x="542" y="797"/>
      <point x="501" y="778"/>
      <point x="479" y="778" type="qcurve"/>
      <point x="455" y="778"/>
      <point x="414" y="797"/>
      <point x="384" y="828"/>
      <point x="367" y="869"/>
    </contour>
  </outline>
</glyph>
<glyph name="cent" format="2">
  <advance width="1120"/>
  <unicode hex="00A2"/>
  <outline>
    <contour>
      <point x="905" y="1206" type="line"/>
      <point x="992" y="1191" type="line"/>
      <point x="874" y="939" type="line"/>
      <point x="909" y="919"/>
      <point x="966" y="872"/>
      <point x="988" y="849" type="qcurve"/>
      <point x="886" y="747" type="line"/>
      <point x="875" y="764"/>
      <point x="843" y="803"/>
      <point x="820" y="823" type="qcurve"/>
      <point x="487" y="109" type="line"/>
      <point x="548" y="72"/>
      <point x="626" y="72" type="qcurve"/>
      <point x="677" y="72"/>
      <point x="761" y="105"/>
      <point x="826" y="152"/>
      <point x="873" y="206"/>
      <point x="886" y="227" type="qcurve"/>
      <point x="988" y="125" type="line"/>
      <point x="962" y="96"/>
      <point x="890" y="41"/>
      <point x="800" y="-3"/>
      <point x="690" y="-30"/>
      <point x="626" y="-30" type="qcurve"/>
      <point x="575" y="-30"/>
      <point x="483" y="-12"/>
      <point x="438" y="5" type="qcurve"/>
      <point x="328" y="-232" type="line"/>
      <point x="241" y="-217" type="line"/>
      <point x="362" y="43" type="line"/>
      <point x="308" y="76"/>
      <point x="222" y="168"/>
      <point x="161" y="282"/>
      <point x="128" y="414"/>
      <point x="128" y="487" type="qcurve"/>
      <point x="128" y="598"/>
      <point x="204" y="788"/>
      <point x="338" y="926"/>
      <point x="520" y="1004"/>
      <point x="626" y="1004" type="qcurve"/>
      <point x="674" y="1004"/>
      <point x="759" y="989"/>
      <point x="797" y="975" type="qcurve"/>
    </contour>
    <contour>
      <point x="749" y="872" type="line"/>
      <point x="723" y="886"/>
      <point x="661" y="902"/>
      <point x="626" y="902" type="qcurve"/>
      <point x="555" y="902"/>
      <point x="435" y="837"/>
      <point x="348" y="724"/>
      <point x="300" y="573"/>
      <point x="300" y="487" type="qcurve"/>
      <point x="300" y="387"/>
      <point x="361" y="219"/>
      <point x="418" y="162" type="qcurve"/>
    </contour>
  </outline>
</glyph>
<glyph name="sterling" format="2">
  <advance width="1120"/>
  <unicode hex="00A3"/>
  <outline>
    <contour>
      <point x="141" y="803" type="line"/>
      <point x="359" y="803" type="line"/>
      <point x="359" y="830"/>
      <point x="341" y="906"/>
      <point x="319" y="993"/>
      <point x="301" y="1086"/>
      <point x="301" y="1130" type="qcurve"/>
      <point x="301" y="1203"/>
      <point x="346" y="1325"/>
      <point x="438" y="1414"/>
      <point x="578" y="1464"/>
      <point x="673" y="1464" type="qcurve"/>
      <point x="734" y="1464"/>
      <point x="838" y="1429"/>
      <point x="919" y="1380"/>
      <point x="977" y="1327"/>
      <point x="992" y="1309" type="qcurve"/>
      <point x="891" y="1207" type="line"/>
      <point x="875" y="1237"/>
      <point x="830" y="1293"/>
      <point x="776" y="1336"/>
      <point x="713" y="1362"/>
      <point x="680" y="1362" type="qcurve"/>
      <point x="624" y="1362"/>
      <point x="543" y="1325"/>
      <point x="489" y="1261"/>
      <point x="463" y="1173"/>
      <point x="463" y="1122" type="qcurve"/>
      <point x="463" y="1090"/>
      <point x="475" y="1003"/>
      <point x="489" y="913"/>
      <point x="501" y="830"/>
      <point x="501" y="803" type="qcurve"/>
      <point x="831" y="803" type="line"/>
      <point x="810" y="678" type="line"/>
      <point x="501" y="693" type="line"/>
      <point x="501" y="601"/>
      <point x="464" y="433"/>
      <point x="406" y="286"/>
      <point x="335" y="161"/>
      <point x="301" y="112" type="qcurve"/>
      <point x="301" y="102" type="line"/>
      <point x="370" y="102"/>
      <point x="473" y="93"/>
      <point x="557" y="81"/>
      <point x="632" y="72"/>
      <point x="673" y="72" type="qcurve"/>
      <point x="717" y="72"/>
      <point x="788" y="105"/>
      <point x="842" y="153"/>
      <point x="880" y="207"/>
      <point x="891" y="227" type="qcurve"/>
      <point x="992" y="125" type="line"/>
      <point x="975" y="106"/>
      <point x="917" y="53"/>
      <point x="835" y="4"/>
      <point x="729" y="-30"/>
      <point x="664" y="-30" type="qcurve"/>
      <point x="612" y="-30"/>
      <point x="513" y="-21"/>
      <point x="399" y="-9"/>
      <point x="260" y="0"/>
      <point x="167" y="0" type="qcurve"/>
      <point x="149" y="102" type="line"/>
      <point x="186" y="151"/>
      <point x="260" y="257"/>
      <point x="320" y="395"/>
      <point x="358" y="576"/>
      <point x="359" y="701" type="qcurve"/>
      <point x="126" y="718" type="line"/>
    </contour>
  </outline>
</glyph>
<glyph name="currency" format="2">
  <advance width="1024"/>
  <unicode hex="00A4"/>
  <guideline x="0" y="851" angle="0"/>
  <guideline x="154" y="0" angle="90"/>
  <guideline x="788" y="0" angle="90"/>
  <outline>
    <contour>
      <point x="510" y="974" type="qcurve" name="dv03"/>
      <point x="462" y="974"/>
      <point x="377" y="935"/>
      <point x="312" y="869"/>
      <point x="274" y="783"/>
      <point x="274" y="736" type="qcurve" name="sh02"/>
      <point x="274" y="689"/>
      <point x="312" y="603"/>
      <point x="377" y="538"/>
      <point x="462" y="499"/>
      <point x="510" y="499" type="qcurve" name="dv02"/>
      <point x="557" y="499"/>
      <point x="643" y="537"/>
      <point x="708" y="601"/>
      <point x="747" y="688"/>
      <point x="747" y="736" type="qcurve" name="sh04"/>
      <point x="747" y="783"/>
      <point x="708" y="869"/>
      <point x="643" y="935"/>
      <point x="557" y="974"/>
    </contour>
    <contour>
      <point x="719" y="445" type="line"/>
      <point x="621" y="377"/>
      <point x="510" y="377" type="qcurve" name="dv01"/>
      <point x="401" y="377"/>
      <point x="307" y="441" type="qcurve"/>
      <point x="152" y="287" type="line" name="sh05"/>
      <point x="66" y="373" type="line" name="sh06"/>
      <point x="219" y="527" type="line"/>
      <point x="185" y="573"/>
      <point x="152" y="679"/>
      <point x="152" y="736" type="qcurve" name="sh01"/>
      <point x="152" y="851"/>
      <point x="219" y="945" type="qcurve"/>
      <point x="66" y="1098" type="line" name="sh07"/>
      <point x="152" y="1184" type="line" name="sh08"/>
      <point x="305" y="1031" type="line"/>
      <point x="400" y="1096"/>
      <point x="510" y="1096" type="qcurve" name="dv04"/>
      <point x="621" y="1096"/>
      <point x="719" y="1027" type="qcurve"/>
      <point x="877" y="1184" type="line" name="sh09"/>
      <point x="963" y="1098" type="line" name="sh12"/>
      <point x="805" y="941" type="line"/>
      <point x="837" y="893"/>
      <point x="869" y="790"/>
      <point x="869" y="738" type="qcurve" name="sh03"/>
      <point x="869" y="684"/>
      <point x="835" y="579"/>
      <point x="803" y="533" type="qcurve"/>
      <point x="963" y="373" type="line" name="sh11"/>
      <point x="877" y="287" type="line" name="sh10"/>
    </contour>
  </outline>
</glyph>
<glyph name="yen" format="2">
  <advance width="1024"/>
  <unicode hex="00A5"/>
  <outline>
    <contour>
      <point x="276" y="1464" type="line"/>
      <point x="537" y="742" type="line"/>
      <point x="547" y="742" type="line"/>
      <point x="808" y="1464" type="line"/>
      <point x="929" y="1434" type="line"/>
      <point x="762" y="974" type="line"/>
      <point x="929" y="974" type="line"/>
      <point x="911" y="872" type="line"/>
      <point x="724" y="872" type="line"/>
      <point x="642" y="645" type="line"/>
      <point x="929" y="645" type="line"/>
      <point x="911" y="543" type="line"/>
      <point x="603" y="543" type="line"/>
      <point x="603" y="0" type="line"/>
      <point x="421" y="0" type="line"/>
      <point x="421" y="543" type="line"/>
      <point x="95" y="543" type="line"/>
      <point x="113" y="645" type="line"/>
      <point x="382" y="645" type="line"/>
      <point x="300" y="872" type="line"/>
      <point x="95" y="872" type="line"/>
      <point x="113" y="974" type="line"/>
      <point x="262" y="974" type="line"/>
      <point x="95" y="1434" type="line"/>
    </contour>
  </outline>
</glyph>
<glyph name="brokenbar" format="2">
  <advance width="736"/>
  <unicode hex="00A6"/>
  <outline>
    <contour>
      <point x="429" y="1682" type="line" name="av01"/>
      <point x="429" y="825" type="line" name="dh02"/>
      <point x="307" y="825" type="line" name="dh01"/>
      <point x="307" y="1682" type="line"/>
    </contour>
    <contour>
      <point x="307" y="-278" type="line" name="sh01"/>
      <point x="307" y="579" type="line"/>
      <point x="429" y="579" type="line" name="sh02"/>
      <point x="429" y="-278" type="line"/>
    </contour>
  </outline>
</glyph>
<glyph name="dieresis" format="2">
  <advance width="768"/>
  <unicode hex="00A8"/>
  <outline>
    <contour>
      <point x="76" y="1280" type="qcurve"/>
      <point x="76" y="1299"/>
      <point x="92" y="1335"/>
      <point x="119" y="1362"/>
      <point x="155" y="1378"/>
      <point x="176" y="1378" type="qcurve"/>
      <point x="196" y="1378"/>
      <point x="233" y="1362"/>
      <point x="261" y="1335"/>
      <point x="278" y="1299"/>
      <point x="278" y="1280" type="qcurve"/>
      <point x="278" y="1259"/>
      <point x="261" y="1221"/>
      <point x="233" y="1192"/>
      <point x="196" y="1176"/>
      <point x="176" y="1176" type="qcurve"/>
      <point x="155" y="1176"/>
      <point x="119" y="1192"/>
      <point x="92" y="1221"/>
      <point x="76" y="1259"/>
    </contour>
    <contour>
      <point x="490" y="1280" type="qcurve"/>
      <point x="490" y="1299"/>
      <point x="506" y="1335"/>
      <point x="533" y="1362"/>
      <point x="569" y="1378"/>
      <point x="590" y="1378" type="qcurve"/>
      <point x="610" y="1378"/>
      <point x="647" y="1362"/>
      <point x="675" y="1335"/>
      <point x="692" y="1299"/>
      <point x="692" y="1280" type="qcurve"/>
      <point x="692" y="1259"/>
      <point x="675" y="1221"/>
      <point x="647" y="1192"/>
      <point x="610" y="1176"/>
      <point x="590" y="1176" type="qcurve"/>
      <point x="569" y="1176"/>
      <point x="533" y="1192"/>
      <point x="506" y="1221"/>
      <point x="490" y="1259"/>
    </contour>
  </outline>
</glyph>
<glyph name="copyright" format="2">
  <advance width="1600"/>
  <unicode hex="00A9"/>
  <outline>
    <contour>
      <point x="52" y="716" type="qcurve"/>
      <point x="52" y="819"/>
      <point x="105" y="1010"/>
      <point x="202" y="1177"/>
      <point x="339" y="1313"/>
      <point x="505" y="1411"/>
      <point x="696" y="1464"/>
      <point x="799" y="1464" type="qcurve"/>
      <point x="902" y="1464"/>
      <point x="1093" y="1411"/>
      <point x="1260" y="1313"/>
      <point x="1396" y="1177"/>
      <point x="1494" y="1010"/>
      <point x="1547" y="819"/>
      <point x="1547" y="716" type="qcurve"/>
      <point x="1547" y="613"/>
      <point x="1494" y="422"/>
      <point x="1396" y="256"/>
      <point x="1260" y="120"/>
      <point x="1093" y="23"/>
      <point x="902" y="-30"/>
      <point x="799" y="-30" type="qcurve"/>
      <point x="696" y="-30"/>
      <point x="505" y="23"/>
      <point x="339" y="120"/>
      <point x="202" y="256"/>
      <point x="105" y="422"/>
      <point x="52" y="613"/>
    </contour>
    <contour>
      <point x="134" y="717" type="qcurve"/>
      <point x="134" y="627"/>
      <point x="183" y="459"/>
      <point x="271" y="312"/>
      <point x="394" y="189"/>
      <point x="542" y="101"/>
      <point x="710" y="52"/>
      <point x="799" y="52" type="qcurve"/>
      <point x="888" y="52"/>
      <point x="1057" y="101"/>
      <point x="1205" y="189"/>
      <point x="1328" y="312"/>
      <point x="1416" y="459"/>
      <point x="1465" y="627"/>
      <point x="1465" y="717" type="qcurve"/>
      <point x="1465" y="806"/>
      <point x="1416" y="975"/>
      <point x="1328" y="1122"/>
      <point x="1205" y="1245"/>
      <point x="1057" y="1333"/>
      <point x="888" y="1382"/>
      <point x="799" y="1382" type="qcurve"/>
      <point x="710" y="1382"/>
      <point x="542" y="1333"/>
      <point x="394" y="1245"/>
      <point x="271" y="1122"/>
      <point x="183" y="974"/>
      <point x="134" y="806"/>
    </contour>
    <contour>
      <point x="1053" y="941" type="line"/>
      <point x="1041" y="959"/>
      <point x="1000" y="1008"/>
      <point x="944" y="1052"/>
      <point x="872" y="1082"/>
      <point x="827" y="1082" type="qcurve"/>
      <point x="765" y="1082"/>
      <point x="660" y="1024"/>
      <point x="582" y="924"/>
      <point x="538" y="791"/>
      <point x="538" y="716" type="qcurve"/>
      <point x="538" y="641"/>
      <point x="582" y="508"/>
      <point x="659" y="408"/>
      <point x="765" y="350"/>
      <point x="827" y="350" type="qcurve"/>
      <point x="872" y="350"/>
      <point x="944" y="380"/>
      <point x="1000" y="424"/>
      <point x="1041" y="473"/>
      <point x="1053" y="491" type="qcurve"/>
      <point x="1141" y="402" type="line"/>
      <point x="1119" y="378"/>
      <point x="1057" y="330"/>
      <point x="978" y="292"/>
      <point x="882" y="268"/>
      <point x="827" y="268" type="qcurve"/>
      <point x="735" y="268"/>
      <point x="577" y="336"/>
      <point x="461" y="456"/>
      <point x="396" y="620"/>
      <point x="396" y="716" type="qcurve"/>
      <point x="396" y="812"/>
      <point x="462" y="976"/>
      <point x="577" y="1096"/>
      <point x="735" y="1164"/>
      <point x="827" y="1164" type="qcurve"/>
      <point x="882" y="1164"/>
      <point x="978" y="1140"/>
      <point x="1057" y="1102"/>
      <point x="1119" y="1054"/>
      <point x="1141" y="1030" type="qcurve"/>
    </contour>
  </outline>
</glyph>
<glyph name="ordfeminine" format="2">
  <advance width="864"/>
  <unicode hex="00AA"/>
  <outline>
    <contour>
      <point x="132" y="1341" type="line"/>
      <point x="184" y="1401"/>
      <point x="326" y="1464"/>
      <point x="417" y="1464" type="qcurve"/>
      <point x="475" y="1464"/>
      <point x="578" y="1428"/>
      <point x="654" y="1355"/>
      <point x="698" y="1246"/>
      <point x="698" y="1174" type="qcurve"/>
      <point x="698" y="810" type="line"/>
      <point x="698" y="729"/>
      <point x="759" y="729" type="qcurve"/>
      <point x="745" y="649" type="line"/>
      <point x="703" y="649"/>
      <point x="646" y="675"/>
      <point x="610" y="715"/>
      <point x="590" y="763"/>
      <point x="585" y="784" type="qcurve"/>
      <point x="576" y="784" type="line"/>
      <point x="556" y="761"/>
      <point x="510" y="713"/>
      <point x="449" y="674"/>
      <point x="369" y="649"/>
      <point x="315" y="649" type="qcurve"/>
      <point x="267" y="649"/>
      <point x="189" y="680"/>
      <point x="135" y="737"/>
      <point x="105" y="817"/>
      <point x="105" y="865" type="qcurve"/>
      <point x="105" y="932"/>
      <point x="158" y="1036"/>
      <point x="272" y="1107"/>
      <point x="451" y="1144"/>
      <point x="576" y="1144" type="qcurve"/>
      <point x="576" y="1206" type="line"/>
      <point x="576" y="1254"/>
      <point x="550" y="1321"/>
      <point x="506" y="1363"/>
      <point x="448" y="1382"/>
      <point x="417" y="1382" type="qcurve"/>
      <point x="348" y="1382"/>
      <point x="246" y="1315"/>
      <point x="212" y="1261" type="qcurve"/>
    </contour>
    <contour>
      <point x="576" y="1084" type="line"/>
      <point x="481" y="1084"/>
      <point x="349" y="1056"/>
      <point x="265" y="1003"/>
      <point x="227" y="925"/>
      <point x="227" y="874" type="qcurve"/>
      <point x="227" y="836"/>
      <point x="254" y="781"/>
      <point x="295" y="747"/>
      <point x="341" y="731"/>
      <point x="359" y="731" type="qcurve"/>
      <point x="395" y="731"/>
      <point x="455" y="749"/>
      <point x="507" y="784"/>
      <point x="553" y="833"/>
      <point x="576" y="864" type="qcurve"/>
    </contour>
  </outline>
</glyph>
<glyph name="logicalnot" format="2">
  <advance width="1152"/>
  <unicode hex="00AC"/>
  <outline>
    <contour>
      <point x="1078" y="747" type="line"/>
      <point x="1078" y="256" type="line"/>
      <point x="956" y="256" type="line"/>
      <point x="956" y="625" type="line"/>
      <point x="72" y="625" type="line"/>
      <point x="72" y="747" type="line"/>
    </contour>
  </outline>
</glyph>
<glyph name="registered" format="2">
  <advance width="1600"/>
  <unicode hex="00AE"/>
  <outline>
    <contour>
      <point x="52" y="716" type="qcurve" name="dh01"/>
      <point x="52" y="819"/>
      <point x="105" y="1010"/>
      <point x="202" y="1177"/>
      <point x="339" y="1313"/>
      <point x="505" y="1411"/>
      <point x="696" y="1464"/>
      <point x="799" y="1464" type="qcurve" name="at01"/>
      <point x="902" y="1464"/>
      <point x="1093" y="1411"/>
      <point x="1260" y="1313"/>
      <point x="1396" y="1177"/>
      <point x="1494" y="1010"/>
      <point x="1547" y="819"/>
      <point x="1547" y="716" type="qcurve" name="dh08"/>
      <point x="1547" y="613"/>
      <point x="1494" y="422"/>
      <point x="1396" y="256"/>
      <point x="1260" y="120"/>
      <point x="1093" y="23"/>
      <point x="902" y="-30"/>
      <point x="799" y="-30" type="qcurve" name="ab01"/>
      <point x="696" y="-30"/>
      <point x="505" y="23"/>
      <point x="339" y="120"/>
      <point x="202" y="256"/>
      <point x="105" y="422"/>
      <point x="52" y="613"/>
    </contour>
    <contour>
      <point x="134" y="717" type="qcurve" name="dh02"/>
      <point x="134" y="627"/>
      <point x="183" y="459"/>
      <point x="271" y="312"/>
      <point x="394" y="189"/>
      <point x="542" y="101"/>
      <point x="710" y="52"/>
      <point x="799" y="52" type="qcurve" name="sv01"/>
      <point x="888" y="52"/>
      <point x="1057" y="101"/>
      <point x="1205" y="189"/>
      <point x="1328" y="312"/>
      <point x="1416" y="459"/>
      <point x="1465" y="627"/>
      <point x="1465" y="717" type="qcurve" name="dh07"/>
      <point x="1465" y="806"/>
      <point x="1416" y="975"/>
      <point x="1328" y="1122"/>
      <point x="1205" y="1245"/>
      <point x="1057" y="1333"/>
      <point x="888" y="1382"/>
      <point x="799" y="1382" type="qcurve" name="sv02"/>
      <point x="710" y="1382"/>
      <point x="542" y="1333"/>
      <point x="394" y="1245"/>
      <point x="271" y="1122"/>
      <point x="183" y="974"/>
      <point x="134" y="806"/>
    </contour>
    <contour>
      <point x="534" y="1152" type="line" name="dh03"/>
      <point x="779" y="1152" type="line"/>
      <point x="934" y="1152"/>
      <point x="1092" y="1027"/>
      <point x="1092" y="912" type="qcurve" name="dh06"/>
      <point x="1092" y="860"/>
      <point x="1045" y="779"/>
      <point x="973" y="719"/>
      <point x="887" y="680"/>
      <point x="848" y="671" type="qcurve"/>
      <point x="848" y="667" type="line" name="ih01"/>
      <point x="1143" y="292" type="line" name="ih02"/>
      <point x="1010" y="274" type="line"/>
      <point x="750" y="649" type="line"/>
      <point x="656" y="649" type="line" name="sh01"/>
      <point x="656" y="292" type="line"/>
      <point x="534" y="292" type="line"/>
    </contour>
    <contour>
      <point x="656" y="1070" type="line" name="dh04"/>
      <point x="656" y="722" type="line"/>
      <point x="763" y="722" type="line"/>
      <point x="805" y="722"/>
      <point x="880" y="749"/>
      <point x="937" y="798"/>
      <point x="970" y="868"/>
      <point x="970" y="912" type="qcurve" name="dh05"/>
      <point x="970" y="954"/>
      <point x="944" y="1014"/>
      <point x="896" y="1052"/>
      <point x="830" y="1070"/>
      <point x="790" y="1070" type="qcurve"/>
    </contour>
  </outline>
</glyph>
<glyph name="macron" format="2">
  <advance width="768"/>
  <unicode hex="00AF"/>
  <outline>
    <contour>
      <point x="157" y="1364" type="line"/>
      <point x="631" y="1364" type="line"/>
      <point x="610" y="1242" type="line"/>
      <point x="136" y="1242" type="line"/>
    </contour>
  </outline>
</glyph>
<glyph name="degree" format="2">
  <advance width="768"/>
  <unicode hex="00B0"/>
  <outline>
    <contour>
      <point x="190" y="1272" type="qcurve"/>
      <point x="190" y="1231"/>
      <point x="220" y="1159"/>
      <point x="271" y="1106"/>
      <point x="341" y="1076"/>
      <point x="382" y="1076" type="qcurve"/>
      <point x="422" y="1076"/>
      <point x="494" y="1106"/>
      <point x="547" y="1159"/>
      <point x="578" y="1231"/>
      <point x="578" y="1272" type="qcurve"/>
      <point x="578" y="1311"/>
      <point x="547" y="1381"/>
      <point x="494" y="1433"/>
      <point x="422" y="1464"/>
      <point x="382" y="1464" type="qcurve"/>
      <point x="341" y="1464"/>
      <point x="271" y="1433"/>
      <point x="220" y="1381"/>
      <point x="190" y="1311"/>
    </contour>
    <contour>
      <point x="88" y="1271" type="qcurve"/>
      <point x="88" y="1331"/>
      <point x="133" y="1439"/>
      <point x="213" y="1519"/>
      <point x="321" y="1566"/>
      <point x="383" y="1566" type="qcurve"/>
      <point x="444" y="1566"/>
      <point x="552" y="1519"/>
      <point x="633" y="1439"/>
      <point x="680" y="1331"/>
      <point x="680" y="1271" type="qcurve"/>
      <point x="680" y="1207"/>
      <point x="633" y="1098"/>
      <point x="552" y="1019"/>
      <point x="444" y="974"/>
      <point x="383" y="974" type="qcurve"/>
      <point x="321" y="974"/>
      <point x="213" y="1019"/>
      <point x="133" y="1098"/>
      <point x="88" y="1207"/>
    </contour>
  </outline>
</glyph>
<glyph name="twosuperior" format="2">
  <advance width="736"/>
  <unicode hex="00B2"/>
  <outline>
    <contour>
      <point x="156" y="1362" type="line"/>
      <point x="196" y="1410"/>
      <point x="319" y="1464"/>
      <point x="385" y="1464" type="qcurve"/>
      <point x="436" y="1464"/>
      <point x="529" y="1434"/>
      <point x="599" y="1373"/>
      <point x="640" y="1281"/>
      <point x="640" y="1219" type="qcurve"/>
      <point x="640" y="1174"/>
      <point x="603" y="1069"/>
      <point x="519" y="939"/>
      <point x="381" y="776"/>
      <point x="280" y="671" type="qcurve"/>
      <point x="660" y="701" type="line"/>
      <point x="640" y="586" type="line"/>
      <point x="95" y="586" type="line"/>
      <point x="95" y="606" type="line"/>
      <point x="219" y="742"/>
      <point x="383" y="932"/>
      <point x="479" y="1070"/>
      <point x="518" y="1172"/>
      <point x="518" y="1221" type="qcurve"/>
      <point x="518" y="1284"/>
      <point x="448" y="1362"/>
      <point x="385" y="1362" type="qcurve"/>
      <point x="336" y="1362"/>
      <point x="262" y="1311"/>
      <point x="238" y="1280" type="qcurve"/>
    </contour>
  </outline>
</glyph>
<glyph name="threesuperior" format="2">
  <advance width="736"/>
  <unicode hex="00B3"/>
  <outline>
    <contour>
      <point x="178" y="770" type="line"/>
      <point x="205" y="732"/>
      <point x="288" y="688"/>
      <point x="348" y="688" type="qcurve"/>
      <point x="390" y="688"/>
      <point x="453" y="715"/>
      <point x="496" y="759"/>
      <point x="518" y="815"/>
      <point x="518" y="844" type="qcurve"/>
      <point x="518" y="882"/>
      <point x="493" y="950"/>
      <point x="446" y="1002"/>
      <point x="376" y="1032"/>
      <point x="331" y="1032" type="qcurve"/>
      <point x="264" y="1032" type="line"/>
      <point x="275" y="1134" type="line"/>
      <point x="326" y="1134" type="line"/>
      <point x="353" y="1134"/>
      <point x="405" y="1155"/>
      <point x="445" y="1190"/>
      <point x="470" y="1237"/>
      <point x="470" y="1263" type="qcurve"/>
      <point x="470" y="1308"/>
      <point x="419" y="1362"/>
      <point x="374" y="1362" type="qcurve"/>
      <point x="356" y="1362"/>
      <point x="318" y="1348"/>
      <point x="281" y="1326"/>
      <point x="249" y="1296"/>
      <point x="238" y="1280" type="qcurve"/>
      <point x="156" y="1362" type="line"/>
      <point x="168" y="1375"/>
      <point x="210" y="1410"/>
      <point x="264" y="1442"/>
      <point x="329" y="1464"/>
      <point x="364" y="1464" type="qcurve"/>
      <point x="414" y="1464"/>
      <point x="495" y="1434"/>
      <point x="552" y="1383"/>
      <point x="582" y="1313"/>
      <point x="582" y="1274" type="qcurve"/>
      <point x="582" y="1230"/>
      <point x="549" y="1168"/>
      <point x="502" y="1124"/>
      <point x="449" y="1099"/>
      <point x="429" y="1093" type="qcurve"/>
      <point x="429" y="1087" type="line"/>
      <point x="451" y="1082"/>
      <point x="523" y="1053"/>
      <point x="591" y="997"/>
      <point x="640" y="909"/>
      <point x="640" y="846" type="qcurve"/>
      <point x="640" y="792"/>
      <point x="599" y="697"/>
      <point x="523" y="627"/>
      <point x="415" y="586"/>
      <point x="348" y="586" type="qcurve"/>
      <point x="306" y="586"/>
      <point x="231" y="605"/>
      <point x="166" y="635"/>
      <point x="115" y="672"/>
      <point x="97" y="690" type="qcurve"/>
    </contour>
  </outline>
</glyph>
<glyph name="acute" format="2">
  <advance width="768"/>
  <unicode hex="00B4"/>
  <outline>
    <contour>
      <point x="221" y="1176" type="line"/>
      <point x="532" y="1521" type="line"/>
      <point x="562" y="1521" type="line"/>
      <point x="644" y="1434" type="line"/>
      <point x="644" y="1404" type="line"/>
      <point x="278" y="1116" type="line"/>
    </contour>
  </outline>
</glyph>
<glyph name="mu" format="2">
  <advance width="1024"/>
  <unicode hex="00B5"/>
  <outline>
    <contour>
      <point x="284" y="974" type="line"/>
      <point x="284" y="487" type="line"/>
      <point x="284" y="383"/>
      <point x="320" y="233"/>
      <point x="382" y="137"/>
      <point x="463" y="92"/>
      <point x="507" y="92" type="qcurve"/>
      <point x="551" y="92"/>
      <point x="629" y="137"/>
      <point x="688" y="233"/>
      <point x="722" y="383"/>
      <point x="722" y="487" type="qcurve"/>
      <point x="722" y="944" type="line"/>
      <point x="854" y="974" type="line"/>
      <point x="884" y="974" type="line"/>
      <point x="884" y="259" type="line"/>
      <point x="884" y="186"/>
      <point x="942" y="92"/>
      <point x="1002" y="92" type="qcurve"/>
      <point x="980" y="-30" type="line"/>
      <point x="917" y="-30"/>
      <point x="827" y="-1"/>
      <point x="768" y="43"/>
      <point x="737" y="97"/>
      <point x="732" y="122" type="qcurve"/>
      <point x="722" y="122" type="line"/>
      <point x="713" y="97"/>
      <point x="679" y="44"/>
      <point x="626" y="-1"/>
      <point x="554" y="-30"/>
      <point x="506" y="-30" type="qcurve"/>
      <point x="465" y="-30"/>
      <point x="396" y="-1"/>
      <point x="343" y="43"/>
      <point x="305" y="97"/>
      <point x="294" y="122" type="qcurve"/>
      <point x="284" y="122" type="line"/>
      <point x="284" y="-460" type="line"/>
      <point x="152" y="-490" type="line"/>
      <point x="122" y="-490" type="line"/>
      <point x="122" y="944" type="line"/>
      <point x="254" y="974" type="line"/>
    </contour>
  </outline>
</glyph>
<glyph name="paragraph" format="2">
  <advance width="1024"/>
  <unicode hex="00B6"/>
  <outline>
    <contour>
      <point x="922" y="1434" type="line"/>
      <point x="922" y="1332" type="line"/>
      <point x="808" y="1332" type="line"/>
      <point x="808" y="0" type="line"/>
      <point x="706" y="0" type="line"/>
      <point x="706" y="1332" type="line"/>
      <point x="560" y="1332" type="line"/>
      <point x="560" y="0" type="line"/>
      <point x="458" y="0" type="line"/>
      <point x="458" y="750" type="line"/>
      <point x="377" y="750"/>
      <point x="245" y="800"/>
      <point x="152" y="891"/>
      <point x="102" y="1017"/>
      <point x="102" y="1092" type="qcurve"/>
      <point x="102" y="1167"/>
      <point x="155" y="1293"/>
      <point x="253" y="1383"/>
      <point x="392" y="1434"/>
      <point x="478" y="1434" type="qcurve"/>
    </contour>
  </outline>
</glyph>
<glyph name="periodcentered" format="2">
  <advance width="576"/>
  <unicode hex="00B7"/>
  <outline>
    <contour>
      <point x="149" y="489" type="qcurve"/>
      <point x="149" y="517"/>
      <point x="170" y="567"/>
      <point x="208" y="604"/>
      <point x="257" y="626"/>
      <point x="286" y="626" type="qcurve"/>
      <point x="315" y="626"/>
      <point x="366" y="604"/>
      <point x="403" y="567"/>
      <point x="425" y="517"/>
      <point x="425" y="489" type="qcurve"/>
      <point x="425" y="460"/>
      <point x="403" y="409"/>
      <point x="366" y="371"/>
      <point x="315" y="350"/>
      <point x="286" y="350" type="qcurve"/>
      <point x="257" y="350"/>
      <point x="208" y="371"/>
      <point x="170" y="409"/>
      <point x="149" y="460"/>
    </contour>
  </outline>
</glyph>
<glyph name="cedilla" format="2">
  <advance width="768"/>
  <unicode hex="00B8"/>
  <outline>
    <contour>
      <point x="470" y="29" type="line"/>
      <point x="420" y="-110" type="line"/>
      <point x="449" y="-110"/>
      <point x="505" y="-135"/>
      <point x="550" y="-182"/>
      <point x="577" y="-250"/>
      <point x="577" y="-293" type="qcurve"/>
      <point x="577" y="-344"/>
      <point x="539" y="-418"/>
      <point x="477" y="-466"/>
      <point x="401" y="-490"/>
      <point x="364" y="-490" type="qcurve"/>
      <point x="329" y="-490"/>
      <point x="270" y="-476"/>
      <point x="224" y="-456"/>
      <point x="192" y="-433"/>
      <point x="183" y="-423" type="qcurve"/>
      <point x="237" y="-347" type="line"/>
      <point x="240" y="-352"/>
      <point x="258" y="-372"/>
      <point x="286" y="-393"/>
      <point x="323" y="-408"/>
      <point x="345" y="-408" type="qcurve"/>
      <point x="368" y="-408"/>
      <point x="408" y="-391"/>
      <point x="438" y="-361"/>
      <point x="455" y="-321"/>
      <point x="455" y="-298" type="qcurve"/>
      <point x="455" y="-276"/>
      <point x="438" y="-236"/>
      <point x="408" y="-207"/>
      <point x="368" y="-190"/>
      <point x="345" y="-190" type="qcurve"/>
      <point x="324" y="-190"/>
      <point x="298" y="-194"/>
      <point x="280" y="-199"/>
      <point x="268" y="-204"/>
      <point x="262" y="-206" type="qcurve"/>
      <point x="348" y="29" type="line"/>
    </contour>
  </outline>
</glyph>
<glyph name="onesuperior" format="2">
  <advance width="736"/>
  <unicode hex="00B9"/>
  <outline>
    <contour>
      <point x="488" y="1464" type="line"/>
      <point x="488" y="586" type="line"/>
      <point x="376" y="586" type="line"/>
      <point x="376" y="1339" type="line"/>
      <point x="370" y="1339" type="line"/>
      <point x="214" y="1309" type="line"/>
      <point x="202" y="1381" type="line"/>
      <point x="455" y="1464" type="line"/>
    </contour>
  </outline>
</glyph>
<glyph name="ordmasculine" format="2">
  <advance width="864"/>
  <unicode hex="00BA"/>
  <outline>
    <contour>
      <point x="432" y="1464" type="qcurve"/>
      <point x="517" y="1464"/>
      <point x="655" y="1403"/>
      <point x="753" y="1295"/>
      <point x="806" y="1145"/>
      <point x="806" y="1057" type="qcurve"/>
      <point x="806" y="968"/>
      <point x="753" y="818"/>
      <point x="655" y="710"/>
      <point x="517" y="649"/>
      <point x="432" y="649" type="qcurve"/>
      <point x="346" y="649"/>
      <point x="208" y="709"/>
      <point x="110" y="817"/>
      <point x="57" y="967"/>
      <point x="57" y="1057" type="qcurve"/>
      <point x="57" y="1145"/>
      <point x="110" y="1295"/>
      <point x="208" y="1403"/>
      <point x="346" y="1464"/>
    </contour>
    <contour>
      <point x="432" y="1362" type="qcurve"/>
      <point x="375" y="1362"/>
      <point x="282" y="1315"/>
      <point x="215" y="1233"/>
      <point x="179" y="1121"/>
      <point x="179" y="1057" type="qcurve"/>
      <point x="179" y="991"/>
      <point x="215" y="879"/>
      <point x="282" y="797"/>
      <point x="375" y="751"/>
      <point x="432" y="751" type="qcurve"/>
      <point x="489" y="751"/>
      <point x="582" y="798"/>
      <point x="648" y="880"/>
      <point x="684" y="992"/>
      <point x="684" y="1057" type="qcurve"/>
      <point x="684" y="1121"/>
      <point x="648" y="1233"/>
      <point x="582" y="1315"/>
      <point x="489" y="1362"/>
    </contour>
  </outline>
</glyph>
<glyph name="guillemotright" format="2">
  <advance width="1024"/>
  <unicode hex="00BB"/>
  <outline>
    <contour>
      <point x="524" y="487" type="line"/>
      <point x="196" y="68" type="line"/>
      <point x="94" y="98" type="line"/>
      <point x="360" y="487" type="line"/>
      <point x="94" y="876" type="line"/>
      <point x="196" y="906" type="line"/>
    </contour>
    <contour>
      <point x="922" y="487" type="line"/>
      <point x="594" y="68" type="line"/>
      <point x="492" y="98" type="line"/>
      <point x="758" y="487" type="line"/>
      <point x="492" y="876" type="line"/>
      <point x="594" y="906" type="line"/>
    </contour>
  </outline>
</glyph>
<glyph name="questiondown" format="2">
  <advance width="1024"/>
  <unicode hex="00BF"/>
  <outline>
    <contour>
      <point x="842" y="125" type="line"/>
      <point x="778" y="47"/>
      <point x="616" y="-30"/>
      <point x="522" y="-30" type="qcurve"/>
      <point x="462" y="-30"/>
      <point x="343" y="12"/>
      <point x="250" y="91"/>
      <point x="192" y="203"/>
      <point x="192" y="273" type="qcurve"/>
      <point x="192" y="339"/>
      <point x="225" y="436"/>
      <point x="288" y="516"/>
      <point x="381" y="591"/>
      <point x="440" y="635" type="qcurve"/>
      <point x="489" y="672"/>
      <point x="557" y="729"/>
      <point x="599" y="778"/>
      <point x="618" y="823"/>
      <point x="618" y="847" type="qcurve"/>
      <point x="618" y="878"/>
      <point x="601" y="923"/>
      <point x="574" y="953"/>
      <point x="539" y="967"/>
      <point x="522" y="967" type="qcurve"/>
      <point x="483" y="967"/>
      <point x="445" y="949"/>
      <point x="428" y="933" type="qcurve"/>
      <point x="354" y="1006" type="line"/>
      <point x="383" y="1032"/>
      <point x="475" y="1069"/>
      <point x="522" y="1069" type="qcurve"/>
      <point x="563" y="1069"/>
      <point x="641" y="1042"/>
      <point x="703" y="987"/>
      <point x="740" y="903"/>
      <point x="740" y="846" type="qcurve"/>
      <point x="740" y="802"/>
      <point x="705" y="717"/>
      <point x="645" y="635"/>
      <point x="565" y="558"/>
      <point x="520" y="522" type="qcurve"/>
      <point x="472" y="483"/>
      <point x="409" y="421"/>
      <point x="370" y="362"/>
      <point x="354" y="301"/>
      <point x="354" y="264" type="qcurve"/>
      <point x="354" y="216"/>
      <point x="383" y="144"/>
      <point x="430" y="96"/>
      <point x="490" y="72"/>
      <point x="522" y="72" type="qcurve"/>
      <point x="553" y="72"/>
      <point x="616" y="92"/>
      <point x="673" y="132"/>
      <point x="722" y="189"/>
      <point x="740" y="227" type="qcurve"/>
    </contour>
    <contour>
      <point x="409" y="1321" type="qcurve"/>
      <point x="409" y="1344"/>
      <point x="427" y="1385"/>
      <point x="458" y="1416"/>
      <point x="499" y="1434"/>
      <point x="522" y="1434" type="qcurve"/>
      <point x="545" y="1434"/>
      <point x="586" y="1416"/>
      <point x="617" y="1385"/>
      <point x="635" y="1344"/>
      <point x="635" y="1321" type="qcurve"/>
      <point x="635" y="1298"/>
      <point x="617" y="1257"/>
      <point x="586" y="1226"/>
      <point x="545" y="1208"/>
      <point x="522" y="1208" type="qcurve"/>
      <point x="499" y="1208"/>
      <point x="458" y="1226"/>
      <point x="427" y="1257"/>
      <point x="409" y="1298"/>
    </contour>
  </outline>
</glyph>
<glyph name="AE" format="2">
  <advance width="1760"/>
  <unicode hex="00C6"/>
  <outline>
    <contour>
      <point x="880" y="1434" type="line"/>
      <point x="1684" y="1434" type="line"/>
      <point x="1658" y="1292" type="line"/>
      <point x="1062" y="1312" type="line"/>
      <point x="1062" y="829" type="line"/>
      <point x="1577" y="829" type="line"/>
      <point x="1555" y="707" type="line"/>
      <point x="1062" y="707" type="line"/>
      <point x="1062" y="121" type="line"/>
      <point x="1684" y="142" type="line"/>
      <point x="1659" y="0" type="line"/>
      <point x="880" y="0" type="line"/>
      <point x="880" y="365" type="line"/>
      <point x="400" y="365" type="line"/>
      <point x="172" y="-30" type="line"/>
      <point x="52" y="0" type="line"/>
    </contour>
    <contour>
      <point x="860" y="1163" type="line"/>
      <point x="471" y="487" type="line"/>
      <point x="880" y="487" type="line"/>
      <point x="880" y="1163" type="line"/>
    </contour>
  </outline>
</glyph>
<glyph name="Ccedilla" format="2">
  <advance width="1344"/>
  <unicode hex="00C7"/>
  <outline>
    <contour>
      <point x="1157" y="1112" type="line"/>
      <point x="1136" y="1149"/>
      <point x="1067" y="1230"/>
      <point x="971" y="1298"/>
      <point x="848" y="1342"/>
      <point x="772" y="1342" type="qcurve"/>
      <point x="683" y="1342"/>
      <point x="506" y="1266"/>
      <point x="363" y="1111"/>
      <point x="274" y="876"/>
      <point x="274" y="717" type="qcurve"/>
      <point x="274" y="558"/>
      <point x="363" y="323"/>
      <point x="506" y="168"/>
      <point x="683" y="92"/>
      <point x="772" y="92" type="qcurve"/>
      <point x="848" y="92"/>
      <point x="971" y="137"/>
      <point x="1067" y="205"/>
      <point x="1136" y="286"/>
      <point x="1157" y="322" type="qcurve"/>
      <point x="1274" y="204" type="line"/>
      <point x="1230" y="153"/>
      <point x="1122" y="68"/>
      <point x="994" y="5"/>
      <point x="851" y="-30"/>
      <point x="773" y="-30" type="qcurve"/>
      <point x="744" y="-110" type="line"/>
      <point x="777" y="-110"/>
      <point x="834" y="-135"/>
      <point x="876" y="-182"/>
      <point x="901" y="-250"/>
      <point x="901" y="-293" type="qcurve"/>
      <point x="901" y="-344"/>
      <point x="863" y="-418"/>
      <point x="801" y="-466"/>
      <point x="725" y="-490"/>
      <point x="688" y="-490" type="qcurve"/>
      <point x="653" y="-490"/>
      <point x="594" y="-476"/>
      <point x="548" y="-456"/>
      <point x="516" y="-433"/>
      <point x="507" y="-423" type="qcurve"/>
      <point x="561" y="-347" type="line"/>
      <point x="564" y="-352"/>
      <point x="582" y="-372"/>
      <point x="610" y="-393"/>
      <point x="647" y="-408"/>
      <point x="669" y="-408" type="qcurve"/>
      <point x="692" y="-408"/>
      <point x="732" y="-391"/>
      <point x="762" y="-361"/>
      <point x="779" y="-321"/>
      <point x="779" y="-298" type="qcurve"/>
      <point x="779" y="-276"/>
      <point x="762" y="-236"/>
      <point x="732" y="-207"/>
      <point x="692" y="-190"/>
      <point x="669" y="-190" type="qcurve"/>
      <point x="648" y="-190"/>
      <point x="622" y="-194"/>
      <point x="604" y="-199"/>
      <point x="592" y="-204"/>
      <point x="586" y="-206" type="qcurve"/>
      <point x="654" y="-19" type="line"/>
      <point x="540" y="2"/>
      <point x="332" y="123"/>
      <point x="175" y="312"/>
      <point x="82" y="564"/>
      <point x="82" y="717" type="qcurve"/>
      <point x="82" y="832"/>
      <point x="136" y="1032"/>
      <point x="231" y="1198"/>
      <point x="361" y="1328"/>
      <point x="514" y="1417"/>
      <point x="684" y="1464"/>
      <point x="772" y="1464" type="qcurve"/>
      <point x="850" y="1464"/>
      <point x="993" y="1429"/>
      <point x="1121" y="1366"/>
      <point x="1230" y="1281"/>
      <point x="1274" y="1230" type="qcurve"/>
    </contour>
  </outline>
</glyph>
<glyph name="Oslash" format="2">
  <advance width="1600"/>
  <unicode hex="00D8"/>
  <outline>
    <contour>
      <point x="100" y="717" type="qcurve"/>
      <point x="100" y="832"/>
      <point x="155" y="1032"/>
      <point x="252" y="1198"/>
      <point x="385" y="1328"/>
      <point x="541" y="1417"/>
      <point x="712" y="1464"/>
      <point x="800" y="1464" type="qcurve"/>
      <point x="861" y="1464"/>
      <point x="981" y="1441"/>
      <point x="1039" y="1419" type="qcurve"/>
      <point x="1103" y="1559" type="line"/>
      <point x="1246" y="1529" type="line"/>
      <point x="1167" y="1354" type="line"/>
      <point x="1239" y="1308"/>
      <point x="1361" y="1179"/>
      <point x="1450" y="1018"/>
      <point x="1500" y="826"/>
      <point x="1500" y="717" type="qcurve"/>
      <point x="1500" y="602"/>
      <point x="1445" y="402"/>
      <point x="1348" y="236"/>
      <point x="1215" y="106"/>
      <point x="1059" y="17"/>
      <point x="887" y="-30"/>
      <point x="800" y="-30" type="qcurve"/>
      <point x="739" y="-30"/>
      <point x="618" y="-7"/>
      <point x="560" y="15" type="qcurve"/>
      <point x="497" y="-125" type="line"/>
      <point x="354" y="-95" type="line"/>
      <point x="433" y="79" type="line"/>
      <point x="361" y="125"/>
      <point x="238" y="254"/>
      <point x="150" y="415"/>
      <point x="100" y="607"/>
    </contour>
    <contour>
      <point x="800" y="92" type="qcurve"/>
      <point x="859" y="92"/>
      <point x="980" y="126"/>
      <point x="1093" y="194"/>
      <point x="1192" y="297"/>
      <point x="1266" y="436"/>
      <point x="1308" y="611"/>
      <point x="1308" y="717" type="qcurve"/>
      <point x="1308" y="806"/>
      <point x="1278" y="957"/>
      <point x="1224" y="1083"/>
      <point x="1150" y="1184"/>
      <point x="1107" y="1222" type="qcurve"/>
      <point x="614" y="133" type="line"/>
      <point x="710" y="92"/>
    </contour>
    <contour>
      <point x="292" y="717" type="qcurve"/>
      <point x="292" y="628"/>
      <point x="322" y="476"/>
      <point x="375" y="349"/>
      <point x="449" y="249"/>
      <point x="493" y="212" type="qcurve"/>
      <point x="986" y="1300" type="line"/>
      <point x="894" y="1342"/>
      <point x="800" y="1342" type="qcurve"/>
      <point x="711" y="1342"/>
      <point x="531" y="1266"/>
      <point x="384" y="1111"/>
      <point x="292" y="876"/>
    </contour>
  </outline>
</glyph>
<glyph name="ae" format="2">
  <advance width="1600"/>
  <unicode hex="00E6"/>
  <outline>
    <contour>
      <point x="858" y="487" type="line"/>
      <point x="858" y="373"/>
      <point x="909" y="215"/>
      <point x="996" y="116"/>
      <point x="1109" y="72"/>
      <point x="1171" y="72" type="qcurve"/>
      <point x="1220" y="72"/>
      <point x="1295" y="103"/>
      <point x="1352" y="149"/>
      <point x="1393" y="204"/>
      <point x="1407" y="227" type="qcurve"/>
      <point x="1508" y="125" type="line"/>
      <point x="1492" y="106"/>
      <point x="1433" y="53"/>
      <point x="1347" y="4"/>
      <point x="1235" y="-30"/>
      <point x="1166" y="-30" type="qcurve"/>
      <point x="881" y="-30"/>
      <point x="760" y="195" type="qcurve"/>
      <point x="750" y="195" type="line"/>
      <point x="702" y="139"/>
      <point x="618" y="55"/>
      <point x="528" y="-2"/>
      <point x="423" y="-30"/>
      <point x="354" y="-30" type="qcurve"/>
      <point x="294" y="-30"/>
      <point x="197" y="10"/>
      <point x="129" y="83"/>
      <point x="92" y="184"/>
      <point x="92" y="245" type="qcurve"/>
      <point x="92" y="330"/>
      <point x="162" y="459"/>
      <point x="309" y="547"/>
      <point x="538" y="595"/>
      <point x="696" y="599" type="qcurve"/>
      <point x="696" y="667" type="line"/>
      <point x="696" y="727"/>
      <point x="663" y="816"/>
      <point x="607" y="874"/>
      <point x="534" y="902"/>
      <point x="494" y="902" type="qcurve"/>
      <point x="401" y="902"/>
      <point x="276" y="817"/>
      <point x="234" y="747" type="qcurve"/>
      <point x="132" y="849" type="line"/>
      <point x="204" y="928"/>
      <point x="379" y="1004"/>
      <point x="494" y="1004" type="qcurve"/>
      <point x="541" y="1004"/>
      <point x="632" y="983"/>
      <point x="714" y="942"/>
      <point x="784" y="883"/>
      <point x="810" y="844" type="qcurve"/>
      <point x="873" y="920"/>
      <point x="1030" y="1004"/>
      <point x="1133" y="1004" type="qcurve"/>
      <point x="1217" y="1004"/>
      <point x="1364" y="944"/>
      <point x="1474" y="817"/>
      <point x="1538" y="622"/>
      <point x="1538" y="487" type="qcurve"/>
    </contour>
    <contour>
      <point x="696" y="537" type="line"/>
      <point x="576" y="534"/>
      <point x="408" y="490"/>
      <point x="302" y="417"/>
      <point x="254" y="316"/>
      <point x="254" y="256" type="qcurve"/>
      <point x="254" y="208"/>
      <point x="282" y="138"/>
      <point x="326" y="93"/>
      <point x="377" y="72"/>
      <point x="401" y="72" type="qcurve"/>
      <point x="450" y="72"/>
      <point x="533" y="93"/>
      <point x="604" y="133"/>
      <point x="667" y="194"/>
      <point x="696" y="233" type="qcurve"/>
    </contour>
    <contour>
      <point x="1386" y="589" type="line"/>
      <point x="1386" y="649"/>
      <point x="1353" y="762"/>
      <point x="1288" y="849"/>
      <point x="1190" y="902"/>
      <point x="1125" y="902" type="qcurve"/>
      <point x="1063" y="902"/>
      <point x="967" y="853"/>
      <point x="900" y="769"/>
      <point x="862" y="655"/>
      <point x="858" y="589" type="qcurve"/>
    </contour>
  </outline>
</glyph>
<glyph name="ccedilla" format="2">
  <advance width="1024"/>
  <unicode hex="00E7"/>
  <outline>
    <contour>
      <point x="840" y="747" type="line"/>
      <point x="827" y="768"/>
      <point x="780" y="822"/>
      <point x="715" y="869"/>
      <point x="631" y="902"/>
      <point x="580" y="902" type="qcurve"/>
      <point x="509" y="902"/>
      <point x="389" y="837"/>
      <point x="302" y="724"/>
      <point x="254" y="573"/>
      <point x="254" y="487" type="qcurve"/>
      <point x="254" y="400"/>
      <point x="302" y="249"/>
      <point x="389" y="137"/>
      <point x="508" y="72"/>
      <point x="580" y="72" type="qcurve"/>
      <point x="631" y="72"/>
      <point x="715" y="105"/>
      <point x="780" y="152"/>
      <point x="827" y="206"/>
      <point x="840" y="227" type="qcurve"/>
      <point x="942" y="125" type="line"/>
      <point x="916" y="96"/>
      <point x="844" y="41"/>
      <point x="754" y="-3"/>
      <point x="644" y="-30"/>
      <point x="580" y="-30" type="qcurve"/>
      <point x="551" y="-110" type="line"/>
      <point x="584" y="-110"/>
      <point x="641" y="-135"/>
      <point x="683" y="-182"/>
      <point x="708" y="-250"/>
      <point x="708" y="-293" type="qcurve"/>
      <point x="708" y="-344"/>
      <point x="670" y="-418"/>
      <point x="608" y="-466"/>
      <point x="532" y="-490"/>
      <point x="495" y="-490" type="qcurve"/>
      <point x="460" y="-490"/>
      <point x="401" y="-476"/>
      <point x="355" y="-456"/>
      <point x="323" y="-433"/>
      <point x="314" y="-423" type="qcurve"/>
      <point x="368" y="-347" type="line"/>
      <point x="371" y="-352"/>
      <point x="389" y="-372"/>
      <point x="417" y="-393"/>
      <point x="454" y="-408"/>
      <point x="476" y="-408" type="qcurve"/>
      <point x="499" y="-408"/>
      <point x="539" y="-391"/>
      <point x="569" y="-361"/>
      <point x="586" y="-321"/>
      <point x="586" y="-298" type="qcurve"/>
      <point x="586" y="-276"/>
      <point x="569" y="-236"/>
      <point x="539" y="-207"/>
      <point x="499" y="-190"/>
      <point x="476" y="-190" type="qcurve"/>
      <point x="455" y="-190"/>
      <point x="429" y="-194"/>
      <point x="411" y="-199"/>
      <point x="399" y="-204"/>
      <point x="393" y="-206" type="qcurve"/>
      <point x="462" y="-16" type="line"/>
      <point x="378" y="3"/>
      <point x="238" y="93"/>
      <point x="138" y="225"/>
      <point x="82" y="391"/>
      <point x="82" y="487" type="qcurve"/>
      <point x="82" y="598"/>
      <point x="158" y="788"/>
      <point x="292" y="926"/>
      <point x="474" y="1004"/>
      <point x="580" y="1004" type="qcurve"/>
      <point x="644" y="1004"/>
      <point x="754" y="976"/>
      <point x="845" y="932"/>
      <point x="916" y="877"/>
      <point x="942" y="849" type="qcurve"/>
    </contour>
  </outline>
</glyph>
<glyph name="eth" format="2">
  <advance width="1120"/>
  <unicode hex="00F0"/>
  <outline>
    <contour>
      <point x="1012" y="611" type="qcurve"/>
      <point x="1012" y="449"/>
      <point x="929" y="207"/>
      <point x="794" y="47"/>
      <point x="623" y="-32"/>
      <point x="535" y="-32" type="qcurve"/>
      <point x="451" y="-32"/>
      <point x="296" y="28"/>
      <point x="178" y="142"/>
      <point x="108" y="306"/>
      <point x="108" y="410" type="qcurve"/>
      <point x="108" y="506"/>
      <point x="170" y="668"/>
      <point x="282" y="784"/>
      <point x="439" y="849"/>
      <point x="535" y="849" type="qcurve"/>
      <point x="577" y="849"/>
      <point x="663" y="826"/>
      <point x="743" y="779"/>
      <point x="814" y="707"/>
      <point x="840" y="659" type="qcurve"/>
      <point x="850" y="659" type="line"/>
      <point x="850" y="705"/>
      <point x="843" y="826"/>
      <point x="816" y="956"/>
      <point x="761" y="1087"/>
      <point x="713" y="1143" type="qcurve"/>
      <point x="548" y="1005" type="line"/>
      <point x="468" y="1099" type="line"/>
      <point x="634" y="1238" type="line"/>
      <point x="513" y="1381" type="line"/>
      <point x="611" y="1464" type="line"/>
      <point x="733" y="1321" type="line"/>
      <point x="903" y="1464" type="line"/>
      <point x="982" y="1369" type="line"/>
      <point x="813" y="1227" type="line"/>
      <point x="851" y="1180"/>
      <point x="923" y="1046"/>
      <point x="978" y="886"/>
      <point x="1012" y="705"/>
    </contour>
    <contour>
      <point x="535" y="747" type="qcurve"/>
      <point x="479" y="747"/>
      <point x="385" y="695"/>
      <point x="317" y="604"/>
      <point x="280" y="481"/>
      <point x="280" y="410" type="qcurve"/>
      <point x="280" y="335"/>
      <point x="317" y="210"/>
      <point x="385" y="120"/>
      <point x="479" y="70"/>
      <point x="535" y="70" type="qcurve"/>
      <point x="595" y="70"/>
      <point x="699" y="123"/>
      <point x="776" y="219"/>
      <point x="820" y="351"/>
      <point x="820" y="430" type="qcurve"/>
      <point x="820" y="486"/>
      <point x="779" y="599"/>
      <point x="704" y="690"/>
      <point x="599" y="747"/>
    </contour>
  </outline>
</glyph>
<glyph name="oslash" format="2">
  <advance width="1120"/>
  <unicode hex="00F8"/>
  <outline>
    <contour>
      <point x="560" y="1004" type="qcurve"/>
      <point x="608" y="1004"/>
      <point x="693" y="988"/>
      <point x="733" y="974" type="qcurve"/>
      <point x="793" y="1099" type="line"/>
      <point x="896" y="1069" type="line"/>
      <point x="828" y="926" type="line"/>
      <point x="879" y="893"/>
      <point x="960" y="801"/>
      <point x="1017" y="689"/>
      <point x="1048" y="559"/>
      <point x="1048" y="487" type="qcurve"/>
      <point x="1048" y="376"/>
      <point x="976" y="186"/>
      <point x="846" y="48"/>
      <point x="667" y="-30"/>
      <point x="560" y="-30" type="qcurve"/>
      <point x="512" y="-30"/>
      <point x="426" y="-14"/>
      <point x="386" y="0" type="qcurve"/>
      <point x="327" y="-125" type="line"/>
      <point x="224" y="-95" type="line"/>
      <point x="292" y="47" type="line"/>
      <point x="189" y="114"/>
      <point x="72" y="340"/>
      <point x="72" y="487" type="qcurve"/>
      <point x="72" y="598"/>
      <point x="144" y="788"/>
      <point x="274" y="926"/>
      <point x="453" y="1004"/>
    </contour>
    <contour>
      <point x="560" y="902" type="qcurve"/>
      <point x="489" y="902"/>
      <point x="372" y="837"/>
      <point x="289" y="724"/>
      <point x="244" y="573"/>
      <point x="244" y="487" type="qcurve"/>
      <point x="244" y="390"/>
      <point x="299" y="226"/>
      <point x="350" y="169" type="qcurve"/>
      <point x="685" y="872" type="line"/>
      <point x="656" y="886"/>
      <point x="594" y="902"/>
    </contour>
    <contour>
      <point x="560" y="72" type="qcurve"/>
      <point x="631" y="72"/>
      <point x="748" y="137"/>
      <point x="831" y="249"/>
      <point x="876" y="401"/>
      <point x="876" y="487" type="qcurve"/>
      <point x="876" y="584"/>
      <point x="821" y="747"/>
      <point x="770" y="804" type="qcurve"/>
      <point x="435" y="102" type="line"/>
      <point x="490" y="72"/>
    </contour>
  </outline>
</glyph>
<glyph name="thorn" format="2">
  <advance width="1120"/>
  <unicode hex="00FE"/>
  <outline>
    <contour>
      <point x="304" y="1464" type="line"/>
      <point x="304" y="894" type="line"/>
      <point x="326" y="916"/>
      <point x="391" y="956"/>
      <point x="464" y="986"/>
      <point x="542" y="1004"/>
      <point x="577" y="1004" type="qcurve"/>
      <point x="680" y="1004"/>
      <point x="850" y="927"/>
      <point x="971" y="789"/>
      <point x="1038" y="599"/>
      <point x="1038" y="487" type="qcurve"/>
      <point x="1038" y="378"/>
      <point x="972" y="189"/>
      <point x="850" y="50"/>
      <point x="674" y="-30"/>
      <point x="565" y="-30" type="qcurve"/>
      <point x="527" y="-30"/>
      <point x="453" y="-13"/>
      <point x="385" y="15"/>
      <point x="326" y="52"/>
      <point x="304" y="72" type="qcurve"/>
      <point x="304" y="-460" type="line"/>
      <point x="172" y="-490" type="line"/>
      <point x="142" y="-490" type="line"/>
      <point x="142" y="1434" type="line"/>
      <point x="274" y="1464" type="line"/>
    </contour>
    <contour>
      <point x="554" y="72" type="qcurve"/>
      <point x="623" y="72"/>
      <point x="737" y="135"/>
      <point x="820" y="247"/>
      <point x="866" y="398"/>
      <point x="866" y="487" type="qcurve"/>
      <point x="866" y="578"/>
      <point x="817" y="731"/>
      <point x="732" y="841"/>
      <point x="619" y="902"/>
      <point x="555" y="902" type="qcurve"/>
      <point x="513" y="902"/>
      <point x="435" y="880"/>
      <point x="369" y="845"/>
      <point x="318" y="803"/>
      <point x="304" y="784" type="qcurve"/>
      <point x="304" y="190" type="line"/>
      <point x="319" y="172"/>
      <point x="368" y="131"/>
      <point x="433" y="95"/>
      <point x="510" y="72"/>
    </contour>
  </outline>
</glyph>
<glyph name="Aogonek" format="2">
  <advance width="1344"/>
  <unicode hex="0104"/>
  <outline>
    <contour>
      <point x="1085" y="-30" type="line"/>
      <point x="925" y="365" type="line"/>
      <point x="339" y="365" type="line"/>
      <point x="179" y="-30" type="line"/>
      <point x="59" y="0" type="line"/>
      <point x="650" y="1464" type="line"/>
      <point x="694" y="1464" type="line"/>
      <point x="1285" y="0" type="line"/>
      <point x="1234" y="-38"/>
      <point x="1165" y="-94"/>
      <point x="1122" y="-143"/>
      <point x="1103" y="-191"/>
      <point x="1103" y="-222" type="qcurve"/>
      <point x="1103" y="-245"/>
      <point x="1120" y="-284"/>
      <point x="1148" y="-312"/>
      <point x="1183" y="-328"/>
      <point x="1201" y="-328" type="qcurve"/>
      <point x="1216" y="-328"/>
      <point x="1237" y="-326"/>
      <point x="1256" y="-320"/>
      <point x="1274" y="-310"/>
      <point x="1285" y="-302" type="qcurve"/>
      <point x="1306" y="-419" type="line"/>
      <point x="1280" y="-432"/>
      <point x="1222" y="-440"/>
      <point x="1193" y="-440" type="qcurve"/>
      <point x="1152" y="-440"/>
      <point x="1078" y="-408"/>
      <point x="1023" y="-353"/>
      <point x="991" y="-280"/>
      <point x="991" y="-239" type="qcurve"/>
      <point x="991" y="-213"/>
      <point x="1003" y="-161"/>
      <point x="1038" y="-108"/>
      <point x="1102" y="-51"/>
      <point x="1155" y="-19" type="qcurve"/>
    </contour>
    <contour>
      <point x="627" y="1102" type="line"/>
      <point x="388" y="487" type="line"/>
      <point x="875" y="487" type="line"/>
      <point x="637" y="1102" type="line"/>
    </contour>
  </outline>
</glyph>
<glyph name="aogonek" format="2">
  <advance width="1120"/>
  <unicode hex="0105"/>
  <anchor x="532" y="1100" name="AccentDefault"/>
  <outline>
    <contour>
      <point x="1030" y="-419" type="line"/>
      <point x="1004" y="-432"/>
      <point x="946" y="-440"/>
      <point x="917" y="-440" type="qcurve"/>
      <point x="876" y="-440"/>
      <point x="802" y="-408"/>
      <point x="747" y="-353"/>
      <point x="715" y="-280"/>
      <point x="715" y="-239" type="qcurve"/>
      <point x="715" y="-195"/>
      <point x="750" y="-122"/>
      <point x="805" y="-62"/>
      <point x="874" y="-15"/>
      <point x="907" y="3" type="qcurve"/>
      <point x="871" y="26"/>
      <point x="827" y="101"/>
      <point x="818" y="142" type="qcurve"/>
      <point x="808" y="142" type="line"/>
      <point x="784" y="115"/>
      <point x="708" y="55"/>
      <point x="611" y="4"/>
      <point x="496" y="-30"/>
      <point x="435" y="-30" type="qcurve"/>
      <point x="371" y="-30"/>
      <point x="258" y="4"/>
      <point x="173" y="69"/>
      <point x="124" y="164"/>
      <point x="124" y="225" type="qcurve"/>
      <point x="124" y="313"/>
      <point x="218" y="449"/>
      <point x="395" y="541"/>
      <point x="649" y="589"/>
      <point x="808" y="589" type="qcurve"/>
      <point x="808" y="637" type="line"/>
      <point x="808" y="716"/>
      <point x="762" y="819"/>
      <point x="691" y="879"/>
      <point x="605" y="902"/>
      <point x="565" y="902" type="qcurve"/>
      <point x="525" y="902"/>
      <point x="440" y="879"/>
      <point x="358" y="839"/>
      <point x="284" y="781"/>
      <point x="255" y="747" type="qcurve"/>
      <point x="153" y="849" type="line"/>
      <point x="234" y="925"/>
      <point x="450" y="1004"/>
      <point x="565" y="1004" type="qcurve"/>
      <point x="640" y="1004"/>
      <point x="785" y="960"/>
      <point x="899" y="862"/>
      <point x="970" y="708"/>
      <point x="970" y="597" type="qcurve"/>
      <point x="970" y="174" type="line"/>
      <point x="970" y="72"/>
      <point x="1048" y="72" type="qcurve"/>
      <point x="1030" y="-30" type="line"/>
      <point x="1015" y="-30"/>
      <point x="988" y="-27"/>
      <point x="975" y="-25" type="qcurve"/>
      <point x="930" y="-62"/>
      <point x="872" y="-115"/>
      <point x="839" y="-159"/>
      <point x="827" y="-199"/>
      <point x="827" y="-222" type="qcurve"/>
      <point x="827" y="-245"/>
      <point x="844" y="-284"/>
      <point x="872" y="-312"/>
      <point x="907" y="-328"/>
      <point x="925" y="-328" type="qcurve"/>
      <point x="940" y="-328"/>
      <point x="961" y="-326"/>
      <point x="980" y="-320"/>
      <point x="998" y="-310"/>
      <point x="1009" y="-302" type="qcurve"/>
    </contour>
    <contour>
      <point x="808" y="507" type="line"/>
      <point x="763" y="507"/>
      <point x="651" y="501"/>
      <point x="535" y="482"/>
      <point x="425" y="447"/>
      <point x="338" y="389"/>
      <point x="286" y="305"/>
      <point x="286" y="246" type="qcurve"/>
      <point x="286" y="164"/>
      <point x="384" y="72"/>
      <point x="472" y="72" type="qcurve"/>
      <point x="523" y="72"/>
      <point x="619" y="104"/>
      <point x="705" y="157"/>
      <point x="779" y="226"/>
      <point x="808" y="263" type="qcurve"/>
    </contour>
  </outline>
</glyph>
<glyph name="dcroat" format="2">
  <advance width="1120"/>
  <unicode hex="0111"/>
  <outline>
    <contour>
      <point x="818" y="1464" type="line"/>
      <point x="950" y="1494" type="line"/>
      <point x="980" y="1494" type="line"/>
      <point x="980" y="1292" type="line"/>
      <point x="1120" y="1292" type="line"/>
      <point x="1097" y="1160" type="line"/>
      <point x="980" y="1166" type="line"/>
      <point x="980" y="179" type="line"/>
      <point x="980" y="125"/>
      <point x="1016" y="72"/>
      <point x="1058" y="72" type="qcurve"/>
      <point x="1040" y="-30" type="line"/>
      <point x="982" y="-30"/>
      <point x="904" y="7"/>
      <point x="856" y="60"/>
      <point x="832" y="119"/>
      <point x="828" y="142" type="qcurve"/>
      <point x="818" y="142" type="line"/>
      <point x="798" y="114"/>
      <point x="744" y="54"/>
      <point x="671" y="3"/>
      <point x="576" y="-30"/>
      <point x="515" y="-30" type="qcurve"/>
      <point x="431" y="-30"/>
      <point x="275" y="40"/>
      <point x="155" y="172"/>
      <point x="82" y="365"/>
      <point x="82" y="488" type="qcurve"/>
      <point x="82" y="594"/>
      <point x="153" y="782"/>
      <point x="274" y="922"/>
      <point x="435" y="1004"/>
      <point x="524" y="1004" type="qcurve"/>
      <point x="568" y="1004"/>
      <point x="650" y="986"/>
      <point x="724" y="957"/>
      <point x="785" y="921"/>
      <point x="808" y="902" type="qcurve"/>
      <point x="818" y="902" type="line"/>
      <point x="818" y="1175" type="line"/>
      <point x="552" y="1190" type="line"/>
      <point x="570" y="1292" type="line"/>
      <point x="818" y="1292" type="line"/>
    </contour>
    <contour>
      <point x="818" y="785" type="line"/>
      <point x="799" y="806"/>
      <point x="747" y="848"/>
      <point x="681" y="881"/>
      <point x="601" y="902"/>
      <point x="555" y="902" type="qcurve"/>
      <point x="492" y="902"/>
      <point x="383" y="844"/>
      <point x="301" y="736"/>
      <point x="254" y="583"/>
      <point x="254" y="489" type="qcurve"/>
      <point x="254" y="375"/>
      <point x="306" y="217"/>
      <point x="389" y="117"/>
      <point x="493" y="72"/>
      <point x="545" y="72" type="qcurve"/>
      <point x="592" y="72"/>
      <point x="673" y="105"/>
      <point x="742" y="158"/>
      <point x="797" y="227"/>
      <point x="818" y="263" type="qcurve"/>
    </contour>
  </outline>
</glyph>
<glyph name="Eogonek" format="2">
  <advance width="1088"/>
  <unicode hex="0118"/>
  <anchor x="554" y="1600" name="AccentDefault"/>
  <outline>
    <contour>
      <point x="182" y="1434" type="line"/>
      <point x="986" y="1434" type="line"/>
      <point x="961" y="1292" type="line"/>
      <point x="364" y="1312" type="line"/>
      <point x="364" y="839" type="line"/>
      <point x="879" y="839" type="line"/>
      <point x="857" y="717" type="line"/>
      <point x="364" y="717" type="line"/>
      <point x="364" y="122" type="line"/>
      <point x="986" y="142" type="line"/>
      <point x="961" y="0" type="line"/>
      <point x="908" y="0" type="line"/>
      <point x="857" y="-38"/>
      <point x="788" y="-94"/>
      <point x="745" y="-143"/>
      <point x="726" y="-191"/>
      <point x="726" y="-222" type="qcurve"/>
      <point x="726" y="-245"/>
      <point x="743" y="-284"/>
      <point x="771" y="-312"/>
      <point x="806" y="-328"/>
      <point x="824" y="-328" type="qcurve"/>
      <point x="839" y="-328"/>
      <point x="860" y="-326"/>
      <point x="879" y="-320"/>
      <point x="897" y="-310"/>
      <point x="908" y="-302" type="qcurve"/>
      <point x="929" y="-419" type="line"/>
      <point x="903" y="-432"/>
      <point x="845" y="-440"/>
      <point x="816" y="-440" type="qcurve"/>
      <point x="775" y="-440"/>
      <point x="701" y="-408"/>
      <point x="646" y="-353"/>
      <point x="614" y="-280"/>
      <point x="614" y="-239" type="qcurve"/>
      <point x="614" y="-211"/>
      <point x="628" y="-156"/>
      <point x="670" y="-98"/>
      <point x="748" y="-35"/>
      <point x="811" y="0" type="qcurve"/>
      <point x="182" y="0" type="line"/>
    </contour>
  </outline>
</glyph>
<glyph name="eogonek" format="2">
  <advance width="1024"/>
  <unicode hex="0119"/>
  <outline>
    <contour>
      <point x="244" y="487" type="line"/>
      <point x="244" y="373"/>
      <point x="301" y="215"/>
      <point x="394" y="116"/>
      <point x="513" y="72"/>
      <point x="575" y="72" type="qcurve"/>
      <point x="623" y="72"/>
      <point x="705" y="103"/>
      <point x="769" y="149"/>
      <point x="817" y="204"/>
      <point x="831" y="227" type="qcurve"/>
      <point x="932" y="125" type="line"/>
      <point x="910" y="99"/>
      <point x="811" y="26"/>
      <point x="739" y="0" type="qcurve"/>
      <point x="688" y="-38"/>
      <point x="619" y="-94"/>
      <point x="576" y="-143"/>
      <point x="557" y="-191"/>
      <point x="557" y="-222" type="qcurve"/>
      <point x="557" y="-245"/>
      <point x="574" y="-284"/>
      <point x="602" y="-312"/>
      <point x="637" y="-328"/>
      <point x="655" y="-328" type="qcurve"/>
      <point x="670" y="-328"/>
      <point x="691" y="-326"/>
      <point x="710" y="-320"/>
      <point x="728" y="-310"/>
      <point x="739" y="-302" type="qcurve"/>
      <point x="760" y="-419" type="line"/>
      <point x="734" y="-432"/>
      <point x="676" y="-440"/>
      <point x="647" y="-440" type="qcurve"/>
      <point x="606" y="-440"/>
      <point x="532" y="-408"/>
      <point x="477" y="-353"/>
      <point x="445" y="-280"/>
      <point x="445" y="-239" type="qcurve"/>
      <point x="445" y="-214"/>
      <point x="457" y="-164"/>
      <point x="488" y="-112"/>
      <point x="542" y="-58"/>
      <point x="584" y="-30" type="qcurve"/>
      <point x="457" y="-30"/>
      <point x="265" y="47"/>
      <point x="137" y="188"/>
      <point x="72" y="386"/>
      <point x="72" y="507" type="qcurve"/>
      <point x="72" y="617"/>
      <point x="146" y="800"/>
      <point x="274" y="931"/>
      <point x="442" y="1004"/>
      <point x="537" y="1004" type="qcurve"/>
      <point x="621" y="1004"/>
      <point x="774" y="944"/>
      <point x="892" y="817"/>
      <point x="962" y="622"/>
      <point x="962" y="487" type="qcurve"/>
    </contour>
    <contour>
      <point x="810" y="589" type="line"/>
      <point x="810" y="649"/>
      <point x="771" y="762"/>
      <point x="698" y="849"/>
      <point x="594" y="902"/>
      <point x="529" y="902" type="qcurve"/>
      <point x="467" y="902"/>
      <point x="366" y="853"/>
      <point x="292" y="769"/>
      <point x="248" y="655"/>
      <point x="244" y="589" type="qcurve"/>
    </contour>
  </outline>
</glyph>
<glyph name="Hbar" format="2">
  <advance width="1504"/>
  <unicode hex="0126"/>
  <outline>
    <contour>
      <point x="364" y="1434" type="line"/>
      <point x="364" y="1188" type="line"/>
      <point x="1140" y="1188" type="line"/>
      <point x="1140" y="1434" type="line"/>
      <point x="1322" y="1434" type="line"/>
      <point x="1322" y="1188" type="line"/>
      <point x="1422" y="1188" type="line"/>
      <point x="1400" y="1066" type="line"/>
      <point x="1322" y="1066" type="line"/>
      <point x="1322" y="0" type="line"/>
      <point x="1140" y="0" type="line"/>
      <point x="1140" y="707" type="line"/>
      <point x="364" y="707" type="line"/>
      <point x="364" y="0" type="line"/>
      <point x="182" y="0" type="line"/>
      <point x="182" y="1066" type="line"/>
      <point x="82" y="1066" type="line"/>
      <point x="103" y="1188" type="line"/>
      <point x="182" y="1188" type="line"/>
      <point x="182" y="1434" type="line"/>
    </contour>
    <contour>
      <point x="364" y="1066" type="line"/>
      <point x="364" y="829" type="line"/>
      <point x="1140" y="829" type="line"/>
      <point x="1140" y="1066" type="line"/>
    </contour>
  </outline>
</glyph>
<glyph name="hbar" format="2">
  <advance width="1120"/>
  <unicode hex="0127"/>
  <outline>
    <contour>
      <point x="38" y="1292" type="line"/>
      <point x="152" y="1292" type="line"/>
      <point x="152" y="1464" type="line"/>
      <point x="284" y="1494" type="line"/>
      <point x="314" y="1494" type="line"/>
      <point x="314" y="1292" type="line"/>
      <point x="590" y="1292" type="line"/>
      <point x="567" y="1160" type="line"/>
      <point x="314" y="1172" type="line"/>
      <point x="314" y="837" type="line"/>
      <point x="324" y="837" type="line"/>
      <point x="387" y="916"/>
      <point x="546" y="1004"/>
      <point x="652" y="1004" type="qcurve"/>
      <point x="721" y="1004"/>
      <point x="838" y="963"/>
      <point x="923" y="884"/>
      <point x="970" y="770"/>
      <point x="970" y="697" type="qcurve"/>
      <point x="970" y="196" type="line"/>
      <point x="970" y="130"/>
      <point x="1005" y="72"/>
      <point x="1048" y="72" type="qcurve"/>
      <point x="1030" y="-30" type="line"/>
      <point x="969" y="-30"/>
      <point x="885" y="9"/>
      <point x="832" y="77"/>
      <point x="808" y="171"/>
      <point x="808" y="227" type="qcurve"/>
      <point x="808" y="697" type="line"/>
      <point x="808" y="743"/>
      <point x="781" y="819"/>
      <point x="732" y="873"/>
      <point x="662" y="902"/>
      <point x="619" y="902" type="qcurve"/>
      <point x="569" y="902"/>
      <point x="480" y="869"/>
      <point x="403" y="812"/>
      <point x="339" y="738"/>
      <point x="314" y="696" type="qcurve"/>
      <point x="314" y="0" type="line"/>
      <point x="152" y="0" type="line"/>
      <point x="152" y="1182" type="line"/>
      <point x="20" y="1190" type="line"/>
    </contour>
  </outline>
</glyph>
<glyph name="Iogonek" format="2">
  <advance width="576"/>
  <unicode hex="012E"/>
  <outline>
    <contour>
      <point x="379" y="1464" type="line"/>
      <point x="379" y="0" type="line"/>
      <point x="328" y="-38"/>
      <point x="259" y="-94"/>
      <point x="216" y="-143"/>
      <point x="197" y="-191"/>
      <point x="197" y="-222" type="qcurve"/>
      <point x="197" y="-245"/>
      <point x="214" y="-284"/>
      <point x="242" y="-312"/>
      <point x="277" y="-328"/>
      <point x="295" y="-328" type="qcurve"/>
      <point x="310" y="-328"/>
      <point x="331" y="-326"/>
      <point x="350" y="-320"/>
      <point x="368" y="-310"/>
      <point x="379" y="-302" type="qcurve"/>
      <point x="400" y="-419" type="line"/>
      <point x="374" y="-432"/>
      <point x="316" y="-440"/>
      <point x="287" y="-440" type="qcurve"/>
      <point x="246" y="-440"/>
      <point x="172" y="-408"/>
      <point x="117" y="-353"/>
      <point x="85" y="-280"/>
      <point x="85" y="-239" type="qcurve"/>
      <point x="85" y="-209"/>
      <point x="101" y="-150"/>
      <point x="151" y="-88"/>
      <point x="197" y="-53" type="qcurve"/>
      <point x="232" y="-28"/>
      <point x="282" y="0" type="qcurve"/>
      <point x="197" y="0" type="line"/>
      <point x="197" y="1434" type="line"/>
    </contour>
  </outline>
</glyph>
<glyph name="iogonek" format="2">
  <advance width="576"/>
  <unicode hex="012F"/>
  <anchor x="288" y="1450" name="AccentDefault"/>
  <outline>
    <contour>
      <point x="369" y="1004" type="line"/>
      <point x="369" y="197" type="line"/>
      <point x="369" y="128"/>
      <point x="409" y="72"/>
      <point x="447" y="72" type="qcurve"/>
      <point x="429" y="-30" type="line"/>
      <point x="418" y="-30"/>
      <point x="400" y="-29"/>
      <point x="391" y="-28" type="qcurve"/>
      <point x="351" y="-58"/>
      <point x="296" y="-106"/>
      <point x="262" y="-149"/>
      <point x="247" y="-194"/>
      <point x="247" y="-222" type="qcurve"/>
      <point x="247" y="-245"/>
      <point x="264" y="-284"/>
      <point x="292" y="-312"/>
      <point x="327" y="-328"/>
      <point x="345" y="-328" type="qcurve"/>
      <point x="360" y="-328"/>
      <point x="381" y="-326"/>
      <point x="400" y="-320"/>
      <point x="418" y="-310"/>
      <point x="429" y="-302" type="qcurve"/>
      <point x="450" y="-419" type="line"/>
      <point x="424" y="-432"/>
      <point x="366" y="-440"/>
      <point x="337" y="-440" type="qcurve"/>
      <point x="296" y="-440"/>
      <point x="222" y="-408"/>
      <point x="167" y="-353"/>
      <point x="135" y="-280"/>
      <point x="135" y="-239" type="qcurve"/>
      <point x="135" y="-212"/>
      <point x="149" y="-156"/>
      <point x="188" y="-99"/>
      <point x="257" y="-39"/>
      <point x="311" y="-7" type="qcurve"/>
      <point x="260" y="18"/>
      <point x="207" y="129"/>
      <point x="207" y="226" type="qcurve"/>
      <point x="207" y="974" type="line"/>
      <point x="338" y="1004" type="line"/>
    </contour>
    <contour>
      <point x="192" y="1272" type="qcurve"/>
      <point x="192" y="1312"/>
      <point x="248" y="1368"/>
      <point x="288" y="1368" type="qcurve"/>
      <point x="328" y="1368"/>
      <point x="384" y="1312"/>
      <point x="384" y="1272" type="qcurve"/>
      <point x="384" y="1232"/>
      <point x="328" y="1176"/>
      <point x="288" y="1176" type="qcurve"/>
      <point x="248" y="1176"/>
      <point x="192" y="1232"/>
    </contour>
  </outline>
</glyph>
<glyph name="dotlessi" format="2">
  <advance width="576"/>
  <unicode hex="0131"/>
  <outline>
    <contour>
      <point x="207" y="0" type="line"/>
      <point x="207" y="974" type="line"/>
      <point x="339" y="1004" type="line"/>
      <point x="369" y="1004" type="line"/>
      <point x="369" y="0" type="line"/>
    </contour>
  </outline>
</glyph>
<glyph name="jcircumflex" format="2">
  <advance width="576"/>
  <unicode hex="0135"/>
  <outline>
    <contour>
      <point x="225" y="1557" type="line"/>
      <point x="347" y="1557" type="line"/>
      <point x="579" y="1219" type="line"/>
      <point x="488" y="1189" type="line"/>
      <point x="291" y="1434" type="line"/>
      <point x="281" y="1434" type="line"/>
      <point x="84" y="1189" type="line"/>
      <point x="-7" y="1219" type="line"/>
    </contour>
    <contour>
      <point x="207" y="974" type="line"/>
      <point x="339" y="1004" type="line"/>
      <point x="369" y="1004" type="line"/>
      <point x="369" y="-77" type="line"/>
      <point x="369" y="-196"/>
      <point x="320" y="-354"/>
      <point x="229" y="-450"/>
      <point x="97" y="-490"/>
      <point x="14" y="-490" type="qcurve"/>
      <point x="32" y="-388" type="line"/>
      <point x="68" y="-388"/>
      <point x="132" y="-365"/>
      <point x="180" y="-310"/>
      <point x="207" y="-220"/>
      <point x="207" y="-152" type="qcurve"/>
    </contour>
  </outline>
</glyph>
<glyph name="kgreenlandic" format="2">
  <advance width="1024"/>
  <unicode hex="0138"/>
  <outline>
    <contour>
      <point x="1009" y="0" type="line"/>
      <point x="825" y="-30" type="line"/>
      <point x="410" y="477" type="line"/>
      <point x="400" y="477" type="line"/>
      <point x="314" y="390" type="line"/>
      <point x="314" y="0" type="line"/>
      <point x="152" y="0" type="line"/>
      <point x="152" y="974" type="line"/>
      <point x="284" y="1004" type="line"/>
      <point x="314" y="1004" type="line"/>
      <point x="314" y="546" type="line"/>
      <point x="324" y="546" type="line"/>
      <point x="772" y="1004" type="line"/>
      <point x="899" y="974" type="line"/>
      <point x="494" y="571" type="line"/>
    </contour>
  </outline>
</glyph>
<glyph name="Lslash" format="2">
  <advance width="1088"/>
  <unicode hex="0141"/>
  <outline>
    <contour>
      <point x="364" y="1464" type="line"/>
      <point x="364" y="867" type="line"/>
      <point x="560" y="1004" type="line"/>
      <point x="580" y="896" type="line"/>
      <point x="364" y="745" type="line"/>
      <point x="364" y="122" type="line"/>
      <point x="1010" y="142" type="line"/>
      <point x="985" y="0" type="line"/>
      <point x="182" y="0" type="line"/>
      <point x="182" y="618" type="line"/>
      <point x="20" y="505" type="line"/>
      <point x="1" y="613" type="line"/>
      <point x="182" y="739" type="line"/>
      <point x="182" y="1434" type="line"/>
    </contour>
  </outline>
</glyph>
<glyph name="lslash" format="2">
  <advance width="576"/>
  <unicode hex="0142"/>
  <outline>
    <contour>
      <point x="207" y="1464" type="line"/>
      <point x="339" y="1494" type="line"/>
      <point x="369" y="1494" type="line"/>
      <point x="369" y="898" type="line"/>
      <point x="498" y="1004" type="line"/>
      <point x="520" y="880" type="line"/>
      <point x="369" y="756" type="line"/>
      <point x="369" y="293" type="line"/>
      <point x="369" y="226"/>
      <point x="400" y="140"/>
      <point x="448" y="91"/>
      <point x="505" y="72"/>
      <point x="530" y="72" type="qcurve"/>
      <point x="512" y="-30" type="line"/>
      <point x="455" y="-30"/>
      <point x="345" y="0"/>
      <point x="259" y="75"/>
      <point x="207" y="202"/>
      <point x="207" y="300" type="qcurve"/>
      <point x="207" y="624" type="line"/>
      <point x="70" y="512" type="line"/>
      <point x="48" y="636" type="line"/>
      <point x="207" y="766" type="line"/>
    </contour>
  </outline>
</glyph>
<glyph name="eng" format="2">
  <advance width="1120"/>
  <unicode hex="014B"/>
  <outline>
    <contour>
      <point x="970" y="-77" type="line"/>
      <point x="970" y="-196"/>
      <point x="921" y="-354"/>
      <point x="830" y="-450"/>
      <point x="698" y="-490"/>
      <point x="615" y="-490" type="qcurve"/>
      <point x="633" y="-388" type="line"/>
      <point x="669" y="-388"/>
      <point x="733" y="-365"/>
      <point x="781" y="-310"/>
      <point x="808" y="-220"/>
      <point x="808" y="-152" type="qcurve"/>
      <point x="808" y="687" type="line"/>
      <point x="808" y="790"/>
      <point x="710" y="902"/>
      <point x="619" y="902" type="qcurve"/>
      <point x="525" y="902"/>
      <point x="378" y="797"/>
      <point x="314" y="697" type="qcurve"/>
      <point x="314" y="0" type="line"/>
      <point x="152" y="0" type="line"/>
      <point x="152" y="944" type="line"/>
      <point x="284" y="974" type="line"/>
      <point x="314" y="974" type="line"/>
      <point x="314" y="837" type="line"/>
      <point x="324" y="837" type="line"/>
      <point x="394" y="925"/>
      <point x="551" y="1004"/>
      <point x="642" y="1004" type="qcurve"/>
      <point x="715" y="1004"/>
      <point x="835" y="963"/>
      <point x="922" y="887"/>
      <point x="970" y="776"/>
      <point x="970" y="707" type="qcurve"/>
    </contour>
  </outline>
</glyph>
<glyph name="OE" format="2">
  <advance width="1888"/>
  <unicode hex="0152"/>
  <outline>
    <contour>
      <point x="978" y="1434" type="line"/>
      <point x="1782" y="1434" type="line"/>
      <point x="1757" y="1290" type="line"/>
      <point x="1170" y="1332" type="line"/>
      <point x="1160" y="1332" type="line"/>
      <point x="1160" y="829" type="line"/>
      <point x="1676" y="829" type="line"/>
      <point x="1655" y="707" type="line"/>
      <point x="1160" y="707" type="line"/>
      <point x="1160" y="102" type="line"/>
      <point x="1170" y="102" type="line"/>
      <point x="1806" y="144" type="line"/>
      <point x="1782" y="0" type="line"/>
      <point x="978" y="0" type="line"/>
      <point x="930" y="-14"/>
      <point x="833" y="-30"/>
      <point x="782" y="-30" type="qcurve"/>
      <point x="695" y="-30"/>
      <point x="523" y="17"/>
      <point x="367" y="106"/>
      <point x="234" y="236"/>
      <point x="137" y="402"/>
      <point x="82" y="602"/>
      <point x="82" y="717" type="qcurve"/>
      <point x="82" y="832"/>
      <point x="137" y="1032"/>
      <point x="234" y="1198"/>
      <point x="367" y="1328"/>
      <point x="523" y="1417"/>
      <point x="694" y="1464"/>
      <point x="782" y="1464" type="qcurve"/>
      <point x="833" y="1464"/>
      <point x="930" y="1448"/>
      <point x="978" y="1433" type="qcurve"/>
    </contour>
    <contour>
      <point x="782" y="1342" type="qcurve"/>
      <point x="693" y="1342"/>
      <point x="513" y="1266"/>
      <point x="366" y="1111"/>
      <point x="274" y="876"/>
      <point x="274" y="717" type="qcurve"/>
      <point x="274" y="558"/>
      <point x="366" y="323"/>
      <point x="513" y="168"/>
      <point x="693" y="92"/>
      <point x="782" y="92" type="qcurve"/>
      <point x="830" y="92"/>
      <point x="930" y="114"/>
      <point x="978" y="137" type="qcurve"/>
      <point x="978" y="1296" type="line"/>
      <point x="930" y="1319"/>
      <point x="830" y="1342"/>
    </contour>
  </outline>
</glyph>
<glyph name="oe" format="2">
  <advance width="1824"/>
  <unicode hex="0153"/>
  <outline>
    <contour>
      <point x="559" y="1004" type="qcurve"/>
      <point x="690" y="1004"/>
      <point x="891" y="894"/>
      <point x="957" y="797" type="qcurve"/>
      <point x="1023" y="894"/>
      <point x="1220" y="1004"/>
      <point x="1338" y="1004" type="qcurve"/>
      <point x="1422" y="1004"/>
      <point x="1575" y="944"/>
      <point x="1692" y="817"/>
      <point x="1762" y="622"/>
      <point x="1762" y="487" type="qcurve"/>
      <point x="1046" y="487" type="line"/>
      <point x="1046" y="373"/>
      <point x="1103" y="215"/>
      <point x="1196" y="116"/>
      <point x="1314" y="72"/>
      <point x="1376" y="72" type="qcurve"/>
      <point x="1424" y="72"/>
      <point x="1505" y="103"/>
      <point x="1569" y="149"/>
      <point x="1617" y="203"/>
      <point x="1631" y="227" type="qcurve"/>
      <point x="1732" y="125" type="line"/>
      <point x="1716" y="106"/>
      <point x="1651" y="53"/>
      <point x="1558" y="4"/>
      <point x="1440" y="-30"/>
      <point x="1371" y="-30" type="qcurve"/>
      <point x="1231" y="-30"/>
      <point x="1023" y="74"/>
      <point x="957" y="177" type="qcurve"/>
      <point x="891" y="80"/>
      <point x="690" y="-30"/>
      <point x="559" y="-30" type="qcurve"/>
      <point x="452" y="-30"/>
      <point x="273" y="48"/>
      <point x="144" y="186"/>
      <point x="72" y="375"/>
      <point x="72" y="487" type="qcurve"/>
      <point x="72" y="598"/>
      <point x="144" y="788"/>
      <point x="273" y="926"/>
      <point x="452" y="1004"/>
    </contour>
    <contour>
      <point x="559" y="902" type="qcurve"/>
      <point x="488" y="902"/>
      <point x="371" y="837"/>
      <point x="289" y="724"/>
      <point x="244" y="573"/>
      <point x="244" y="487" type="qcurve"/>
      <point x="244" y="400"/>
      <point x="289" y="249"/>
      <point x="371" y="137"/>
      <point x="488" y="72"/>
      <point x="559" y="72" type="qcurve"/>
      <point x="630" y="72"/>
      <point x="746" y="137"/>
      <point x="829" y="249"/>
      <point x="874" y="401"/>
      <point x="874" y="487" type="qcurve"/>
      <point x="874" y="573"/>
      <point x="829" y="724"/>
      <point x="746" y="837"/>
      <point x="630" y="902"/>
    </contour>
    <contour>
      <point x="1610" y="589" type="line"/>
      <point x="1610" y="649"/>
      <point x="1571" y="762"/>
      <point x="1499" y="849"/>
      <point x="1395" y="902"/>
      <point x="1330" y="902" type="qcurve"/>
      <point x="1268" y="902"/>
      <point x="1167" y="853"/>
      <point x="1093" y="769"/>
      <point x="1050" y="655"/>
      <point x="1046" y="589" type="qcurve"/>
    </contour>
  </outline>
</glyph>
<glyph name="Scedilla" format="2">
  <advance width="1152"/>
  <unicode hex="015E"/>
  <outline>
    <contour>
      <point x="899" y="1113" type="line"/>
      <point x="875" y="1159"/>
      <point x="811" y="1242"/>
      <point x="734" y="1305"/>
      <point x="644" y="1342"/>
      <point x="595" y="1342" type="qcurve"/>
      <point x="547" y="1342"/>
      <point x="464" y="1308"/>
      <point x="403" y="1249"/>
      <point x="369" y="1170"/>
      <point x="369" y="1126" type="qcurve"/>
      <point x="369" y="1078"/>
      <point x="397" y="1000"/>
      <point x="462" y="934"/>
      <point x="566" y="876"/>
      <point x="643" y="848" type="qcurve"/>
      <point x="846" y="774"/>
      <point x="1052" y="555"/>
      <point x="1052" y="398" type="qcurve"/>
      <point x="1052" y="311"/>
      <point x="982" y="164"/>
      <point x="866" y="53"/>
      <point x="717" y="-18"/>
      <point x="638" y="-30" type="qcurve"/>
      <point x="609" y="-110" type="line"/>
      <point x="642" y="-110"/>
      <point x="699" y="-135"/>
      <point x="741" y="-182"/>
      <point x="766" y="-250"/>
      <point x="766" y="-293" type="qcurve"/>
      <point x="766" y="-344"/>
      <point x="728" y="-418"/>
      <point x="666" y="-466"/>
      <point x="590" y="-490"/>
      <point x="553" y="-490" type="qcurve"/>
      <point x="518" y="-490"/>
      <point x="459" y="-476"/>
      <point x="413" y="-456"/>
      <point x="381" y="-433"/>
      <point x="372" y="-423" type="qcurve"/>
      <point x="426" y="-347" type="line"/>
      <point x="429" y="-352"/>
      <point x="447" y="-372"/>
      <point x="475" y="-393"/>
      <point x="512" y="-408"/>
      <point x="534" y="-408" type="qcurve"/>
      <point x="557" y="-408"/>
      <point x="597" y="-391"/>
      <point x="627" y="-361"/>
      <point x="644" y="-321"/>
      <point x="644" y="-298" type="qcurve"/>
      <point x="644" y="-276"/>
      <point x="627" y="-236"/>
      <point x="597" y="-207"/>
      <point x="557" y="-190"/>
      <point x="534" y="-190" type="qcurve"/>
      <point x="513" y="-190"/>
      <point x="487" y="-194"/>
      <point x="469" y="-199"/>
      <point x="457" y="-204"/>
      <point x="451" y="-206" type="qcurve"/>
      <point x="516" y="-30" type="line"/>
      <point x="450" y="-20"/>
      <point x="338" y="15"/>
      <point x="238" y="71"/>
      <point x="146" y="150"/>
      <point x="100" y="204" type="qcurve"/>
      <point x="217" y="322" type="line"/>
      <point x="240" y="283"/>
      <point x="304" y="202"/>
      <point x="390" y="135"/>
      <point x="499" y="92"/>
      <point x="567" y="92" type="qcurve"/>
      <point x="634" y="92"/>
      <point x="743" y="139"/>
      <point x="819" y="213"/>
      <point x="860" y="305"/>
      <point x="860" y="351" type="qcurve"/>
      <point x="860" y="409"/>
      <point x="826" y="496"/>
      <point x="751" y="566"/>
      <point x="631" y="626"/>
      <point x="544" y="658" type="qcurve"/>
      <point x="460" y="689"/>
      <point x="327" y="772"/>
      <point x="236" y="879"/>
      <point x="187" y="1014"/>
      <point x="187" y="1097" type="qcurve"/>
      <point x="187" y="1173"/>
      <point x="250" y="1307"/>
      <point x="358" y="1407"/>
      <point x="503" y="1464"/>
      <point x="586" y="1464" type="qcurve"/>
      <point x="667" y="1464"/>
      <point x="802" y="1420"/>
      <point x="911" y="1351"/>
      <point x="991" y="1268"/>
      <point x="1016" y="1230" type="qcurve"/>
    </contour>
  </outline>
</glyph>
<glyph name="Tcommaaccent" format="2">
  <advance width="1152"/>
  <unicode hex="0162"/>
  <outline>
    <contour>
      <point x="57" y="1434" type="line"/>
      <point x="1120" y="1434" type="line"/>
      <point x="1095" y="1292" type="line"/>
      <point x="667" y="1312" type="line"/>
      <point x="667" y="0" type="line"/>
      <point x="628" y="-110" type="line"/>
      <point x="661" y="-110"/>
      <point x="718" y="-135"/>
      <point x="760" y="-182"/>
      <point x="785" y="-250"/>
      <point x="785" y="-293" type="qcurve"/>
      <point x="785" y="-344"/>
      <point x="747" y="-418"/>
      <point x="685" y="-466"/>
      <point x="609" y="-490"/>
      <point x="572" y="-490" type="qcurve"/>
      <point x="537" y="-490"/>
      <point x="478" y="-476"/>
      <point x="432" y="-456"/>
      <point x="400" y="-433"/>
      <point x="391" y="-423" type="qcurve"/>
      <point x="445" y="-347" type="line"/>
      <point x="448" y="-352"/>
      <point x="466" y="-372"/>
      <point x="494" y="-393"/>
      <point x="531" y="-408"/>
      <point x="553" y="-408" type="qcurve"/>
      <point x="576" y="-408"/>
      <point x="616" y="-391"/>
      <point x="646" y="-361"/>
      <point x="663" y="-321"/>
      <point x="663" y="-298" type="qcurve"/>
      <point x="663" y="-276"/>
      <point x="646" y="-236"/>
      <point x="616" y="-207"/>
      <point x="576" y="-190"/>
      <point x="553" y="-190" type="qcurve"/>
      <point x="532" y="-190"/>
      <point x="506" y="-194"/>
      <point x="488" y="-199"/>
      <point x="476" y="-204"/>
      <point x="470" y="-206" type="qcurve"/>
      <point x="545" y="0" type="line"/>
      <point x="485" y="0" type="line"/>
      <point x="485" y="1312" type="line"/>
      <point x="32" y="1292" type="line"/>
    </contour>
  </outline>
</glyph>
<glyph name="tcommaaccent" format="2">
  <advance width="736"/>
  <unicode hex="0163"/>
  <outline>
    <contour>
      <point x="413" y="1322" type="line"/>
      <point x="413" y="1004" type="line"/>
      <point x="650" y="1004" type="line"/>
      <point x="627" y="872" type="line"/>
      <point x="413" y="886" type="line"/>
      <point x="413" y="297" type="line"/>
      <point x="413" y="240"/>
      <point x="431" y="155"/>
      <point x="479" y="99"/>
      <point x="563" y="72"/>
      <point x="629" y="72" type="qcurve"/>
      <point x="611" y="-30" type="line"/>
      <point x="539" y="-30"/>
      <point x="485" y="-21" type="qcurve"/>
      <point x="454" y="-110" type="line"/>
      <point x="487" y="-110"/>
      <point x="544" y="-135"/>
      <point x="586" y="-182"/>
      <point x="611" y="-250"/>
      <point x="611" y="-293" type="qcurve"/>
      <point x="611" y="-344"/>
      <point x="573" y="-418"/>
      <point x="511" y="-466"/>
      <point x="435" y="-490"/>
      <point x="398" y="-490" type="qcurve"/>
      <point x="363" y="-490"/>
      <point x="304" y="-476"/>
      <point x="258" y="-456"/>
      <point x="226" y="-433"/>
      <point x="217" y="-423" type="qcurve"/>
      <point x="271" y="-347" type="line"/>
      <point x="274" y="-352"/>
      <point x="292" y="-372"/>
      <point x="320" y="-393"/>
      <point x="357" y="-408"/>
      <point x="379" y="-408" type="qcurve"/>
      <point x="402" y="-408"/>
      <point x="442" y="-391"/>
      <point x="472" y="-361"/>
      <point x="489" y="-321"/>
      <point x="489" y="-298" type="qcurve"/>
      <point x="489" y="-276"/>
      <point x="472" y="-236"/>
      <point x="442" y="-207"/>
      <point x="402" y="-190"/>
      <point x="379" y="-190" type="qcurve"/>
      <point x="358" y="-190"/>
      <point x="332" y="-194"/>
      <point x="314" y="-199"/>
      <point x="302" y="-204"/>
      <point x="296" y="-206" type="qcurve"/>
      <point x="376" y="12" type="line"/>
      <point x="340" y="31"/>
      <point x="292" y="87"/>
      <point x="263" y="165"/>
      <point x="251" y="264"/>
      <point x="251" y="326" type="qcurve"/>
      <point x="251" y="893" type="line"/>
      <point x="82" y="902" type="line"/>
      <point x="100" y="1004" type="line"/>
      <point x="251" y="1004" type="line"/>
      <point x="251" y="1292" type="line"/>
      <point x="383" y="1322" type="line"/>
    </contour>
  </outline>
</glyph>
<glyph name="Tbar" format="2">
  <advance width="1152"/>
  <unicode hex="0166"/>
  <outline>
    <contour>
      <point x="67" y="1434" type="line"/>
      <point x="1110" y="1434" type="line"/>
      <point x="1085" y="1292" type="line"/>
      <point x="677" y="1332" type="line"/>
      <point x="667" y="1332" type="line"/>
      <point x="667" y="829" type="line"/>
      <point x="936" y="829" type="line"/>
      <point x="915" y="707" type="line"/>
      <point x="667" y="707" type="line"/>
      <point x="667" y="0" type="line"/>
      <point x="485" y="0" type="line"/>
      <point x="485" y="707" type="line"/>
      <point x="216" y="707" type="line"/>
      <point x="237" y="829" type="line"/>
      <point x="485" y="829" type="line"/>
      <point x="485" y="1332" type="line"/>
      <point x="475" y="1332" type="line"/>
      <point x="42" y="1292" type="line"/>
    </contour>
  </outline>
</glyph>
<glyph name="tbar" format="2">
  <advance width="736"/>
  <unicode hex="0167"/>
  <outline>
    <contour>
      <point x="413" y="1322" type="line"/>
      <point x="413" y="1004" type="line"/>
      <point x="650" y="1004" type="line"/>
      <point x="627" y="872" type="line"/>
      <point x="413" y="886" type="line"/>
      <point x="413" y="588" type="line"/>
      <point x="650" y="588" type="line"/>
      <point x="632" y="486" type="line"/>
      <point x="413" y="486" type="line"/>
      <point x="413" y="297" type="line"/>
      <point x="413" y="240"/>
      <point x="431" y="155"/>
      <point x="479" y="99"/>
      <point x="563" y="72"/>
      <point x="629" y="72" type="qcurve"/>
      <point x="611" y="-30" type="line"/>
      <point x="504" y="-30"/>
      <point x="365" y="8"/>
      <point x="284" y="92"/>
      <point x="251" y="228"/>
      <point x="251" y="326" type="qcurve"/>
      <point x="251" y="486" type="line"/>
      <point x="82" y="486" type="line"/>
      <point x="100" y="588" type="line"/>
      <point x="251" y="588" type="line"/>
      <point x="251" y="893" type="line"/>
      <point x="82" y="902" type="line"/>
      <point x="100" y="1004" type="line"/>
      <point x="251" y="1004" type="line"/>
      <point x="251" y="1292" type="line"/>
      <point x="383" y="1322" type="line"/>
    </contour>
  </outline>
</glyph>
<glyph name="Uogonek" format="2">
  <advance width="1504"/>
  <unicode hex="0172"/>
  <anchor x="772" y="1600" name="AccentDefault"/>
  <outline>
    <contour>
      <point x="990" y="-419" type="line"/>
      <point x="964" y="-432"/>
      <point x="906" y="-440"/>
      <point x="877" y="-440" type="qcurve"/>
      <point x="836" y="-440"/>
      <point x="762" y="-408"/>
      <point x="707" y="-353"/>
      <point x="675" y="-280"/>
      <point x="675" y="-239" type="qcurve"/>
      <point x="675" y="-214"/>
      <point x="686" y="-164"/>
      <point x="719" y="-112"/>
      <point x="778" y="-57"/>
      <point x="827" y="-27" type="qcurve"/>
      <point x="790" y="-30"/>
      <point x="752" y="-30" type="qcurve"/>
      <point x="623" y="-30"/>
      <point x="413" y="41"/>
      <point x="263" y="186"/>
      <point x="182" y="409"/>
      <point x="182" y="562" type="qcurve"/>
      <point x="182" y="1434" type="line"/>
      <point x="364" y="1464" type="line"/>
      <point x="364" y="542" type="line"/>
      <point x="364" y="411"/>
      <point x="435" y="238"/>
      <point x="551" y="134"/>
      <point x="697" y="92"/>
      <point x="772" y="92" type="qcurve"/>
      <point x="854" y="92"/>
      <point x="1008" y="137"/>
      <point x="1128" y="242"/>
      <point x="1200" y="414"/>
      <point x="1200" y="542" type="qcurve"/>
      <point x="1200" y="1464" type="line"/>
      <point x="1322" y="1434" type="line"/>
      <point x="1322" y="562" type="line"/>
      <point x="1322" y="410"/>
      <point x="1241" y="187"/>
      <point x="1104" y="53"/>
      <point x="978" y="2"/>
      <point x="969" y="0" type="qcurve"/>
      <point x="918" y="-38"/>
      <point x="849" y="-94"/>
      <point x="806" y="-143"/>
      <point x="787" y="-191"/>
      <point x="787" y="-222" type="qcurve"/>
      <point x="787" y="-245"/>
      <point x="804" y="-284"/>
      <point x="832" y="-312"/>
      <point x="867" y="-328"/>
      <point x="885" y="-328" type="qcurve"/>
      <point x="900" y="-328"/>
      <point x="921" y="-326"/>
      <point x="940" y="-320"/>
      <point x="958" y="-310"/>
      <point x="969" y="-302" type="qcurve"/>
    </contour>
  </outline>
</glyph>
<glyph name="uogonek" format="2">
  <advance width="1120"/>
  <unicode hex="0173"/>
  <outline>
    <contour>
      <point x="314" y="1004" type="line"/>
      <point x="314" y="305" type="line"/>
      <point x="314" y="240"/>
      <point x="348" y="151"/>
      <point x="404" y="96"/>
      <point x="475" y="72"/>
      <point x="512" y="72" type="qcurve"/>
      <point x="567" y="72"/>
      <point x="657" y="107"/>
      <point x="730" y="163"/>
      <point x="786" y="230"/>
      <point x="808" y="263" type="qcurve"/>
      <point x="808" y="974" type="line"/>
      <point x="940" y="1004" type="line"/>
      <point x="970" y="1004" type="line"/>
      <point x="970" y="189" type="line"/>
      <point x="970" y="123"/>
      <point x="1008" y="72"/>
      <point x="1048" y="72" type="qcurve"/>
      <point x="1030" y="-30" type="line"/>
      <point x="1019" y="-30"/>
      <point x="1001" y="-29"/>
      <point x="992" y="-28" type="qcurve"/>
      <point x="952" y="-58"/>
      <point x="897" y="-106"/>
      <point x="863" y="-149"/>
      <point x="848" y="-194"/>
      <point x="848" y="-222" type="qcurve"/>
      <point x="848" y="-245"/>
      <point x="865" y="-284"/>
      <point x="893" y="-312"/>
      <point x="928" y="-328"/>
      <point x="946" y="-328" type="qcurve"/>
      <point x="961" y="-328"/>
      <point x="982" y="-326"/>
      <point x="1001" y="-320"/>
      <point x="1019" y="-310"/>
      <point x="1030" y="-302" type="qcurve"/>
      <point x="1051" y="-419" type="line"/>
      <point x="1025" y="-432"/>
      <point x="967" y="-440"/>
      <point x="938" y="-440" type="qcurve"/>
      <point x="897" y="-440"/>
      <point x="823" y="-408"/>
      <point x="768" y="-353"/>
      <point x="736" y="-280"/>
      <point x="736" y="-239" type="qcurve"/>
      <point x="736" y="-211"/>
      <point x="751" y="-155"/>
      <point x="791" y="-97"/>
      <point x="861" y="-36"/>
      <point x="917" y="-4" type="qcurve"/>
      <point x="872" y="21"/>
      <point x="828" y="103"/>
      <point x="818" y="142" type="qcurve"/>
      <point x="808" y="142" type="line"/>
      <point x="791" y="116"/>
      <point x="732" y="56"/>
      <point x="648" y="4"/>
      <point x="542" y="-30"/>
      <point x="479" y="-30" type="qcurve"/>
      <point x="417" y="-30"/>
      <point x="300" y="4"/>
      <point x="208" y="79"/>
      <point x="152" y="197"/>
      <point x="152" y="280" type="qcurve"/>
      <point x="152" y="974" type="line"/>
      <point x="284" y="1004" type="line"/>
    </contour>
  </outline>
</glyph>
